NotoSansDevanagari.glyphspackage
{
category = Letter;
glyphname = exclam;
layers = (
{
layerId = "B871EA9A-50AC-43A6-961C-B7EB8764AD7C";
shapes = (
{
closed = 1;
nodes = (
(191,174,l),
(193,714,l),
(165,714,l),
(167,174,l)
);
},
{
closed = 1;
nodes = (
(152,6,o),
(157,-8,o),
(177,-8,cs),
(201,-8,o),
(204,6,o),
(204,23,cs),
(204,39,o),
(201,54,o),
(177,54,cs),
(157,54,o),
(152,39,o),
(152,23,cs)
);
}
);
width = 322;
},
{
layerId = "6C7CC43D-04A1-4971-B3B5-A41D54964AD2";
shapes = (
{
closed = 1;
nodes = (
(238,201,l),
(263,714,l),
(156,714,l),
(181,201,l)
);
},
{
closed = 1;
nodes = (
(147,6,o),
(174,-14,o),
(209,-14,cs),
(242,-14,o),
(271,6,o),
(271,54,cs),
(271,103,o),
(242,121,o),
(209,121,cs),
(174,121,o),
(147,103,o),
(147,54,cs)
);
}
);
width = 383;
},
{
layerId = UUID0;
shapes = (
{
closed = 1;
nodes = (
(278,237,l),
(303,714,l),
(134,714,l),
(159,237,l)
);
},
{
closed = 1;
nodes = (
(132,11,o),
(170,-13,o),
(218,-13,cs),
(264,-13,o),
(303,11,o),
(303,70,cs),
(303,131,o),
(264,153,o),
(218,153,cs),
(170,153,o),
(132,131,o),
(132,70,cs)
);
}
);
width = 403;
},
{
layerId = "C05809E0-FD9D-43C4-90EB-E9E886B1ADAB";
shapes = (
{
closed = 1;
nodes = (
(308,252,l),
(333,714,l),
(122,714,l),
(147,252,l)
);
},
{
closed = 1;
nodes = (
(124,15,o),
(171,-12,o),
(227,-12,cs),
(282,-12,o),
(328,15,o),
(328,81,cs),
(328,150,o),
(282,175,o),
(227,175,cs),
(171,175,o),
(124,150,o),
(124,81,cs)
);
}
);
width = 429;
},
{
layerId = "5CC745D4-D12D-435B-A472-7D28876E43BC";
shapes = (
{
closed = 1;
nodes = (
(170,174,l),
(172,714,l),
(144,714,l),
(146,174,l)
);
},
{
closed = 1;
nodes = (
(131,6,o),
(136,-8,o),
(156,-8,cs),
(180,-8,o),
(183,6,o),
(183,23,cs),
(183,39,o),
(180,54,o),
(156,54,cs),
(136,54,o),
(131,39,o),
(131,23,cs)
);
}
);
width = 285;
},
{
layerId = "AA2163BC-B14D-4D16-A884-99BB623F1DBF";
shapes = (
{
closed = 1;
nodes = (
(209,201,l),
(231,714,l),
(131,714,l),
(152,201,l)
);
},
{
closed = 1;
nodes = (
(127,12,o),
(146,-10,o),
(181,-10,cs),
(212,-10,o),
(235,10,o),
(235,54,cs),
(235,99,o),
(214,118,o),
(181,118,cs),
(145,118,o),
(127,96,o),
(127,54,cs)
);
}
);
width = 337;
},
{
layerId = "9A082071-1CDF-4F9E-B116-82A287035C9D";
shapes = (
{
closed = 1;
nodes = (
(244,232,l),
(266,714,l),
(113,714,l),
(136,232,l)
);
},
{
closed = 1;
nodes = (
(112,18,o),
(141,-11,o),
(190,-11,cs),
(236,-11,o),
(266,17,o),
(266,71,cs),
(266,125,o),
(238,153,o),
(190,153,cs),
(139,153,o),
(112,124,o),
(112,71,cs)
);
}
);
width = 358;
},
{
layerId = "6EDA54BC-5413-4E6E-9D6B-A24A39A704A7";
shapes = (
{
closed = 1;
nodes = (
(266,252,l),
(289,714,l),
(102,714,l),
(126,252,l)
);
},
{
closed = 1;
nodes = (
(103,22,o),
(139,-12,o),
(196,-12,cs),
(252,-12,o),
(286,22,o),
(286,81,cs),
(286,141,o),
(254,175,o),
(196,175,cs),
(135,175,o),
(103,141,o),
(103,81,cs)
);
}
);
width = 371;
}
);
subCategory = Other;
unicode = 33;
}
{
category = Letter;
glyphname = quotedbl;
layers = (
{
layerId = "B871EA9A-50AC-43A6-961C-B7EB8764AD7C";
shapes = (
{
closed = 1;
nodes = (
(147,471,l),
(150,729,l),
(121,729,l),
(124,471,l)
);
},
{
closed = 1;
nodes = (
(293,471,l),
(296,729,l),
(267,729,l),
(270,471,l)
);
}
);
width = 400;
},
{
layerId = "6C7CC43D-04A1-4971-B3B5-A41D54964AD2";
shapes = (
{
closed = 1;
nodes = (
(201,471,l),
(226,729,l),
(115,729,l),
(140,471,l)
);
},
{
closed = 1;
nodes = (
(376,471,l),
(401,729,l),
(291,729,l),
(316,471,l)
);
}
);
width = 502;
},
{
layerId = "C05809E0-FD9D-43C4-90EB-E9E886B1ADAB";
shapes = (
{
closed = 1;
nodes = (
(250,471,l),
(270,729,l),
(96,729,l),
(116,471,l)
);
},
{
closed = 1;
nodes = (
(482,471,l),
(502,729,l),
(328,729,l),
(348,471,l)
);
}
);
width = 582;
},
{
layerId = "5CC745D4-D12D-435B-A472-7D28876E43BC";
shapes = (
{
closed = 1;
nodes = (
(132,471,l),
(135,729,l),
(106,729,l),
(109,471,l)
);
},
{
closed = 1;
nodes = (
(258,471,l),
(261,729,l),
(232,729,l),
(235,471,l)
);
}
);
width = 350;
},
{
layerId = "AA2163BC-B14D-4D16-A884-99BB623F1DBF";
shapes = (
{
closed = 1;
nodes = (
(177,471,l),
(194,729,l),
(100,729,l),
(117,471,l)
);
},
{
closed = 1;
nodes = (
(341,471,l),
(358,729,l),
(264,729,l),
(281,471,l)
);
}
);
width = 444;
},
{
layerId = "6EDA54BC-5413-4E6E-9D6B-A24A39A704A7";
shapes = (
{
closed = 1;
nodes = (
(239,471,l),
(259,729,l),
(89,729,l),
(109,471,l)
);
},
{
closed = 1;
nodes = (
(452,471,l),
(472,729,l),
(302,729,l),
(322,471,l)
);
}
);
width = 545;
}
);
subCategory = Other;
unicode = 34;
}
{
category = Letter;
glyphname = numbersign;
layers = (
{
layerId = "B871EA9A-50AC-43A6-961C-B7EB8764AD7C";
shapes = (
{
closed = 1;
nodes = (
(130,0,l),
(157,0,l),
(194,194,l),
(377,194,l),
(340,0,l),
(367,0,l),
(404,194,l),
(547,194,l),
(547,220,l),
(409,220,l),
(447,414,l),
(584,414,l),
(584,440,l),
(452,440,l),
(489,632,l),
(462,632,l),
(425,440,l),
(242,440,l),
(279,632,l),
(252,632,l),
(215,440,l),
(72,440,l),
(72,414,l),
(210,414,l),
(172,220,l),
(35,220,l),
(35,194,l),
(167,194,l)
);
},
{
closed = 1;
nodes = (
(199,220,l),
(237,414,l),
(420,414,l),
(382,220,l)
);
}
);
width = 619;
},
{
layerId = "6C7CC43D-04A1-4971-B3B5-A41D54964AD2";
shapes = (
{
closed = 1;
nodes = (
(126,0,l),
(195,0,l),
(229,176,l),
(369,176,l),
(334,0,l),
(404,0,l),
(438,176,l),
(584,176,l),
(584,242,l),
(451,242,l),
(480,394,l),
(619,394,l),
(619,459,l),
(493,459,l),
(527,632,l),
(458,632,l),
(424,459,l),
(284,459,l),
(317,632,l),
(247,632,l),
(213,459,l),
(70,459,l),
(70,394,l),
(202,394,l),
(171,242,l),
(34,242,l),
(34,176,l),
(159,176,l)
);
},
{
closed = 1;
nodes = (
(242,242,l),
(271,394,l),
(411,394,l),
(381,242,l)
);
}
);
width = 653;
},
{
layerId = "C05809E0-FD9D-43C4-90EB-E9E886B1ADAB";
shapes = (
{
closed = 1;
nodes = (
(112,0,l),
(246,0,l),
(274,153,l),
(341,153,l),
(313,0,l),
(447,0,l),
(475,153,l),
(600,153,l),
(600,272,l),
(497,272,l),
(514,366,l),
(632,366,l),
(632,485,l),
(536,485,l),
(563,632,l),
(429,632,l),
(402,485,l),
(335,485,l),
(362,632,l),
(228,632,l),
(201,485,l),
(76,485,l),
(76,366,l),
(179,366,l),
(162,272,l),
(44,272,l),
(44,153,l),
(140,153,l)
);
},
{
closed = 1;
nodes = (
(292,269,l),
(311,369,l),
(383,369,l),
(364,269,l)
);
}
);
width = 676;
},
{
layerId = "5CC745D4-D12D-435B-A472-7D28876E43BC";
shapes = (
{
closed = 1;
nodes = (
(99,0,l),
(125,0,l),
(152,194,l),
(278,194,l),
(251,0,l),
(277,0,l),
(303,194,l),
(407,194,l),
(407,220,l),
(308,220,l),
(334,414,l),
(434,414,l),
(434,440,l),
(339,440,l),
(366,632,l),
(340,632,l),
(314,440,l),
(187,440,l),
(214,632,l),
(188,632,l),
(162,440,l),
(58,440,l),
(58,414,l),
(157,414,l),
(131,220,l),
(31,220,l),
(31,194,l),
(127,194,l)
);
},
{
closed = 1;
nodes = (
(156,220,l),
(182,414,l),
(309,414,l),
(283,220,l)
);
}
);
width = 465;
},
{
layerId = "AA2163BC-B14D-4D16-A884-99BB623F1DBF";
shapes = (
{
closed = 1;
nodes = (
(92,0,l),
(153,0,l),
(175,177,l),
(271,177,l),
(247,0,l),
(309,0,l),
(333,177,l),
(434,177,l),
(434,240,l),
(344,240,l),
(363,395,l),
(458,395,l),
(458,458,l),
(374,458,l),
(396,632,l),
(335,632,l),
(313,458,l),
(217,458,l),
(239,632,l),
(177,632,l),
(154,458,l),
(55,458,l),
(55,395,l),
(144,395,l),
(125,240,l),
(30,240,l),
(30,177,l),
(114,177,l)
);
},
{
closed = 1;
nodes = (
(187,240,l),
(205,395,l),
(301,395,l),
(283,240,l)
);
}
);
width = 488;
},
{
layerId = "6EDA54BC-5413-4E6E-9D6B-A24A39A704A7";
shapes = (
{
closed = 1;
nodes = (
(76,0,l),
(192,0,l),
(213,154,l),
(269,154,l),
(249,0,l),
(365,0,l),
(384,154,l),
(470,154,l),
(470,270,l),
(401,270,l),
(412,368,l),
(492,368,l),
(492,484,l),
(429,484,l),
(448,632,l),
(332,632,l),
(312,484,l),
(257,484,l),
(276,632,l),
(160,632,l),
(141,484,l),
(54,484,l),
(54,368,l),
(124,368,l),
(112,270,l),
(32,270,l),
(32,154,l),
(97,154,l)
);
},
{
closed = 1;
nodes = (
(224,268,l),
(237,370,l),
(299,370,l),
(286,268,l)
);
}
);
width = 524;
}
);
subCategory = Other;
unicode = 35;
}
{
category = Letter;
glyphname = percent;
layers = (
{
layerId = "B871EA9A-50AC-43A6-961C-B7EB8764AD7C";
shapes = (
{
closed = 1;
nodes = (
(185,0,l),
(216,0,l),
(609,622,l),
(577,622,l)
);
},
{
closed = 1;
nodes = (
(281,276,o),
(333,339,o),
(333,455,cs),
(333,566,o),
(289,632,o),
(197,632,cs),
(112,632,o),
(59,568,o),
(59,455,cs),
(59,341,o),
(107,276,o),
(195,276,cs)
);
},
{
closed = 1;
nodes = (
(125,301,o),
(86,353,o),
(86,455,cs),
(86,557,o),
(127,607,o),
(197,607,cs),
(273,607,o),
(306,553,o),
(306,455,cs),
(306,355,o),
(269,301,o),
(195,301,cs)
);
},
{
closed = 1;
nodes = (
(682,-10,o),
(734,53,o),
(734,169,cs),
(734,280,o),
(690,346,o),
(598,346,cs),
(513,346,o),
(460,282,o),
(460,169,cs),
(460,55,o),
(508,-10,o),
(596,-10,cs)
);
},
{
closed = 1;
nodes = (
(526,15,o),
(487,67,o),
(487,169,cs),
(487,271,o),
(528,321,o),
(598,321,cs),
(674,321,o),
(707,267,o),
(707,169,cs),
(707,69,o),
(670,15,o),
(596,15,cs)
);
}
);
width = 793;
},
{
layerId = "6C7CC43D-04A1-4971-B3B5-A41D54964AD2";
shapes = (
{
closed = 1;
nodes = (
(183,0,l),
(261,0,l),
(646,622,l),
(569,622,l)
);
},
{
closed = 1;
nodes = (
(304,271,o),
(349,338,o),
(349,452,cs),
(349,566,o),
(298,632,o),
(202,632,cs),
(101,632,o),
(57,566,o),
(57,452,cs),
(57,338,o),
(107,271,o),
(202,271,cs)
);
},
{
closed = 1;
nodes = (
(150,334,o),
(129,374,o),
(129,452,cs),
(129,530,o),
(150,569,o),
(201,569,cs),
(251,569,o),
(276,530,o),
(276,452,cs),
(276,374,o),
(251,334,o),
(201,334,cs)
);
},
{
closed = 1;
nodes = (
(726,-10,o),
(770,59,o),
(770,171,cs),
(770,285,o),
(721,352,o),
(624,352,cs),
(523,352,o),
(479,285,o),
(479,171,cs),
(479,59,o),
(528,-10,o),
(624,-10,cs)
);
},
{
closed = 1;
nodes = (
(573,55,o),
(552,93,o),
(552,171,cs),
(552,250,o),
(573,289,o),
(624,289,cs),
(674,289,o),
(699,250,o),
(699,171,cs),
(699,94,o),
(674,55,o),
(624,55,cs)
);
}
);
width = 828;
},
{
layerId = "C05809E0-FD9D-43C4-90EB-E9E886B1ADAB";
shapes = (
{
closed = 1;
nodes = (
(211,0,l),
(351,0,l),
(747,622,l),
(607,622,l)
);
},
{
closed = 1;
nodes = (
(341,258,o),
(406,328,o),
(406,446,cs),
(406,564,o),
(338,632,o),
(220,632,cs),
(106,632,o),
(38,564,o),
(38,446,cs),
(38,328,o),
(105,258,o),
(220,258,cs)
);
},
{
closed = 1;
nodes = (
(194,376,o),
(185,403,o),
(185,445,cs),
(185,487,o),
(194,514,o),
(222,514,cs),
(250,514,o),
(259,487,o),
(259,445,cs),
(259,403,o),
(250,376,o),
(222,376,cs)
);
},
{
closed = 1;
nodes = (
(857,-8,o),
(922,60,o),
(922,178,cs),
(922,296,o),
(855,366,o),
(740,366,cs),
(622,366,o),
(554,298,o),
(554,180,cs),
(554,62,o),
(621,-8,o),
(740,-8,cs)
);
},
{
closed = 1;
nodes = (
(710,110,o),
(701,137,o),
(701,179,cs),
(701,221,o),
(710,248,o),
(738,248,cs),
(766,248,o),
(775,223,o),
(775,179,cs),
(775,137,o),
(766,110,o),
(738,110,cs)
);
}
);
width = 960;
},
{
layerId = "5CC745D4-D12D-435B-A472-7D28876E43BC";
shapes = (
{
closed = 1;
nodes = (
(142,0,l),
(171,0,l),
(454,622,l),
(425,622,l)
);
},
{
closed = 1;
nodes = (
(217,276,o),
(251,339,o),
(251,455,cs),
(251,569,o),
(217,632,o),
(151,632,cs),
(85,632,o),
(51,568,o),
(51,455,cs),
(51,338,o),
(85,276,o),
(151,276,cs)
);
},
{
closed = 1;
nodes = (
(100,301,o),
(77,353,o),
(77,455,cs),
(77,557,o),
(101,607,o),
(151,607,cs),
(203,607,o),
(225,553,o),
(225,455,cs),
(225,350,o),
(201,301,o),
(150,301,cs)
);
},
{
closed = 1;
nodes = (
(509,-10,o),
(543,53,o),
(543,169,cs),
(543,283,o),
(509,346,o),
(443,346,cs),
(377,346,o),
(343,282,o),
(343,169,cs),
(343,52,o),
(377,-10,o),
(443,-10,cs)
);
},
{
closed = 1;
nodes = (
(392,15,o),
(369,67,o),
(369,169,cs),
(369,271,o),
(393,321,o),
(443,321,cs),
(495,321,o),
(517,267,o),
(517,169,cs),
(517,64,o),
(493,15,o),
(442,15,cs)
);
}
);
width = 594;
},
{
layerId = "AA2163BC-B14D-4D16-A884-99BB623F1DBF";
shapes = (
{
closed = 1;
nodes = (
(149,0,l),
(216,0,l),
(493,622,l),
(426,622,l)
);
},
{
closed = 1;
nodes = (
(238,270,o),
(272,337,o),
(272,452,cs),
(272,566,o),
(234,632,o),
(160,632,cs),
(83,632,o),
(49,566,o),
(49,452,cs),
(49,337,o),
(88,270,o),
(160,270,cs)
);
},
{
closed = 1;
nodes = (
(129,331,o),
(115,371,o),
(115,451,cs),
(115,531,o),
(129,571,o),
(160,571,cs),
(191,571,o),
(206,531,o),
(206,451,cs),
(206,372,o),
(191,331,o),
(160,331,cs)
);
},
{
closed = 1;
nodes = (
(559,-10,o),
(593,59,o),
(593,171,cs),
(593,285,o),
(555,352,o),
(480,352,cs),
(403,352,o),
(370,285,o),
(370,171,cs),
(370,59,o),
(408,-10,o),
(480,-10,cs)
);
},
{
closed = 1;
nodes = (
(450,51,o),
(436,90,o),
(436,170,cs),
(436,252,o),
(450,291,o),
(480,291,cs),
(512,291,o),
(527,251,o),
(527,170,cs),
(527,91,o),
(512,51,o),
(480,51,cs)
);
}
);
width = 641;
},
{
layerId = "6EDA54BC-5413-4E6E-9D6B-A24A39A704A7";
shapes = (
{
closed = 1;
nodes = (
(168,0,l),
(294,0,l),
(662,622,l),
(536,622,l)
);
},
{
closed = 1;
nodes = (
(301,260,o),
(361,326,o),
(361,447,cs),
(361,572,o),
(298,632,o),
(202,632,cs),
(109,632,o),
(43,570,o),
(43,447,cs),
(43,319,o),
(110,260,o),
(200,260,cs)
);
},
{
closed = 1;
nodes = (
(179,375,o),
(175,402,o),
(175,446,cs),
(175,490,o),
(179,517,o),
(203,517,cs),
(225,517,o),
(229,490,o),
(229,446,cs),
(229,402,o),
(225,375,o),
(203,375,cs)
);
},
{
closed = 1;
nodes = (
(721,-10,o),
(787,52,o),
(787,175,cs),
(787,303,o),
(720,362,o),
(630,362,cs),
(529,362,o),
(469,296,o),
(469,175,cs),
(469,50,o),
(532,-10,o),
(628,-10,cs)
);
},
{
closed = 1;
nodes = (
(605,105,o),
(601,132,o),
(601,176,cs),
(601,220,o),
(605,247,o),
(627,247,cs),
(651,247,o),
(655,220,o),
(655,176,cs),
(655,132,o),
(651,105,o),
(627,105,cs)
);
}
);
width = 830;
}
);
subCategory = Other;
unicode = 37;
}
{
category = Letter;
glyphname = quotesingle;
layers = (
{
layerId = "B871EA9A-50AC-43A6-961C-B7EB8764AD7C";
shapes = (
{
closed = 1;
nodes = (
(147,471,l),
(150,729,l),
(121,729,l),
(124,471,l)
);
}
);
width = 254;
},
{
layerId = "6C7CC43D-04A1-4971-B3B5-A41D54964AD2";
shapes = (
{
closed = 1;
nodes = (
(201,471,l),
(226,729,l),
(115,729,l),
(140,471,l)
);
}
);
width = 326;
},
{
layerId = "C05809E0-FD9D-43C4-90EB-E9E886B1ADAB";
shapes = (
{
closed = 1;
nodes = (
(248,471,l),
(268,729,l),
(94,729,l),
(114,471,l)
);
}
);
width = 348;
},
{
layerId = "5CC745D4-D12D-435B-A472-7D28876E43BC";
shapes = (
{
closed = 1;
nodes = (
(132,471,l),
(135,729,l),
(106,729,l),
(109,471,l)
);
}
);
width = 224;
},
{
layerId = "AA2163BC-B14D-4D16-A884-99BB623F1DBF";
shapes = (
{
closed = 1;
nodes = (
(177,471,l),
(194,729,l),
(100,729,l),
(117,471,l)
);
}
);
width = 279;
},
{
layerId = "6EDA54BC-5413-4E6E-9D6B-A24A39A704A7";
shapes = (
{
closed = 1;
nodes = (
(239,471,l),
(259,729,l),
(89,729,l),
(109,471,l)
);
}
);
width = 332;
}
);
subCategory = Other;
unicode = 39;
}
{
category = Letter;
glyphname = parenleft;
layers = (
{
layerId = "B871EA9A-50AC-43A6-961C-B7EB8764AD7C";
shapes = (
{
closed = 1;
nodes = (
(256,-165,l),
(159,-29,o),
(105,140,o),
(105,330,cs),
(105,522,o),
(159,696,o),
(256,832,c),
(226,832,l),
(137,709,o),
(78,531,o),
(78,329,cs),
(78,129,o),
(137,-37,o),
(226,-165,c)
);
}
);
width = 323;
},
{
layerId = "6C7CC43D-04A1-4971-B3B5-A41D54964AD2";
shapes = (
{
closed = 1;
nodes = (
(295,-165,l),
(201,-20,o),
(153,159,o),
(153,336,cs),
(153,517,o),
(203,691,o),
(294,832,c),
(213,832,l),
(112,696,o),
(68,523,o),
(68,337,cs),
(68,153,o),
(113,-28,o),
(213,-165,c)
);
}
);
width = 354;
},
{
layerId = "C05809E0-FD9D-43C4-90EB-E9E886B1ADAB";
shapes = (
{
closed = 1;
nodes = (
(361,-165,l),
(275,-27,o),
(234,157,o),
(234,331,cs),
(234,507,o),
(274,692,o),
(362,832,c),
(203,832,l),
(109,695,o),
(66,511,o),
(66,333,cs),
(66,149,o),
(110,-32,o),
(203,-165,c)
);
}
);
width = 412;
},
{
layerId = "5CC745D4-D12D-435B-A472-7D28876E43BC";
shapes = (
{
closed = 1;
nodes = (
(216,-165,l),
(139,-29,o),
(93,140,o),
(93,333,cs),
(93,527,o),
(139,696,o),
(216,832,c),
(188,832,l),
(116,704,o),
(66,534,o),
(66,334,cs),
(66,133,o),
(116,-37,o),
(188,-165,c)
);
}
);
width = 275;
},
{
layerId = "AA2163BC-B14D-4D16-A884-99BB623F1DBF";
shapes = (
{
closed = 1;
nodes = (
(257,-165,l),
(181,-24,o),
(141,146,o),
(141,335,cs),
(141,521,o),
(181,691,o),
(256,832,c),
(181,832,l),
(102,697,o),
(62,524,o),
(62,335,cs),
(62,143,o),
(102,-30,o),
(181,-165,c)
);
}
);
width = 312;
},
{
layerId = "6EDA54BC-5413-4E6E-9D6B-A24A39A704A7";
shapes = (
{
closed = 1;
nodes = (
(307,-165,l),
(240,-26,o),
(205,152,o),
(205,330,cs),
(205,515,o),
(240,693,o),
(308,832,c),
(167,832,l),
(96,699,o),
(57,519,o),
(57,332,cs),
(57,148,o),
(96,-32,o),
(167,-165,c)
);
}
);
width = 358;
}
);
subCategory = Other;
unicode = 40;
}
{
category = Letter;
glyphname = parenright;
kernLeft = bracket;
layers = (
{
layerId = "B871EA9A-50AC-43A6-961C-B7EB8764AD7C";
shapes = (
{
closed = 1;
nodes = (
(97,-165,l),
(186,-42,o),
(245,136,o),
(245,338,cs),
(245,538,o),
(186,704,o),
(97,832,c),
(67,832,l),
(164,696,o),
(218,527,o),
(218,337,cs),
(218,145,o),
(164,-29,o),
(67,-165,c)
);
}
);
width = 323;
},
{
layerId = "6C7CC43D-04A1-4971-B3B5-A41D54964AD2";
shapes = (
{
closed = 1;
nodes = (
(141,-165,l),
(241,-30,o),
(286,143,o),
(286,329,cs),
(286,513,o),
(241,694,o),
(141,832,c),
(59,832,l),
(152,686,o),
(200,508,o),
(200,330,cs),
(200,153,o),
(150,-24,o),
(60,-165,c)
);
}
);
width = 354;
},
{
layerId = "C05809E0-FD9D-43C4-90EB-E9E886B1ADAB";
shapes = (
{
closed = 1;
nodes = (
(209,-165,l),
(303,-28,o),
(346,156,o),
(346,334,cs),
(346,518,o),
(302,699,o),
(209,832,c),
(51,832,l),
(137,694,o),
(178,510,o),
(178,336,cs),
(178,160,o),
(138,-25,o),
(50,-165,c)
);
}
);
width = 412;
},
{
layerId = "5CC745D4-D12D-435B-A472-7D28876E43BC";
shapes = (
{
closed = 1;
nodes = (
(87,-165,l),
(159,-37,o),
(209,133,o),
(209,333,cs),
(209,534,o),
(159,704,o),
(87,832,c),
(59,832,l),
(136,696,o),
(182,527,o),
(182,334,cs),
(182,140,o),
(136,-29,o),
(59,-165,c)
);
}
);
width = 275;
},
{
layerId = "AA2163BC-B14D-4D16-A884-99BB623F1DBF";
shapes = (
{
closed = 1;
nodes = (
(131,-165,l),
(210,-30,o),
(250,143,o),
(250,332,cs),
(250,524,o),
(210,697,o),
(131,832,c),
(55,832,l),
(131,691,o),
(171,521,o),
(171,333,cs),
(171,146,o),
(131,-24,o),
(56,-165,c)
);
}
);
width = 312;
},
{
layerId = "6EDA54BC-5413-4E6E-9D6B-A24A39A704A7";
shapes = (
{
closed = 1;
nodes = (
(191,-165,l),
(262,-32,o),
(301,148,o),
(301,335,cs),
(301,519,o),
(262,699,o),
(191,832,c),
(51,832,l),
(118,693,o),
(153,515,o),
(153,337,cs),
(153,152,o),
(118,-26,o),
(50,-165,c)
);
}
);
width = 358;
}
);
subCategory = Other;
unicode = 41;
}
{
category = Letter;
glyphname = asterisk;
layers = (
{
layerId = "B871EA9A-50AC-43A6-961C-B7EB8764AD7C";
shapes = (
{
closed = 1;
nodes = (
(171,345,l),
(286,512,l),
(402,344,l),
(425,361,l),
(303,523,l),
(496,581,l),
(488,608,l),
(297,542,l),
(300,745,l),
(272,745,l),
(275,542,l),
(84,608,l),
(75,581,l),
(269,523,l),
(148,361,l)
);
}
);
width = 561;
},
{
layerId = "6C7CC43D-04A1-4971-B3B5-A41D54964AD2";
shapes = (
{
closed = 1;
nodes = (
(228,293,l),
(305,468,l),
(391,293,l),
(478,340,l),
(358,499,l),
(543,513,l),
(530,607,l),
(336,553,l),
(357,745,l),
(257,745,l),
(278,553,l),
(87,607,l),
(73,513,l),
(256,499,l),
(138,340,l)
);
}
);
width = 607;
},
{
layerId = UUID0;
shapes = (
{
closed = 1;
nodes = (
(239,278,l),
(306,430,l),
(382,277,l),
(493,336,l),
(384,481,l),
(550,493,l),
(534,616,l),
(352,565,l),
(372,745,l),
(244,745,l),
(264,565,l),
(85,616,l),
(66,494,l),
(231,481,l),
(124,336,l)
);
}
);
width = 607;
},
{
layerId = "C05809E0-FD9D-43C4-90EB-E9E886B1ADAB";
shapes = (
{
closed = 1;
nodes = (
(249,266,l),
(309,403,l),
(379,265,l),
(506,332,l),
(405,468,l),
(558,478,l),
(540,622,l),
(366,573,l),
(385,745,l),
(237,745,l),
(256,573,l),
(86,622,l),
(64,480,l),
(217,468,l),
(116,332,l)
);
}
);
width = 612;
},
{
layerId = "5CC745D4-D12D-435B-A472-7D28876E43BC";
shapes = (
{
closed = 1;
nodes = (
(151,365,l),
(259,522,l),
(368,364,l),
(391,381,l),
(276,533,l),
(459,589,l),
(450,616,l),
(270,552,l),
(273,745,l),
(245,745,l),
(248,552,l),
(67,616,l),
(58,589,l),
(242,533,l),
(128,381,l)
);
}
);
width = 507;
},
{
layerId = "AA2163BC-B14D-4D16-A884-99BB623F1DBF";
shapes = (
{
closed = 1;
nodes = (
(201,316,l),
(274,481,l),
(356,316,l),
(438,360,l),
(325,511,l),
(500,525,l),
(488,614,l),
(304,564,l),
(323,745,l),
(228,745,l),
(248,564,l),
(67,614,l),
(54,525,l),
(227,511,l),
(115,360,l)
);
}
);
width = 544;
},
{
layerId = "9A082071-1CDF-4F9E-B116-82A287035C9D";
shapes = (
{
closed = 1;
nodes = (
(219,300,l),
(282,443,l),
(355,299,l),
(460,356,l),
(358,493,l),
(515,504,l),
(500,623,l),
(327,575,l),
(346,745,l),
(222,745,l),
(241,575,l),
(72,623,l),
(54,505,l),
(210,493,l),
(108,356,l)
);
}
);
width = 559;
},
{
layerId = "6EDA54BC-5413-4E6E-9D6B-A24A39A704A7";
shapes = (
{
closed = 1;
nodes = (
(230,290,l),
(287,419,l),
(354,289,l),
(474,353,l),
(379,482,l),
(524,491,l),
(507,628,l),
(342,582,l),
(360,745,l),
(218,745,l),
(236,582,l),
(75,628,l),
(54,493,l),
(199,482,l),
(104,353,l)
);
}
);
width = 568;
}
);
subCategory = Other;
unicode = 42;
}
{
category = Letter;
glyphname = plus;
layers = (
{
layerId = "B871EA9A-50AC-43A6-961C-B7EB8764AD7C";
shapes = (
{
closed = 1;
nodes = (
(263,103,l),
(289,103,l),
(289,309,l),
(494,309,l),
(494,335,l),
(289,335,l),
(289,538,l),
(263,538,l),
(263,335,l),
(58,335,l),
(58,309,l),
(263,309,l)
);
}
);
width = 551;
},
{
layerId = "6C7CC43D-04A1-4971-B3B5-A41D54964AD2";
shapes = (
{
closed = 1;
nodes = (
(239,97,l),
(312,97,l),
(312,286,l),
(501,286,l),
(501,359,l),
(312,359,l),
(312,548,l),
(239,548,l),
(239,359,l),
(50,359,l),
(50,286,l),
(239,286,l)
);
}
);
width = 551;
},
{
layerId = "C05809E0-FD9D-43C4-90EB-E9E886B1ADAB";
shapes = (
{
closed = 1;
nodes = (
(226,88,l),
(360,88,l),
(360,259,l),
(531,259,l),
(531,388,l),
(360,388,l),
(360,563,l),
(226,563,l),
(226,388,l),
(55,388,l),
(55,259,l),
(226,259,l)
);
}
);
width = 585;
},
{
layerId = "5CC745D4-D12D-435B-A472-7D28876E43BC";
shapes = (
{
closed = 1;
nodes = (
(193,120,l),
(219,120,l),
(219,309,l),
(373,309,l),
(373,335,l),
(219,335,l),
(219,524,l),
(193,524,l),
(193,335,l),
(38,335,l),
(38,309,l),
(193,309,l)
);
}
);
width = 411;
},
{
layerId = "AA2163BC-B14D-4D16-A884-99BB623F1DBF";
shapes = (
{
closed = 1;
nodes = (
(171,117,l),
(240,117,l),
(240,288,l),
(376,288,l),
(376,357,l),
(240,357,l),
(240,527,l),
(171,527,l),
(171,357,l),
(35,357,l),
(35,288,l),
(171,288,l)
);
}
);
width = 411;
},
{
layerId = "6EDA54BC-5413-4E6E-9D6B-A24A39A704A7";
shapes = (
{
closed = 1;
nodes = (
(180,91,l),
(310,91,l),
(310,260,l),
(457,260,l),
(457,386,l),
(310,386,l),
(310,557,l),
(180,557,l),
(180,386,l),
(33,386,l),
(33,260,l),
(180,260,l)
);
}
);
width = 490;
}
);
subCategory = Other;
unicode = 43;
}
{
category = Letter;
glyphname = comma;
kernLeft = comma;
layers = (
{
layerId = "B871EA9A-50AC-43A6-961C-B7EB8764AD7C";
shapes = (
{
closed = 1;
nodes = (
(69,-129,l),
(97,-60,o),
(119,30,o),
(134,104,c),
(131,116,l),
(103,116,l),
(92,40,o),
(76,-32,o),
(47,-129,c)
);
}
);
width = 208;
},
{
layerId = "6C7CC43D-04A1-4971-B3B5-A41D54964AD2";
shapes = (
{
closed = 1;
nodes = (
(113,-129,l),
(146,-56,o),
(181,34,o),
(199,105,c),
(192,116,l),
(95,116,l),
(85,47,o),
(66,-50,o),
(46,-129,c)
);
}
);
width = 268;
},
{
layerId = "C05809E0-FD9D-43C4-90EB-E9E886B1ADAB";
shapes = (
{
closed = 1;
nodes = (
(167,-139,l),
(200,-65,o),
(235,63,o),
(253,135,c),
(246,146,l),
(79,146,l),
(70,66,o),
(50,-48,o),
(31,-139,c)
);
}
);
width = 309;
},
{
layerId = "5CC745D4-D12D-435B-A472-7D28876E43BC";
shapes = (
{
closed = 1;
nodes = (
(66,-129,l),
(94,-60,o),
(116,30,o),
(131,104,c),
(128,116,l),
(100,116,l),
(89,40,o),
(73,-32,o),
(44,-129,c)
);
}
);
width = 208;
},
{
layerId = "AA2163BC-B14D-4D16-A884-99BB623F1DBF";
shapes = (
{
closed = 1;
nodes = (
(105,-129,l),
(137,-57,o),
(161,22,o),
(181,106,c),
(174,117,l),
(88,117,l),
(81,45,o),
(64,-48,o),
(43,-129,c)
);
}
);
width = 252;
},
{
layerId = "6EDA54BC-5413-4E6E-9D6B-A24A39A704A7";
shapes = (
{
closed = 1;
nodes = (
(168,-139,l),
(197,-66,o),
(218,25,o),
(233,135,c),
(228,146,l),
(70,146,l),
(66,71,o),
(48,-62,o),
(34,-139,c)
);
}
);
width = 278;
}
);
subCategory = Other;
unicode = 44;
}
{
category = Letter;
glyphname = hyphen;
layers = (
{
layerId = "B871EA9A-50AC-43A6-961C-B7EB8764AD7C";
shapes = (
{
closed = 1;
nodes = (
(49,284,l),
(267,284,l),
(267,310,l),
(49,310,l)
);
}
);
width = 316;
},
{
layerId = "6C7CC43D-04A1-4971-B3B5-A41D54964AD2";
shapes = (
{
closed = 1;
nodes = (
(49,256,l),
(291,256,l),
(291,338,l),
(49,338,l)
);
}
);
width = 340;
},
{
layerId = UUID0;
shapes = (
{
closed = 1;
nodes = (
(52,236,l),
(314,236,l),
(314,358,l),
(52,358,l)
);
}
);
width = 366;
},
{
layerId = "C05809E0-FD9D-43C4-90EB-E9E886B1ADAB";
shapes = (
{
closed = 1;
nodes = (
(55,221,l),
(331,221,l),
(331,373,l),
(55,373,l)
);
}
);
width = 387;
},
{
layerId = "5CC745D4-D12D-435B-A472-7D28876E43BC";
shapes = (
{
closed = 1;
nodes = (
(41,284,l),
(222,284,l),
(222,310,l),
(41,310,l)
);
}
);
width = 264;
},
{
layerId = "AA2163BC-B14D-4D16-A884-99BB623F1DBF";
shapes = (
{
closed = 1;
nodes = (
(40,258,l),
(239,258,l),
(239,336,l),
(40,336,l)
);
}
);
width = 278;
},
{
layerId = "9A082071-1CDF-4F9E-B116-82A287035C9D";
shapes = (
{
closed = 1;
nodes = (
(46,237,l),
(260,237,l),
(260,357,l),
(46,357,l)
);
}
);
width = 306;
},
{
layerId = "6EDA54BC-5413-4E6E-9D6B-A24A39A704A7";
shapes = (
{
closed = 1;
nodes = (
(50,224,l),
(273,224,l),
(273,370,l),
(50,370,l)
);
}
);
width = 323;
}
);
subCategory = Other;
unicode = 45;
}
{
category = Letter;
glyphname = period;
layers = (
{
layerId = "B871EA9A-50AC-43A6-961C-B7EB8764AD7C";
shapes = (
{
closed = 1;
nodes = (
(78,6,o),
(83,-8,o),
(103,-8,cs),
(127,-8,o),
(130,6,o),
(130,23,cs),
(130,39,o),
(127,54,o),
(103,54,cs),
(83,54,o),
(78,39,o),
(78,23,cs)
);
}
);
width = 208;
},
{
layerId = "6C7CC43D-04A1-4971-B3B5-A41D54964AD2";
shapes = (
{
closed = 1;
nodes = (
(72,6,o),
(99,-14,o),
(133,-14,cs),
(167,-14,o),
(196,6,o),
(196,54,cs),
(196,103,o),
(167,121,o),
(133,121,cs),
(99,121,o),
(72,103,o),
(72,54,cs)
);
}
);
width = 268;
},
{
layerId = "C05809E0-FD9D-43C4-90EB-E9E886B1ADAB";
shapes = (
{
closed = 1;
nodes = (
(47,15,o),
(94,-12,o),
(151,-12,cs),
(205,-12,o),
(251,15,o),
(251,81,cs),
(251,150,o),
(205,175,o),
(151,175,cs),
(94,175,o),
(47,150,o),
(47,81,cs)
);
}
);
width = 299;
},
{
layerId = "5CC745D4-D12D-435B-A472-7D28876E43BC";
shapes = (
{
closed = 1;
nodes = (
(78,6,o),
(83,-8,o),
(103,-8,cs),
(127,-8,o),
(130,6,o),
(130,23,cs),
(130,39,o),
(127,54,o),
(103,54,cs),
(83,54,o),
(78,39,o),
(78,23,cs)
);
}
);
width = 208;
},
{
layerId = "AA2163BC-B14D-4D16-A884-99BB623F1DBF";
shapes = (
{
closed = 1;
nodes = (
(72,8,o),
(92,-14,o),
(126,-14,cs),
(158,-14,o),
(180,6,o),
(180,50,cs),
(180,95,o),
(159,114,o),
(126,114,cs),
(91,114,o),
(72,92,o),
(72,50,cs)
);
}
);
width = 252;
},
{
layerId = "6EDA54BC-5413-4E6E-9D6B-A24A39A704A7";
shapes = (
{
closed = 1;
nodes = (
(48,22,o),
(84,-12,o),
(141,-12,cs),
(198,-12,o),
(231,22,o),
(231,81,cs),
(231,141,o),
(199,175,o),
(141,175,cs),
(81,175,o),
(48,141,o),
(48,81,cs)
);
}
);
width = 278;
}
);
subCategory = Other;
unicode = 46;
}
{
category = Letter;
glyphname = slash;
layers = (
{
layerId = "B871EA9A-50AC-43A6-961C-B7EB8764AD7C";
shapes = (
{
closed = 1;
nodes = (
(48,-166,l),
(75,-166,l),
(338,833,l),
(311,833,l)
);
}
);
width = 386;
},
{
layerId = "6C7CC43D-04A1-4971-B3B5-A41D54964AD2";
shapes = (
{
closed = 1;
nodes = (
(42,-166,l),
(125,-166,l),
(387,833,l),
(305,833,l)
);
}
);
width = 429;
},
{
layerId = "C05809E0-FD9D-43C4-90EB-E9E886B1ADAB";
shapes = (
{
closed = 1;
nodes = (
(29,-166,l),
(191,-166,l),
(477,833,l),
(315,833,l)
);
}
);
width = 507;
},
{
layerId = "5CC745D4-D12D-435B-A472-7D28876E43BC";
shapes = (
{
closed = 1;
nodes = (
(41,-166,l),
(68,-166,l),
(293,833,l),
(266,833,l)
);
}
);
width = 334;
},
{
layerId = "AA2163BC-B14D-4D16-A884-99BB623F1DBF";
shapes = (
{
closed = 1;
nodes = (
(37,-165,l),
(113,-165,l),
(362,832,l),
(286,832,l)
);
}
);
width = 399;
},
{
layerId = "6EDA54BC-5413-4E6E-9D6B-A24A39A704A7";
shapes = (
{
closed = 1;
nodes = (
(31,-165,l),
(178,-165,l),
(408,832,l),
(261,832,l)
);
}
);
width = 439;
}
);
subCategory = Other;
unicode = 47;
}
{
category = Letter;
glyphname = zero;
layers = (
{
layerId = "B871EA9A-50AC-43A6-961C-B7EB8764AD7C";
shapes = (
{
closed = 1;
nodes = (
(427,-10,o),
(487,121,o),
(487,358,cs),
(487,595,o),
(416,724,o),
(275,724,cs),
(125,724,o),
(65,594,o),
(65,358,cs),
(65,120,o),
(136,-10,o),
(275,-10,cs)
);
},
{
closed = 1;
nodes = (
(145,16,o),
(92,138,o),
(92,358,cs),
(92,579,o),
(142,698,o),
(275,698,cs),
(407,698,o),
(460,577,o),
(460,358,cs),
(460,136,o),
(410,16,o),
(275,16,cs)
);
}
);
width = 551;
},
{
layerId = "6C7CC43D-04A1-4971-B3B5-A41D54964AD2";
shapes = (
{
closed = 1;
nodes = (
(441,-10,o),
(504,127,o),
(504,358,cs),
(504,590,o),
(429,725,o),
(275,725,cs),
(111,725,o),
(48,589,o),
(48,358,cs),
(48,127,o),
(121,-10,o),
(275,-10,cs)
);
},
{
closed = 1;
nodes = (
(175,66,o),
(138,163,o),
(138,358,cs),
(138,553,o),
(175,649,o),
(275,649,cs),
(375,649,o),
(414,553,o),
(414,358,cs),
(414,161,o),
(375,66,o),
(275,66,cs)
);
}
);
width = 551;
},
{
layerId = "C05809E0-FD9D-43C4-90EB-E9E886B1ADAB";
shapes = (
{
closed = 1;
nodes = (
(478,-10,o),
(543,129,o),
(543,356,cs),
(543,589,o),
(464,724,o),
(289,724,cs),
(102,724,o),
(35,589,o),
(35,356,cs),
(35,126,o),
(113,-10,o),
(289,-10,cs)
);
},
{
closed = 1;
nodes = (
(237,143,o),
(225,215,o),
(225,356,cs),
(225,498,o),
(237,571,o),
(289,571,cs),
(341,571,o),
(353,498,o),
(353,356,cs),
(353,214,o),
(341,143,o),
(289,143,cs)
);
}
);
width = 578;
},
{
layerId = "5CC745D4-D12D-435B-A472-7D28876E43BC";
shapes = (
{
closed = 1;
nodes = (
(316,-10,o),
(361,120,o),
(361,357,cs),
(361,595,o),
(319,724,o),
(206,724,cs),
(98,724,o),
(51,597,o),
(51,358,cs),
(51,121,o),
(94,-10,o),
(205,-10,cs)
);
},
{
closed = 1;
nodes = (
(114,16,o),
(78,134,o),
(78,358,cs),
(78,581,o),
(115,698,o),
(207,698,cs),
(298,698,o),
(334,578,o),
(334,358,cs),
(334,135,o),
(298,16,o),
(205,16,cs)
);
}
);
width = 411;
},
{
layerId = "AA2163BC-B14D-4D16-A884-99BB623F1DBF";
shapes = (
{
closed = 1;
nodes = (
(309,-10,o),
(373,81,o),
(373,357,cs),
(373,614,o),
(320,724,o),
(206,724,cs),
(102,724,o),
(37,630,o),
(37,357,cs),
(37,118,o),
(85,-10,o),
(206,-10,cs)
);
},
{
closed = 1;
nodes = (
(140,62,o),
(120,162,o),
(120,357,cs),
(120,551,o),
(143,652,o),
(205,652,cs),
(270,652,o),
(290,555,o),
(290,357,cs),
(290,161,o),
(270,62,o),
(206,62,cs)
);
}
);
width = 411;
},
{
layerId = "6EDA54BC-5413-4E6E-9D6B-A24A39A704A7";
shapes = (
{
closed = 1;
nodes = (
(411,-10,o),
(453,150,o),
(453,356,cs),
(453,600,o),
(382,724,o),
(242,724,cs),
(100,724,o),
(33,610,o),
(33,356,cs),
(33,114,o),
(103,-10,o),
(242,-10,cs)
);
},
{
closed = 1;
nodes = (
(205,138,o),
(198,203,o),
(198,356,cs),
(198,504,o),
(207,576,o),
(243,576,cs),
(281,576,o),
(288,504,o),
(288,356,cs),
(288,203,o),
(281,138,o),
(243,138,cs)
);
}
);
width = 486;
}
);
subCategory = Other;
unicode = 48;
}
{
category = Letter;
glyphname = one;
layers = (
{
layerId = "B871EA9A-50AC-43A6-961C-B7EB8764AD7C";
shapes = (
{
closed = 1;
nodes = (
(323,0,l),
(323,714,l),
(300,714,l),
(105,572,l),
(121,551,l),
(244,642,ls),
(269,661,o),
(282,671,o),
(298,685,c),
(297,658,o),
(297,620,o),
(297,563,cs),
(297,0,l)
);
}
);
width = 551;
},
{
layerId = "6C7CC43D-04A1-4971-B3B5-A41D54964AD2";
shapes = (
{
closed = 1;
nodes = (
(347,0,l),
(347,714,l),
(274,714,l),
(87,568,l),
(134,508,l),
(206,567,ls),
(233,590,o),
(243,599,o),
(265,622,c),
(264,578,o),
(261,502,o),
(261,446,cs),
(261,0,l)
);
}
);
width = 551;
},
{
layerId = "C05809E0-FD9D-43C4-90EB-E9E886B1ADAB";
shapes = (
{
closed = 1;
nodes = (
(455,0,l),
(455,714,l),
(283,714,l),
(41,512,l),
(141,391,l),
(220,458,ls),
(234,470,o),
(248,484,o),
(264,504,c),
(262,454,o),
(262,376,o),
(262,355,cs),
(262,0,l)
);
}
);
width = 578;
},
{
layerId = "5CC745D4-D12D-435B-A472-7D28876E43BC";
shapes = (
{
closed = 1;
nodes = (
(243,0,l),
(243,714,l),
(220,714,l),
(79,569,l),
(97,550,l),
(178,638,ls),
(196,657,o),
(206,668,o),
(218,683,c),
(217,656,o),
(217,626,o),
(217,591,cs),
(217,0,l)
);
}
);
width = 411;
},
{
layerId = "AA2163BC-B14D-4D16-A884-99BB623F1DBF";
shapes = (
{
closed = 1;
nodes = (
(276,0,l),
(276,714,l),
(210,714,l),
(50,557,l),
(98,504,l),
(159,565,ls),
(179,585,o),
(189,597,o),
(196,609,c),
(195,566,o),
(193,493,o),
(193,437,cs),
(193,0,l)
);
}
);
width = 411;
},
{
layerId = "6EDA54BC-5413-4E6E-9D6B-A24A39A704A7";
shapes = (
{
closed = 1;
nodes = (
(390,0,l),
(390,714,l),
(240,714,l),
(27,486,l),
(129,389,l),
(189,456,ls),
(203,471,o),
(215,487,o),
(224,501,c),
(223,463,o),
(222,421,o),
(222,375,cs),
(222,0,l)
);
}
);
width = 486;
}
);
subCategory = Other;
unicode = 49;
}
{
category = Letter;
glyphname = two.deva;
layers = (
{
layerId = "B871EA9A-50AC-43A6-961C-B7EB8764AD7C";
shapes = (
{
closed = 1;
nodes = (
(52,0,l),
(484,0,l),
(484,26,l),
(88,26,l),
(88,27,l),
(296,247,ls),
(393,349,o),
(451,419,o),
(451,539,cs),
(451,652,o),
(378,724,o),
(263,724,cs),
(201,724,o),
(134,705,o),
(73,655,c),
(88,634,l),
(141,677,o),
(204,698,o),
(261,698,cs),
(363,698,o),
(424,639,o),
(424,539,cs),
(424,428,o),
(373,363,o),
(276,261,cs),
(52,24,l)
);
}
);
width = 551;
},
{
layerId = "6C7CC43D-04A1-4971-B3B5-A41D54964AD2";
shapes = (
{
closed = 1;
nodes = (
(47,0,l),
(492,0,l),
(492,81,l),
(156,81,l),
(156,85,l),
(293,231,ls),
(392,336,o),
(464,422,o),
(464,533,cs),
(464,652,o),
(385,724,o),
(260,724,cs),
(175,724,o),
(106,687,o),
(54,640,c),
(104,582,l),
(149,621,o),
(197,649,o),
(259,649,cs),
(327,649,o),
(374,606,o),
(374,530,cs),
(374,431,o),
(315,367,o),
(218,262,cs),
(47,76,l)
);
}
);
width = 551;
},
{
layerId = UUID0;
shapes = (
{
closed = 1;
nodes = (
(40,0,l),
(519,0,l),
(519,127,l),
(228,127,l),
(228,134,l),
(314,220,ls),
(414,321,o),
(499,412,o),
(499,523,cs),
(499,646,o),
(414,724,o),
(278,724,cs),
(163,724,o),
(96,675,o),
(38,622,c),
(120,525,l),
(172,572,o),
(218,598,o),
(269,598,cs),
(318,598,o),
(349,570,o),
(349,522,cs),
(349,435,o),
(292,377,o),
(208,286,cs),
(40,105,l)
);
}
);
width = 551;
},
{
layerId = "C05809E0-FD9D-43C4-90EB-E9E886B1ADAB";
shapes = (
{
closed = 1;
nodes = (
(30,0,l),
(539,0,l),
(539,158,l),
(274,158,l),
(274,163,l),
(328,214,ls),
(461,337,o),
(525,408,o),
(525,529,cs),
(525,641,o),
(433,724,o),
(290,724,cs),
(162,724,o),
(87,668,o),
(22,610,c),
(126,487,l),
(183,538,o),
(224,563,o),
(269,563,cs),
(306,563,o),
(336,545,o),
(336,503,cs),
(336,451,o),
(307,416,o),
(200,303,cs),
(30,126,l)
);
}
);
width = 578;
},
{
layerId = "5CC745D4-D12D-435B-A472-7D28876E43BC";
shapes = (
{
closed = 1;
nodes = (
(37,0,l),
(357,0,l),
(357,26,l),
(69,26,l),
(69,27,l),
(227,264,ls),
(294,365,o),
(334,436,o),
(334,545,cs),
(334,654,o),
(280,724,o),
(185,724,cs),
(139,724,o),
(97,709,o),
(50,672,c),
(64,650,l),
(105,681,o),
(140,698,o),
(185,698,cs),
(266,698,o),
(306,638,o),
(306,545,cs),
(306,446,o),
(270,377,o),
(199,270,cs),
(37,24,l)
);
}
);
width = 411;
},
{
layerId = "AA2163BC-B14D-4D16-A884-99BB623F1DBF";
shapes = (
{
closed = 1;
nodes = (
(25,0,l),
(374,0,l),
(374,75,l),
(125,75,l),
(125,79,l),
(246,261,ls),
(305,349,o),
(360,431,o),
(360,539,cs),
(360,651,o),
(296,724,o),
(189,724,cs),
(130,724,o),
(85,705,o),
(30,658,c),
(72,601,l),
(108,634,o),
(141,651,o),
(182,651,cs),
(243,651,o),
(277,610,o),
(277,532,cs),
(277,455,o),
(241,384,o),
(175,286,cs),
(25,62,l)
);
}
);
width = 411;
},
{
layerId = "9A082071-1CDF-4F9E-B116-82A287035C9D";
shapes = (
{
closed = 1;
nodes = (
(23,0,l),
(412,0,l),
(412,119,l),
(187,119,l),
(187,124,l),
(282,255,ls),
(364,366,o),
(401,437,o),
(401,530,cs),
(401,647,o),
(325,724,o),
(211,724,cs),
(139,724,o),
(82,696,o),
(21,638,c),
(89,548,l),
(125,585,o),
(160,606,o),
(196,606,cs),
(243,606,o),
(267,574,o),
(267,520,cs),
(267,461,o),
(245,407,o),
(164,295,cs),
(23,98,l)
);
}
);
width = 457;
},
{
layerId = "6EDA54BC-5413-4E6E-9D6B-A24A39A704A7";
shapes = (
{
closed = 1;
nodes = (
(23,0,l),
(437,0,l),
(437,147,l),
(227,147,l),
(227,152,l),
(305,252,ls),
(402,376,o),
(427,441,o),
(427,524,cs),
(427,645,o),
(344,724,o),
(226,724,cs),
(146,724,o),
(81,690,o),
(16,626,c),
(100,514,l),
(137,555,o),
(172,577,o),
(206,577,cs),
(244,577,o),
(262,552,o),
(262,513,cs),
(262,465,o),
(248,421,o),
(158,300,cs),
(23,120,l)
);
}
);
width = 486;
}
);
subCategory = Other;
unicode = 50;
}
{
category = Letter;
glyphname = two;
layers = (
{
layerId = "B871EA9A-50AC-43A6-961C-B7EB8764AD7C";
shapes = (
{
closed = 1;
nodes = (
(52,0,l),
(484,0,l),
(484,26,l),
(88,26,l),
(88,27,l),
(296,247,ls),
(393,349,o),
(451,419,o),
(451,539,cs),
(451,652,o),
(378,724,o),
(263,724,cs),
(201,724,o),
(134,705,o),
(73,655,c),
(88,634,l),
(141,677,o),
(204,698,o),
(261,698,cs),
(363,698,o),
(424,639,o),
(424,539,cs),
(424,428,o),
(373,363,o),
(276,261,cs),
(52,24,l)
);
}
);
width = 551;
},
{
layerId = "6C7CC43D-04A1-4971-B3B5-A41D54964AD2";
shapes = (
{
closed = 1;
nodes = (
(47,0,l),
(492,0,l),
(492,81,l),
(156,81,l),
(156,85,l),
(293,231,ls),
(392,336,o),
(464,422,o),
(464,533,cs),
(464,652,o),
(385,724,o),
(260,724,cs),
(175,724,o),
(106,687,o),
(54,640,c),
(104,582,l),
(149,621,o),
(197,649,o),
(259,649,cs),
(327,649,o),
(374,606,o),
(374,530,cs),
(374,431,o),
(315,367,o),
(218,262,cs),
(47,76,l)
);
}
);
width = 551;
},
{
layerId = "C05809E0-FD9D-43C4-90EB-E9E886B1ADAB";
shapes = (
{
closed = 1;
nodes = (
(30,0,l),
(539,0,l),
(539,158,l),
(274,158,l),
(274,163,l),
(328,214,ls),
(461,337,o),
(525,408,o),
(525,529,cs),
(525,641,o),
(433,724,o),
(290,724,cs),
(162,724,o),
(87,668,o),
(22,610,c),
(126,487,l),
(183,538,o),
(224,563,o),
(269,563,cs),
(306,563,o),
(336,545,o),
(336,503,cs),
(336,451,o),
(307,416,o),
(200,303,cs),
(30,126,l)
);
}
);
width = 578;
},
{
layerId = "5CC745D4-D12D-435B-A472-7D28876E43BC";
shapes = (
{
closed = 1;
nodes = (
(37,0,l),
(357,0,l),
(357,26,l),
(69,26,l),
(69,27,l),
(227,264,ls),
(294,365,o),
(334,436,o),
(334,545,cs),
(334,654,o),
(280,724,o),
(185,724,cs),
(139,724,o),
(97,709,o),
(50,672,c),
(64,650,l),
(105,681,o),
(140,698,o),
(185,698,cs),
(266,698,o),
(306,638,o),
(306,545,cs),
(306,446,o),
(270,377,o),
(199,270,cs),
(37,24,l)
);
}
);
width = 411;
},
{
layerId = "AA2163BC-B14D-4D16-A884-99BB623F1DBF";
shapes = (
{
closed = 1;
nodes = (
(25,0,l),
(374,0,l),
(374,75,l),
(125,75,l),
(125,79,l),
(246,261,ls),
(305,349,o),
(360,431,o),
(360,539,cs),
(360,651,o),
(296,724,o),
(189,724,cs),
(130,724,o),
(85,705,o),
(30,658,c),
(72,601,l),
(108,634,o),
(141,651,o),
(182,651,cs),
(243,651,o),
(277,610,o),
(277,532,cs),
(277,455,o),
(241,384,o),
(175,286,cs),
(25,62,l)
);
}
);
width = 411;
},
{
layerId = "6EDA54BC-5413-4E6E-9D6B-A24A39A704A7";
shapes = (
{
closed = 1;
nodes = (
(23,0,l),
(437,0,l),
(437,147,l),
(227,147,l),
(227,152,l),
(305,252,ls),
(402,376,o),
(427,441,o),
(427,524,cs),
(427,645,o),
(344,724,o),
(226,724,cs),
(146,724,o),
(81,690,o),
(16,626,c),
(100,514,l),
(137,555,o),
(172,577,o),
(206,577,cs),
(244,577,o),
(262,552,o),
(262,513,cs),
(262,465,o),
(248,421,o),
(158,300,cs),
(23,120,l)
);
}
);
width = 486;
}
);
subCategory = Other;
unicode = 50;
}
{
category = Letter;
glyphname = three;
layers = (
{
layerId = "B871EA9A-50AC-43A6-961C-B7EB8764AD7C";
shapes = (
{
closed = 1;
nodes = (
(389,-10,o),
(466,70,o),
(466,194,cs),
(466,292,o),
(401,360,o),
(291,371,c),
(291,372,l),
(376,390,o),
(443,445,o),
(443,550,cs),
(443,642,o),
(383,724,o),
(254,724,cs),
(169,724,o),
(109,692,o),
(50,657,c),
(65,634,l),
(129,675,o),
(181,698,o),
(255,698,cs),
(343,698,o),
(416,653,o),
(416,548,cs),
(416,450,o),
(347,384,o),
(207,384,cs),
(150,384,l),
(150,358,l),
(208,358,ls),
(335,358,o),
(439,316,o),
(439,193,cs),
(439,77,o),
(367,16,o),
(227,16,cs),
(149,16,o),
(96,28,o),
(42,56,c),
(42,27,l),
(95,1,o),
(159,-10,o),
(229,-10,cs)
);
}
);
width = 551;
},
{
layerId = "6C7CC43D-04A1-4971-B3B5-A41D54964AD2";
shapes = (
{
closed = 1;
nodes = (
(408,-10,o),
(491,78,o),
(491,203,cs),
(491,297,o),
(430,359,o),
(315,373,c),
(315,376,l),
(407,392,o),
(469,451,o),
(469,547,cs),
(469,650,o),
(396,724,o),
(256,724,cs),
(165,724,o),
(92,691,o),
(43,651,c),
(88,590,l),
(136,625,o),
(186,649,o),
(256,649,cs),
(329,649,o),
(378,609,o),
(378,541,cs),
(378,461,o),
(320,406,o),
(214,406,cs),
(149,406,l),
(149,332,l),
(214,332,ls),
(329,332,o),
(400,294,o),
(400,206,cs),
(400,118,o),
(347,65,o),
(227,65,cs),
(166,65,o),
(97,82,o),
(40,112,c),
(40,29,l),
(95,0,o),
(158,-10,o),
(229,-10,cs)
);
}
);
width = 551;
},
{
layerId = "C05809E0-FD9D-43C4-90EB-E9E886B1ADAB";
shapes = (
{
closed = 1;
nodes = (
(446,-10,o),
(537,86,o),
(537,204,cs),
(537,304,o),
(474,358,o),
(362,373,c),
(362,376,l),
(446,400,o),
(517,458,o),
(517,557,cs),
(517,662,o),
(428,724,o),
(283,724,cs),
(163,724,o),
(94,693,o),
(35,652,c),
(113,524,l),
(136,539,o),
(190,570,o),
(253,570,cs),
(301,570,o),
(332,552,o),
(332,514,cs),
(332,468,o),
(294,438,o),
(187,438,cs),
(143,438,l),
(143,293,l),
(186,293,ls),
(306,293,o),
(336,265,o),
(336,216,cs),
(336,170,o),
(308,141,o),
(216,141,cs),
(163,141,o),
(95,156,o),
(34,188,c),
(34,29,l),
(95,4,o),
(154,-10,o),
(244,-10,cs)
);
}
);
width = 578;
},
{
layerId = "5CC745D4-D12D-435B-A472-7D28876E43BC";
shapes = (
{
closed = 1;
nodes = (
(285,-10,o),
(344,54,o),
(344,181,cs),
(344,293,o),
(288,351,o),
(209,370,c),
(209,372,l),
(283,399,o),
(329,455,o),
(329,552,cs),
(329,662,o),
(271,724,o),
(178,724,cs),
(124,724,o),
(80,704,o),
(34,668,c),
(50,646,l),
(89,681,o),
(132,700,o),
(176,700,cs),
(255,700,o),
(302,647,o),
(302,552,cs),
(302,449,o),
(242,383,o),
(137,383,cs),
(113,383,l),
(113,358,l),
(143,358,ls),
(259,358,o),
(317,287,o),
(317,181,cs),
(317,70,o),
(272,14,o),
(172,14,cs),
(122,14,o),
(80,27,o),
(41,47,c),
(41,19,l),
(79,1,o),
(126,-10,o),
(169,-10,cs)
);
}
);
width = 411;
},
{
layerId = "AA2163BC-B14D-4D16-A884-99BB623F1DBF";
shapes = (
{
closed = 1;
nodes = (
(300,-10,o),
(369,72,o),
(369,195,cs),
(369,293,o),
(317,352,o),
(228,370,c),
(228,374,l),
(315,400,o),
(356,466,o),
(356,550,cs),
(356,651,o),
(295,724,o),
(187,724,cs),
(126,724,o),
(78,703,o),
(24,660,c),
(64,602,l),
(102,633,o),
(136,653,o),
(176,653,cs),
(241,653,o),
(275,611,o),
(275,541,cs),
(275,460,o),
(230,404,o),
(138,404,cs),
(103,404,l),
(103,334,l),
(136,334,ls),
(237,334,o),
(285,284,o),
(285,197,cs),
(285,114,o),
(249,61,o),
(170,61,cs),
(116,61,o),
(72,74,o),
(29,100,c),
(29,19,l),
(72,-1,o),
(117,-10,o),
(176,-10,cs)
);
}
);
width = 411;
},
{
layerId = "6EDA54BC-5413-4E6E-9D6B-A24A39A704A7";
shapes = (
{
closed = 1;
nodes = (
(353,-10,o),
(448,71,o),
(448,204,cs),
(448,297,o),
(402,352,o),
(312,373,c),
(312,376,l),
(389,405,o),
(432,466,o),
(432,538,cs),
(432,663,o),
(353,724,o),
(241,724,cs),
(158,724,o),
(93,700,o),
(28,660,c),
(89,537,l),
(129,562,o),
(166,579,o),
(207,579,cs),
(247,579,o),
(270,558,o),
(270,516,cs),
(270,463,o),
(230,435,o),
(149,435,cs),
(112,435,l),
(112,296,l),
(148,296,ls),
(238,296,o),
(273,270,o),
(273,211,cs),
(273,158,o),
(243,135,o),
(176,135,cs),
(132,135,o),
(78,150,o),
(27,182,c),
(27,27,l),
(92,-2,o),
(139,-10,o),
(204,-10,cs)
);
}
);
width = 486;
}
);
subCategory = Other;
unicode = 51;
}
{
category = Letter;
glyphname = four;
layers = (
{
layerId = "B871EA9A-50AC-43A6-961C-B7EB8764AD7C";
shapes = (
{
closed = 1;
nodes = (
(377,0,l),
(404,0,l),
(404,193,l),
(527,193,l),
(527,219,l),
(404,219,l),
(404,721,l),
(375,721,l),
(25,214,l),
(25,193,l),
(377,193,l)
);
},
{
closed = 1;
nodes = (
(60,219,l),
(333,614,ls),
(353,643,o),
(367,665,o),
(380,690,c),
(382,689,l),
(378,627,o),
(378,577,o),
(378,448,cs),
(378,219,l)
);
}
);
width = 551;
},
{
layerId = "6C7CC43D-04A1-4971-B3B5-A41D54964AD2";
shapes = (
{
closed = 1;
nodes = (
(341,0,l),
(427,0,l),
(427,160,l),
(531,160,l),
(531,241,l),
(427,241,l),
(427,718,l),
(335,718,l),
(11,238,l),
(11,160,l),
(341,160,l)
);
},
{
closed = 1;
nodes = (
(98,241,l),
(299,538,ls),
(313,560,o),
(333,600,o),
(343,626,c),
(347,626,l),
(346,582,o),
(341,488,o),
(341,415,cs),
(341,241,l)
);
}
);
width = 551;
},
{
layerId = "C05809E0-FD9D-43C4-90EB-E9E886B1ADAB";
shapes = (
{
closed = 1;
nodes = (
(297,0,l),
(485,0,l),
(485,138,l),
(563,138,l),
(563,281,l),
(485,281,l),
(485,714,l),
(309,714,l),
(17,279,l),
(17,138,l),
(297,138,l)
);
},
{
closed = 1;
nodes = (
(179,278,l),
(258,401,ls),
(274,427,o),
(284,442,o),
(296,471,c),
(301,471,l),
(300,469,o),
(297,394,o),
(297,366,cs),
(297,278,l)
);
}
);
width = 578;
},
{
layerId = "5CC745D4-D12D-435B-A472-7D28876E43BC";
shapes = (
{
closed = 1;
nodes = (
(275,0,l),
(301,0,l),
(301,193,l),
(388,193,l),
(388,219,l),
(301,219,l),
(301,721,l),
(272,721,l),
(22,217,l),
(22,193,l),
(275,193,l)
);
},
{
closed = 1;
nodes = (
(52,219,l),
(242,607,ls),
(258,639,o),
(268,661,o),
(277,686,c),
(279,685,l),
(276,623,o),
(276,577,o),
(276,448,cs),
(276,219,l)
);
}
);
width = 411;
},
{
layerId = "AA2163BC-B14D-4D16-A884-99BB623F1DBF";
shapes = (
{
closed = 1;
nodes = (
(246,0,l),
(328,0,l),
(328,163,l),
(392,163,l),
(392,237,l),
(328,237,l),
(328,720,l),
(238,720,l),
(11,231,l),
(11,163,l),
(246,163,l)
);
},
{
closed = 1;
nodes = (
(86,237,l),
(208,507,ls),
(229,552,o),
(237,578,o),
(246,611,c),
(249,611,l),
(248,583,o),
(246,529,o),
(246,498,cs),
(246,237,l)
);
}
);
width = 411;
},
{
layerId = "6EDA54BC-5413-4E6E-9D6B-A24A39A704A7";
shapes = (
{
closed = 1;
nodes = (
(243,0,l),
(405,0,l),
(405,138,l),
(472,138,l),
(472,275,l),
(405,275,l),
(405,714,l),
(250,714,l),
(16,272,l),
(16,138,l),
(243,138,l)
);
},
{
closed = 1;
nodes = (
(149,275,l),
(211,396,ls),
(226,425,o),
(234,445,o),
(242,473,c),
(246,473,l),
(245,470,o),
(243,383,o),
(243,371,cs),
(243,275,l)
);
}
);
width = 486;
}
);
subCategory = Other;
unicode = 52;
}
{
category = Letter;
glyphname = five;
layers = (
{
layerId = "B871EA9A-50AC-43A6-961C-B7EB8764AD7C";
shapes = (
{
closed = 1;
nodes = (
(406,-10,o),
(481,74,o),
(481,220,cs),
(481,351,o),
(393,426,o),
(259,426,cs),
(203,426,o),
(153,417,o),
(117,407,c),
(140,688,l),
(426,688,l),
(426,714,l),
(116,714,l),
(89,393,l),
(111,379,l),
(163,393,o),
(203,400,o),
(257,400,cs),
(375,400,o),
(454,343,o),
(454,215,cs),
(454,81,o),
(378,16,o),
(257,16,cs),
(182,16,o),
(123,33,o),
(72,66,c),
(72,35,l),
(118,7,o),
(187,-10,o),
(254,-10,cs)
);
}
);
width = 551;
},
{
layerId = "6C7CC43D-04A1-4971-B3B5-A41D54964AD2";
shapes = (
{
closed = 1;
nodes = (
(405,-10,o),
(495,80,o),
(495,229,cs),
(495,366,o),
(395,438,o),
(266,438,cs),
(224,438,o),
(185,433,o),
(164,428,c),
(183,633,l),
(443,633,l),
(443,714,l),
(106,714,l),
(79,378,l),
(123,350,l),
(150,355,o),
(201,363,o),
(236,363,cs),
(345,363,o),
(404,313,o),
(404,219,cs),
(404,114,o),
(343,66,o),
(240,66,cs),
(185,66,o),
(107,83,o),
(64,113,c),
(64,29,l),
(107,2,o),
(171,-10,o),
(238,-10,cs)
);
}
);
width = 551;
},
{
layerId = "C05809E0-FD9D-43C4-90EB-E9E886B1ADAB";
shapes = (
{
closed = 1;
nodes = (
(438,-10,o),
(532,78,o),
(532,238,cs),
(532,384,o),
(437,468,o),
(320,468,cs),
(276,468,o),
(259,463,o),
(237,459,c),
(246,554,l),
(485,554,l),
(485,714,l),
(84,714,l),
(58,338,l),
(127,303,l),
(153,311,o),
(188,320,o),
(223,320,cs),
(301,320,o),
(339,287,o),
(339,232,cs),
(339,172,o),
(300,141,o),
(230,141,cs),
(172,141,o),
(96,163,o),
(46,186,c),
(46,29,l),
(98,3,o),
(165,-10,o),
(246,-10,cs)
);
}
);
width = 578;
},
{
layerId = "5CC745D4-D12D-435B-A472-7D28876E43BC";
shapes = (
{
closed = 1;
nodes = (
(295,-10,o),
(352,70,o),
(352,224,cs),
(352,352,o),
(291,426,o),
(194,426,cs),
(147,426,o),
(119,417,o),
(93,407,c),
(117,688,l),
(313,688,l),
(313,714,l),
(93,714,l),
(66,392,l),
(85,378,l),
(119,392,o),
(147,400,o),
(190,400,cs),
(272,400,o),
(325,340,o),
(325,223,cs),
(325,77,o),
(271,16,o),
(176,16,cs),
(134,16,o),
(103,23,o),
(53,50,c),
(53,20,l),
(95,-3,o),
(136,-10,o),
(176,-10,cs)
);
}
);
width = 411;
},
{
layerId = "AA2163BC-B14D-4D16-A884-99BB623F1DBF";
shapes = (
{
closed = 1;
nodes = (
(300,-10,o),
(368,85,o),
(368,230,cs),
(368,354,o),
(303,438,o),
(195,438,cs),
(171,438,o),
(150,436,o),
(123,429,c),
(140,637,l),
(330,637,l),
(330,714,l),
(72,714,l),
(45,383,l),
(78,351,l),
(110,361,o),
(135,367,o),
(172,367,cs),
(240,367,o),
(284,325,o),
(284,225,cs),
(284,129,o),
(251,62,o),
(161,62,cs),
(118,62,o),
(77,77,o),
(39,102,c),
(39,20,l),
(72,0,o),
(112,-10,o),
(167,-10,cs)
);
}
);
width = 411;
},
{
layerId = "6EDA54BC-5413-4E6E-9D6B-A24A39A704A7";
shapes = (
{
closed = 1;
nodes = (
(369,-10,o),
(446,79,o),
(446,238,cs),
(446,376,o),
(381,468,o),
(276,468,cs),
(261,468,o),
(237,467,o),
(211,462,c),
(218,566,l),
(413,566,l),
(413,714,l),
(78,714,l),
(57,345,l),
(108,310,l),
(136,321,o),
(161,327,o),
(188,327,cs),
(247,327,o),
(278,293,o),
(278,232,cs),
(278,167,o),
(252,135,o),
(189,135,cs),
(143,135,o),
(91,154,o),
(46,180,c),
(46,27,l),
(90,2,o),
(147,-10,o),
(203,-10,cs)
);
}
);
width = 486;
}
);
subCategory = Other;
unicode = 53;
}
{
category = Letter;
glyphname = six;
layers = (
{
layerId = "B871EA9A-50AC-43A6-961C-B7EB8764AD7C";
shapes = (
{
closed = 1;
nodes = (
(414,-10,o),
(492,78,o),
(492,221,cs),
(492,340,o),
(421,427,o),
(297,427,cs),
(205,427,o),
(140,379,o),
(105,319,c),
(103,319,l),
(108,529,o),
(169,698,o),
(367,698,cs),
(395,698,o),
(426,696,o),
(448,688,c),
(448,716,l),
(429,721,o),
(395,724,o),
(372,724,cs),
(134,724,o),
(77,512,o),
(77,300,cs),
(77,88,o),
(162,-10,o),
(291,-10,cs)
);
},
{
closed = 1;
nodes = (
(166,16,o),
(106,127,o),
(106,257,cs),
(106,313,o),
(172,401,o),
(295,401,cs),
(405,401,o),
(465,325,o),
(465,221,cs),
(465,86,o),
(397,16,o),
(292,16,cs)
);
}
);
width = 551;
},
{
layerId = "6C7CC43D-04A1-4971-B3B5-A41D54964AD2";
shapes = (
{
closed = 1;
nodes = (
(421,-10,o),
(505,82,o),
(505,230,cs),
(505,368,o),
(425,447,o),
(302,447,cs),
(225,447,o),
(178,411,o),
(152,364,c),
(146,364,l),
(152,519,o),
(194,651,o),
(370,651,cs),
(398,651,o),
(428,647,o),
(451,639,c),
(451,715,l),
(430,721,o),
(392,724,o),
(367,724,cs),
(107,724,o),
(55,510,o),
(55,305,cs),
(55,91,o),
(157,-10,o),
(288,-10,cs)
);
},
{
closed = 1;
nodes = (
(192,65,o),
(144,160,o),
(144,247,cs),
(144,310,o),
(202,377,o),
(290,377,cs),
(376,377,o),
(419,321,o),
(419,230,cs),
(419,117,o),
(365,65,o),
(287,65,cs)
);
}
);
width = 551;
},
{
layerId = "C05809E0-FD9D-43C4-90EB-E9E886B1ADAB";
shapes = (
{
closed = 1;
nodes = (
(453,-10,o),
(547,84,o),
(547,244,cs),
(547,392,o),
(474,476,o),
(351,476,cs),
(277,476,o),
(237,441,o),
(212,393,c),
(206,393,l),
(212,508,o),
(258,575,o),
(399,575,cs),
(445,575,o),
(476,571,o),
(503,566,c),
(503,716,l),
(476,720,o),
(430,724,o),
(401,724,cs),
(92,724,o),
(34,508,o),
(34,302,cs),
(34,90,o),
(147,-10,o),
(299,-10,cs)
);
},
{
closed = 1;
nodes = (
(246,142,o),
(224,198,o),
(224,250,cs),
(224,289,o),
(250,328,o),
(297,328,cs),
(343,328,o),
(362,295,o),
(362,240,cs),
(362,172,o),
(335,142,o),
(295,142,cs)
);
}
);
width = 578;
},
{
layerId = "5CC745D4-D12D-435B-A472-7D28876E43BC";
shapes = (
{
closed = 1;
nodes = (
(306,-10,o),
(364,69,o),
(364,223,cs),
(364,344,o),
(312,427,o),
(222,427,cs),
(157,427,o),
(114,391,o),
(90,333,c),
(87,333,l),
(93,548,o),
(141,698,o),
(266,698,cs),
(295,698,o),
(316,696,o),
(333,688,c),
(333,716,l),
(319,721,o),
(293,724,o),
(270,724,cs),
(101,724,o),
(59,521,o),
(59,296,cs),
(59,80,o),
(119,-10,o),
(216,-10,cs)
);
},
{
closed = 1;
nodes = (
(127,16,o),
(88,124,o),
(88,252,cs),
(88,313,o),
(137,401,o),
(219,401,cs),
(296,401,o),
(337,329,o),
(337,223,cs),
(337,82,o),
(289,16,o),
(217,16,cs)
);
}
);
width = 411;
},
{
layerId = "AA2163BC-B14D-4D16-A884-99BB623F1DBF";
shapes = (
{
closed = 1;
nodes = (
(325,-10,o),
(378,88,o),
(378,226,cs),
(378,352,o),
(332,446,o),
(235,446,cs),
(182,446,o),
(152,419,o),
(129,370,c),
(125,370,l),
(136,566,o),
(183,653,o),
(278,653,cs),
(303,653,o),
(327,649,o),
(347,642,c),
(347,714,l),
(327,720,o),
(302,724,o),
(275,724,cs),
(113,724,o),
(46,568,o),
(46,303,cs),
(46,100,o),
(107,-10,o),
(217,-10,cs)
);
},
{
closed = 1;
nodes = (
(151,62,o),
(130,155,o),
(130,248,cs),
(130,319,o),
(158,379,o),
(216,379,cs),
(270,379,o),
(296,328,o),
(296,224,cs),
(296,113,o),
(267,62,o),
(216,62,cs)
);
}
);
width = 411;
},
{
layerId = "6EDA54BC-5413-4E6E-9D6B-A24A39A704A7";
shapes = (
{
closed = 1;
nodes = (
(384,-10,o),
(460,89,o),
(460,244,cs),
(460,390,o),
(401,476,o),
(302,476,cs),
(249,476,o),
(213,448,o),
(190,393,c),
(186,393,l),
(190,528,o),
(237,583,o),
(340,583,cs),
(370,583,o),
(399,580,o),
(426,574,c),
(426,716,l),
(392,721,o),
(359,724,o),
(325,724,cs),
(86,724,o),
(33,516,o),
(33,317,cs),
(33,106,o),
(116,-10,o),
(253,-10,cs)
);
},
{
closed = 1;
nodes = (
(219,135,o),
(200,175,o),
(200,247,cs),
(200,299,o),
(221,336,o),
(251,336,cs),
(282,336,o),
(297,304,o),
(297,241,cs),
(297,167,o),
(277,135,o),
(250,135,cs)
);
}
);
width = 486;
}
);
subCategory = Other;
unicode = 54;
}
{
category = Letter;
glyphname = seven.deva;
layers = (
{
layerId = "B871EA9A-50AC-43A6-961C-B7EB8764AD7C";
shapes = (
{
closed = 1;
nodes = (
(168,0,l),
(198,0,l),
(491,692,l),
(491,714,l),
(56,714,l),
(56,688,l),
(461,688,l)
);
}
);
width = 551;
},
{
layerId = "6C7CC43D-04A1-4971-B3B5-A41D54964AD2";
shapes = (
{
closed = 1;
nodes = (
(137,0,l),
(232,0,l),
(503,643,l),
(503,714,l),
(44,714,l),
(44,633,l),
(412,633,l)
);
}
);
width = 551;
},
{
layerId = UUID0;
shapes = (
{
closed = 1;
nodes = (
(101,0,l),
(259,0,l),
(519,618,l),
(519,713,l),
(27,713,l),
(27,586,l),
(355,586,l)
);
}
);
width = 551;
},
{
layerId = "C05809E0-FD9D-43C4-90EB-E9E886B1ADAB";
shapes = (
{
closed = 1;
nodes = (
(101,0,l),
(299,0,l),
(545,599,l),
(545,713,l),
(38,713,l),
(38,554,l),
(342,554,l)
);
}
);
width = 578;
},
{
layerId = "5CC745D4-D12D-435B-A472-7D28876E43BC";
shapes = (
{
closed = 1;
nodes = (
(124,0,l),
(153,0,l),
(371,692,l),
(371,714,l),
(37,714,l),
(37,688,l),
(341,688,l)
);
}
);
width = 411;
},
{
layerId = "AA2163BC-B14D-4D16-A884-99BB623F1DBF";
shapes = (
{
closed = 1;
nodes = (
(94,0,l),
(181,0,l),
(376,647,l),
(376,714,l),
(31,714,l),
(31,637,l),
(290,637,l)
);
}
);
width = 411;
},
{
layerId = "9A082071-1CDF-4F9E-B116-82A287035C9D";
shapes = (
{
closed = 1;
nodes = (
(80,0,l),
(229,0,l),
(425,614,l),
(425,714,l),
(32,714,l),
(32,593,l),
(284,593,l)
);
}
);
width = 457;
},
{
layerId = "6EDA54BC-5413-4E6E-9D6B-A24A39A704A7";
shapes = (
{
closed = 1;
nodes = (
(70,0,l),
(258,0,l),
(455,594,l),
(455,714,l),
(32,714,l),
(32,566,l),
(279,566,l)
);
}
);
width = 486;
}
);
subCategory = Other;
unicode = 55;
}
{
category = Letter;
glyphname = seven;
layers = (
{
layerId = "B871EA9A-50AC-43A6-961C-B7EB8764AD7C";
shapes = (
{
closed = 1;
nodes = (
(168,0,l),
(198,0,l),
(491,692,l),
(491,714,l),
(56,714,l),
(56,688,l),
(461,688,l)
);
}
);
width = 551;
},
{
layerId = "6C7CC43D-04A1-4971-B3B5-A41D54964AD2";
shapes = (
{
closed = 1;
nodes = (
(137,0,l),
(232,0,l),
(503,643,l),
(503,714,l),
(44,714,l),
(44,633,l),
(412,633,l)
);
}
);
width = 551;
},
{
layerId = "C05809E0-FD9D-43C4-90EB-E9E886B1ADAB";
shapes = (
{
closed = 1;
nodes = (
(101,0,l),
(299,0,l),
(545,599,l),
(545,713,l),
(38,713,l),
(38,554,l),
(342,554,l)
);
}
);
width = 578;
},
{
layerId = "5CC745D4-D12D-435B-A472-7D28876E43BC";
shapes = (
{
closed = 1;
nodes = (
(124,0,l),
(153,0,l),
(371,692,l),
(371,714,l),
(37,714,l),
(37,688,l),
(341,688,l)
);
}
);
width = 411;
},
{
layerId = "AA2163BC-B14D-4D16-A884-99BB623F1DBF";
shapes = (
{
closed = 1;
nodes = (
(94,0,l),
(181,0,l),
(376,647,l),
(376,714,l),
(31,714,l),
(31,637,l),
(290,637,l)
);
}
);
width = 411;
},
{
layerId = "6EDA54BC-5413-4E6E-9D6B-A24A39A704A7";
shapes = (
{
closed = 1;
nodes = (
(70,0,l),
(258,0,l),
(455,594,l),
(455,714,l),
(32,714,l),
(32,566,l),
(279,566,l)
);
}
);
width = 486;
}
);
subCategory = Other;
unicode = 55;
}
{
category = Letter;
glyphname = eight;
layers = (
{
layerId = "B871EA9A-50AC-43A6-961C-B7EB8764AD7C";
shapes = (
{
closed = 1;
nodes = (
(401,-10,o),
(486,56,o),
(486,165,cs),
(486,268,o),
(398,332,o),
(303,377,c),
(392,418,o),
(466,461,o),
(466,559,cs),
(466,668,o),
(385,724,o),
(279,724,cs),
(179,724,o),
(92,664,o),
(92,560,cs),
(92,471,o),
(157,423,o),
(245,377,c),
(140,334,o),
(66,270,o),
(66,169,cs),
(66,63,o),
(139,-10,o),
(272,-10,cs)
);
},
{
closed = 1;
nodes = (
(157,16,o),
(93,76,o),
(93,170,cs),
(93,257,o),
(153,316,o),
(270,365,c),
(397,311,o),
(459,244,o),
(459,162,cs),
(459,74,o),
(392,16,o),
(273,16,cs)
);
},
{
closed = 1;
nodes = (
(169,442,o),
(119,480,o),
(119,560,cs),
(119,650,o),
(196,698,o),
(278,698,cs),
(368,698,o),
(439,653,o),
(439,557,cs),
(439,467,o),
(366,431,o),
(273,389,c)
);
}
);
width = 551;
},
{
layerId = "6C7CC43D-04A1-4971-B3B5-A41D54964AD2";
shapes = (
{
closed = 1;
nodes = (
(409,-10,o),
(500,66,o),
(500,186,cs),
(500,281,o),
(425,337,o),
(349,378,c),
(422,415,o),
(477,466,o),
(477,553,cs),
(477,668,o),
(385,725,o),
(276,725,cs),
(170,725,o),
(75,667,o),
(75,554,cs),
(75,468,o),
(126,415,o),
(190,374,c),
(114,337,o),
(52,279,o),
(52,182,cs),
(52,63,o),
(133,-10,o),
(276,-10,cs)
);
},
{
closed = 1;
nodes = (
(180,64,o),
(139,112,o),
(139,181,cs),
(139,253,o),
(181,301,o),
(263,340,c),
(366,292,o),
(413,249,o),
(413,185,cs),
(413,112,o),
(366,64,o),
(274,64,cs)
);
},
{
closed = 1;
nodes = (
(210,446,o),
(162,477,o),
(162,550,cs),
(162,616,o),
(206,651,o),
(275,651,cs),
(347,651,o),
(390,616,o),
(390,550,cs),
(390,479,o),
(340,443,o),
(277,414,c)
);
}
);
width = 551;
},
{
layerId = "C05809E0-FD9D-43C4-90EB-E9E886B1ADAB";
shapes = (
{
closed = 1;
nodes = (
(465,-10,o),
(546,74,o),
(546,190,cs),
(546,282,o),
(474,336,o),
(405,376,c),
(477,412,o),
(526,465,o),
(526,550,cs),
(526,666,o),
(431,724,o),
(291,724,cs),
(152,724,o),
(54,666,o),
(54,551,cs),
(54,469,o),
(101,414,o),
(161,373,c),
(86,334,o),
(33,285,o),
(33,188,cs),
(33,70,o),
(112,-10,o),
(289,-10,cs)
);
},
{
closed = 1;
nodes = (
(237,128,o),
(208,155,o),
(208,196,cs),
(208,238,o),
(243,267,o),
(287,291,c),
(329,266,o),
(371,233,o),
(371,192,cs),
(371,152,o),
(344,128,o),
(287,128,cs)
);
},
{
closed = 1;
nodes = (
(256,477,o),
(232,503,o),
(232,533,cs),
(232,565,o),
(258,586,o),
(290,586,cs),
(320,586,o),
(346,566,o),
(346,533,cs),
(346,496,o),
(316,476,o),
(288,459,c)
);
}
);
width = 578;
},
{
layerId = "5CC745D4-D12D-435B-A472-7D28876E43BC";
shapes = (
{
closed = 1;
nodes = (
(310,-10,o),
(366,70,o),
(366,172,cs),
(366,268,o),
(305,327,o),
(228,378,cs),
(297,421,o),
(351,467,o),
(351,565,cs),
(351,661,o),
(299,723,o),
(208,723,cs),
(115,723,o),
(62,659,o),
(62,567,cs),
(62,482,o),
(111,426,o),
(182,379,cs),
(108,335,o),
(45,275,o),
(45,170,cs),
(45,64,o),
(105,-10,o),
(205,-10,cs)
);
},
{
closed = 1;
nodes = (
(127,16,o),
(73,75,o),
(73,169,cs),
(73,268,o),
(134,326,o),
(204,365,c),
(308,302,o),
(338,237,o),
(338,170,cs),
(338,85,o),
(291,16,o),
(206,16,cs)
);
},
{
closed = 1;
nodes = (
(133,436,o),
(90,490,o),
(90,566,cs),
(90,645,o),
(134,697,o),
(208,697,cs),
(279,697,o),
(323,647,o),
(323,564,cs),
(323,474,o),
(272,433,o),
(205,391,cs)
);
}
);
width = 411;
},
{
layerId = "AA2163BC-B14D-4D16-A884-99BB623F1DBF";
shapes = (
{
closed = 1;
nodes = (
(316,-10,o),
(380,60,o),
(380,174,cs),
(380,264,o),
(331,321,o),
(261,374,c),
(333,421,o),
(370,479,o),
(370,557,cs),
(370,659,o),
(310,724,o),
(209,724,cs),
(111,724,o),
(47,658,o),
(47,556,cs),
(47,485,o),
(79,427,o),
(145,372,c),
(67,317,o),
(32,260,o),
(32,176,cs),
(32,64,o),
(97,-10,o),
(212,-10,cs)
);
},
{
closed = 1;
nodes = (
(145,60,o),
(114,109,o),
(114,176,cs),
(114,245,o),
(137,290,o),
(200,334,c),
(253,296,o),
(296,247,o),
(296,177,cs),
(296,109,o),
(269,60,o),
(208,60,cs)
);
},
{
closed = 1;
nodes = (
(154,451,o),
(129,490,o),
(129,551,cs),
(129,615,o),
(159,654,o),
(207,654,cs),
(258,654,o),
(288,615,o),
(288,551,cs),
(288,494,o),
(265,452,o),
(207,413,c)
);
}
);
width = 411;
},
{
layerId = "6EDA54BC-5413-4E6E-9D6B-A24A39A704A7";
shapes = (
{
closed = 1;
nodes = (
(376,-10,o),
(457,66,o),
(457,190,cs),
(457,259,o),
(427,316,o),
(342,376,c),
(410,418,o),
(439,474,o),
(439,550,cs),
(439,658,o),
(367,724,o),
(243,724,cs),
(123,724,o),
(46,658,o),
(46,551,cs),
(46,481,o),
(73,424,o),
(136,373,c),
(59,325,o),
(28,264,o),
(28,188,cs),
(28,64,o),
(105,-10,o),
(241,-10,cs)
);
},
{
closed = 1;
nodes = (
(206,123,o),
(184,148,o),
(184,191,cs),
(184,228,o),
(199,259,o),
(241,291,c),
(293,248,o),
(301,218,o),
(301,187,cs),
(301,144,o),
(281,123,o),
(244,123,cs)
);
},
{
closed = 1;
nodes = (
(214,482,o),
(201,508,o),
(201,538,cs),
(201,571,o),
(218,591,o),
(244,591,cs),
(266,591,o),
(285,573,o),
(285,538,cs),
(285,508,o),
(276,488,o),
(242,459,c)
);
}
);
width = 486;
}
);
subCategory = Other;
unicode = 56;
}
{
category = Letter;
glyphname = nine;
layers = (
{
layerId = "B871EA9A-50AC-43A6-961C-B7EB8764AD7C";
shapes = (
{
closed = 1;
nodes = (
(421,-10,o),
(474,199,o),
(474,414,cs),
(474,626,o),
(389,724,o),
(260,724,c),
(135,724,o),
(59,635,o),
(59,493,cs),
(59,375,o),
(130,287,o),
(254,287,cs),
(346,287,o),
(411,335,o),
(446,395,c),
(448,395,l),
(443,182,o),
(386,16,o),
(188,16,cs),
(160,16,o),
(129,18,o),
(107,26,c),
(107,-2,l),
(126,-7,o),
(160,-10,o),
(183,-10,cs)
);
},
{
closed = 1;
nodes = (
(146,313,o),
(86,389,o),
(86,493,cs),
(86,629,o),
(154,698,o),
(259,698,c),
(385,698,o),
(445,587,o),
(445,457,cs),
(445,401,o),
(379,313,o),
(256,313,cs)
);
}
);
width = 551;
},
{
layerId = "6C7CC43D-04A1-4971-B3B5-A41D54964AD2";
shapes = (
{
closed = 1;
nodes = (
(450,-10,o),
(502,204,o),
(502,409,cs),
(502,623,o),
(400,724,o),
(269,724,cs),
(136,724,o),
(52,633,o),
(52,484,cs),
(52,346,o),
(132,267,o),
(255,267,cs),
(332,267,o),
(379,303,o),
(405,350,c),
(411,350,l),
(405,195,o),
(364,63,o),
(187,63,cs),
(159,63,o),
(129,67,o),
(106,75,c),
(106,-1,l),
(128,-7,o),
(165,-10,o),
(190,-10,cs)
);
},
{
closed = 1;
nodes = (
(181,337,o),
(138,393,o),
(138,484,cs),
(138,597,o),
(192,649,o),
(270,649,cs),
(365,649,o),
(413,554,o),
(413,467,cs),
(413,404,o),
(355,337,o),
(267,337,cs)
);
}
);
width = 551;
},
{
layerId = "C05809E0-FD9D-43C4-90EB-E9E886B1ADAB";
shapes = (
{
closed = 1;
nodes = (
(447,-10,o),
(545,128,o),
(545,389,cs),
(545,623,o),
(427,721,o),
(275,721,cs),
(120,721,o),
(26,627,o),
(26,468,cs),
(26,320,o),
(101,235,o),
(220,235,cs),
(311,235,o),
(341,270,o),
(367,318,c),
(373,318,l),
(368,223,o),
(324,139,o),
(157,139,cs),
(127,139,o),
(101,142,o),
(73,147,c),
(73,-5,l),
(100,-9,o),
(144,-10,o),
(173,-10,cs)
);
},
{
closed = 1;
nodes = (
(233,383,o),
(211,416,o),
(211,470,cs),
(211,539,o),
(239,568,o),
(280,568,cs),
(329,568,o),
(355,510,o),
(355,461,cs),
(355,424,o),
(324,383,o),
(278,383,cs)
);
}
);
width = 578;
},
{
layerId = "5CC745D4-D12D-435B-A472-7D28876E43BC";
shapes = (
{
closed = 1;
nodes = (
(312,-10,o),
(351,193,o),
(351,422,cs),
(351,634,o),
(291,724,o),
(194,724,c),
(104,724,o),
(46,645,o),
(46,491,cs),
(46,370,o),
(98,287,o),
(188,287,cs),
(253,287,o),
(296,323,o),
(320,381,c),
(323,381,l),
(317,166,o),
(272,16,o),
(147,16,cs),
(120,16,o),
(98,19,o),
(81,26,c),
(81,-2,l),
(96,-7,o),
(127,-10,o),
(144,-10,cs)
);
},
{
closed = 1;
nodes = (
(114,313,o),
(73,385,o),
(73,491,cs),
(73,632,o),
(121,698,o),
(193,698,cs),
(283,698,o),
(322,590,o),
(322,462,cs),
(322,401,o),
(273,313,o),
(191,313,cs)
);
}
);
width = 411;
},
{
layerId = "AA2163BC-B14D-4D16-A884-99BB623F1DBF";
shapes = (
{
closed = 1;
nodes = (
(335,-10,o),
(365,199,o),
(365,410,cs),
(365,614,o),
(304,724,o),
(194,724,cs),
(86,724,o),
(33,626,o),
(33,488,cs),
(33,362,o),
(79,268,o),
(176,268,cs),
(229,268,o),
(259,295,o),
(282,344,c),
(286,344,l),
(277,188,o),
(257,61,o),
(131,61,cs),
(116,61,o),
(90,63,o),
(73,71,c),
(73,-1,l),
(90,-7,o),
(122,-10,o),
(141,-10,cs)
);
},
{
closed = 1;
nodes = (
(141,335,o),
(115,386,o),
(115,490,cs),
(115,601,o),
(144,652,o),
(195,652,cs),
(260,652,o),
(281,558,o),
(281,466,cs),
(281,395,o),
(253,335,o),
(194,335,cs)
);
}
);
width = 411;
},
{
layerId = "6EDA54BC-5413-4E6E-9D6B-A24A39A704A7";
shapes = (
{
closed = 1;
nodes = (
(389,-10,o),
(454,186,o),
(454,395,cs),
(454,608,o),
(370,724,o),
(233,724,cs),
(103,724,o),
(26,626,o),
(26,470,cs),
(26,326,o),
(84,238,o),
(185,238,cs),
(237,238,o),
(273,266,o),
(296,321,c),
(301,321,l),
(297,187,o),
(250,131,o),
(147,131,cs),
(117,131,o),
(88,134,o),
(61,141,c),
(61,-1,l),
(94,-7,o),
(127,-10,o),
(162,-10,cs)
);
},
{
closed = 1;
nodes = (
(205,378,o),
(189,410,o),
(189,473,cs),
(189,547,o),
(209,579,o),
(237,579,cs),
(282,579,o),
(287,494,o),
(287,462,cs),
(287,430,o),
(274,378,o),
(236,378,cs)
);
}
);
width = 486;
}
);
subCategory = Other;
unicode = 57;
}
{
category = Letter;
glyphname = colon;
layers = (
{
layerId = "B871EA9A-50AC-43A6-961C-B7EB8764AD7C";
shapes = (
{
closed = 1;
nodes = (
(140,470,o),
(143,484,o),
(143,501,cs),
(143,517,o),
(140,532,o),
(116,532,cs),
(96,532,o),
(91,517,o),
(91,501,cs),
(91,484,o),
(96,470,o),
(116,470,cs)
);
},
{
closed = 1;
nodes = (
(140,-8,o),
(143,6,o),
(143,23,cs),
(143,39,o),
(140,54,o),
(116,54,cs),
(96,54,o),
(91,39,o),
(91,23,cs),
(91,6,o),
(96,-8,o),
(116,-8,cs)
);
}
);
width = 234;
},
{
layerId = "6C7CC43D-04A1-4971-B3B5-A41D54964AD2";
shapes = (
{
closed = 1;
nodes = (
(181,414,o),
(209,434,o),
(209,482,cs),
(209,533,o),
(181,550,o),
(147,550,cs),
(112,550,o),
(85,533,o),
(85,482,cs),
(85,434,o),
(112,414,o),
(147,414,cs)
);
},
{
closed = 1;
nodes = (
(181,-14,o),
(209,6,o),
(209,54,cs),
(209,104,o),
(181,122,o),
(147,122,cs),
(112,122,o),
(85,104,o),
(85,54,cs),
(85,6,o),
(112,-14,o),
(147,-14,cs)
);
}
);
width = 294;
},
{
layerId = UUID0;
shapes = (
{
closed = 1;
nodes = (
(207,390,o),
(247,414,o),
(247,473,cs),
(247,534,o),
(207,556,o),
(162,556,cs),
(114,556,o),
(76,534,o),
(76,473,cs),
(76,414,o),
(114,390,o),
(162,390,cs)
);
},
{
closed = 1;
nodes = (
(207,-13,o),
(247,11,o),
(247,70,cs),
(247,131,o),
(207,153,o),
(162,153,cs),
(114,153,o),
(76,131,o),
(76,70,cs),
(76,11,o),
(114,-13,o),
(162,-13,cs)
);
}
);
width = 324;
},
{
layerId = "C05809E0-FD9D-43C4-90EB-E9E886B1ADAB";
shapes = (
{
closed = 1;
nodes = (
(230,373,o),
(276,400,o),
(276,467,cs),
(276,535,o),
(230,560,o),
(176,560,cs),
(119,560,o),
(72,535,o),
(72,467,cs),
(72,400,o),
(119,373,o),
(176,373,cs)
);
},
{
closed = 1;
nodes = (
(230,-12,o),
(276,15,o),
(276,81,cs),
(276,150,o),
(230,175,o),
(176,175,cs),
(119,175,o),
(72,150,o),
(72,81,cs),
(72,15,o),
(119,-12,o),
(176,-12,cs)
);
}
);
width = 348;
},
{
layerId = "5CC745D4-D12D-435B-A472-7D28876E43BC";
shapes = (
{
closed = 1;
nodes = (
(140,470,o),
(143,484,o),
(143,501,cs),
(143,517,o),
(140,532,o),
(116,532,cs),
(96,532,o),
(91,517,o),
(91,501,cs),
(91,484,o),
(96,470,o),
(116,470,cs)
);
},
{
closed = 1;
nodes = (
(140,-8,o),
(143,6,o),
(143,23,cs),
(143,39,o),
(140,54,o),
(116,54,cs),
(96,54,o),
(91,39,o),
(91,23,cs),
(91,6,o),
(96,-8,o),
(116,-8,cs)
);
}
);
width = 234;
},
{
layerId = "AA2163BC-B14D-4D16-A884-99BB623F1DBF";
shapes = (
{
closed = 1;
nodes = (
(170,418,o),
(193,439,o),
(193,483,cs),
(193,525,o),
(174,547,o),
(139,547,cs),
(103,547,o),
(85,525,o),
(85,483,cs),
(85,440,o),
(104,418,o),
(139,418,cs)
);
},
{
closed = 1;
nodes = (
(170,-14,o),
(193,6,o),
(193,50,cs),
(193,95,o),
(172,114,o),
(139,114,cs),
(103,114,o),
(85,92,o),
(85,50,cs),
(85,8,o),
(104,-14,o),
(139,-14,cs)
);
}
);
width = 278;
},
{
layerId = "9A082071-1CDF-4F9E-B116-82A287035C9D";
shapes = (
{
closed = 1;
nodes = (
(201,391,o),
(230,420,o),
(230,473,cs),
(230,526,o),
(204,556,o),
(155,556,cs),
(104,556,o),
(77,526,o),
(77,473,cs),
(77,420,o),
(106,391,o),
(155,391,cs)
);
},
{
closed = 1;
nodes = (
(201,-13,o),
(230,16,o),
(230,69,cs),
(230,123,o),
(203,151,o),
(155,151,cs),
(104,151,o),
(77,122,o),
(77,69,cs),
(77,17,o),
(106,-13,o),
(155,-13,cs)
);
}
);
width = 308;
},
{
layerId = "6EDA54BC-5413-4E6E-9D6B-A24A39A704A7";
shapes = (
{
closed = 1;
nodes = (
(221,374,o),
(254,408,o),
(254,467,cs),
(254,527,o),
(223,561,o),
(165,561,cs),
(104,561,o),
(72,527,o),
(72,467,cs),
(72,408,o),
(107,374,o),
(165,374,cs)
);
},
{
closed = 1;
nodes = (
(221,-12,o),
(254,22,o),
(254,81,cs),
(254,141,o),
(223,175,o),
(165,175,cs),
(104,175,o),
(72,141,o),
(72,81,cs),
(72,22,o),
(107,-12,o),
(165,-12,cs)
);
}
);
width = 326;
}
);
subCategory = Other;
unicode = 58;
}
{
category = Letter;
glyphname = semicolon;
kernLeft = comma;
layers = (
{
layerId = "B871EA9A-50AC-43A6-961C-B7EB8764AD7C";
shapes = (
{
closed = 1;
nodes = (
(100,116,l),
(89,40,o),
(73,-32,o),
(44,-129,c),
(66,-129,l),
(94,-60,o),
(116,30,o),
(131,104,c),
(128,116,l)
);
},
{
closed = 1;
nodes = (
(140,470,o),
(143,484,o),
(143,501,cs),
(143,517,o),
(140,532,o),
(116,532,cs),
(96,532,o),
(91,517,o),
(91,501,cs),
(91,484,o),
(96,470,o),
(116,470,cs)
);
}
);
width = 234;
},
{
layerId = "6C7CC43D-04A1-4971-B3B5-A41D54964AD2";
shapes = (
{
closed = 1;
nodes = (
(93,116,l),
(83,47,o),
(64,-50,o),
(44,-129,c),
(111,-129,l),
(144,-56,o),
(179,34,o),
(197,105,c),
(190,116,l)
);
},
{
closed = 1;
nodes = (
(181,414,o),
(209,434,o),
(209,482,cs),
(209,533,o),
(181,550,o),
(147,550,cs),
(112,550,o),
(85,533,o),
(85,482,cs),
(85,434,o),
(112,414,o),
(147,414,cs)
);
}
);
width = 294;
},
{
layerId = "C05809E0-FD9D-43C4-90EB-E9E886B1ADAB";
shapes = (
{
closed = 1;
nodes = (
(103,146,l),
(94,66,o),
(74,-48,o),
(55,-139,c),
(191,-139,l),
(224,-65,o),
(259,63,o),
(277,135,c),
(270,146,l)
);
},
{
closed = 1;
nodes = (
(229,373,o),
(276,400,o),
(276,467,cs),
(276,535,o),
(229,560,o),
(175,560,cs),
(118,560,o),
(72,535,o),
(72,467,c),
(72,400,o),
(118,373,o),
(175,373,cs)
);
}
);
width = 348;
},
{
layerId = "5CC745D4-D12D-435B-A472-7D28876E43BC";
shapes = (
{
closed = 1;
nodes = (
(100,116,l),
(89,40,o),
(73,-32,o),
(44,-129,c),
(66,-129,l),
(94,-60,o),
(116,30,o),
(131,104,c),
(128,116,l)
);
},
{
closed = 1;
nodes = (
(140,470,o),
(143,484,o),
(143,501,cs),
(143,517,o),
(140,532,o),
(116,532,cs),
(96,532,o),
(91,517,o),
(91,501,cs),
(91,484,o),
(96,470,o),
(116,470,cs)
);
}
);
width = 234;
},
{
layerId = "AA2163BC-B14D-4D16-A884-99BB623F1DBF";
shapes = (
{
closed = 1;
nodes = (
(107,116,l),
(99,44,o),
(83,-48,o),
(61,-130,c),
(123,-130,l),
(155,-58,o),
(180,21,o),
(199,105,c),
(192,116,l)
);
},
{
closed = 1;
nodes = (
(170,418,o),
(193,439,o),
(193,483,cs),
(193,525,o),
(174,547,o),
(139,547,cs),
(103,547,o),
(85,525,o),
(85,483,cs),
(85,440,o),
(104,418,o),
(139,418,cs)
);
}
);
width = 278;
},
{
layerId = "6EDA54BC-5413-4E6E-9D6B-A24A39A704A7";
shapes = (
{
closed = 1;
nodes = (
(90,146,l),
(84,69,o),
(69,-60,o),
(53,-139,c),
(188,-139,l),
(216,-66,o),
(238,25,o),
(253,135,c),
(248,146,l)
);
},
{
closed = 1;
nodes = (
(221,374,o),
(254,408,o),
(254,467,cs),
(254,527,o),
(223,561,o),
(165,561,cs),
(104,561,o),
(72,527,o),
(72,467,cs),
(72,408,o),
(107,374,o),
(165,374,cs)
);
}
);
width = 326;
}
);
subCategory = Other;
unicode = 59;
}
{
category = Letter;
glyphname = less;
layers = (
{
layerId = "B871EA9A-50AC-43A6-961C-B7EB8764AD7C";
shapes = (
{
closed = 1;
nodes = (
(493,95,l),
(493,125,l),
(88,320,l),
(493,516,l),
(493,546,l),
(57,333,l),
(57,307,l)
);
}
);
width = 551;
},
{
layerId = "6C7CC43D-04A1-4971-B3B5-A41D54964AD2";
shapes = (
{
closed = 1;
nodes = (
(501,77,l),
(501,155,l),
(142,313,l),
(501,490,l),
(501,568,l),
(50,333,l),
(50,284,l)
);
}
);
width = 551;
},
{
layerId = "C05809E0-FD9D-43C4-90EB-E9E886B1ADAB";
shapes = (
{
closed = 1;
nodes = (
(531,65,l),
(531,210,l),
(251,332,l),
(531,471,l),
(531,616,l),
(55,369,l),
(55,284,l)
);
}
);
width = 585;
},
{
layerId = "5CC745D4-D12D-435B-A472-7D28876E43BC";
shapes = (
{
closed = 1;
nodes = (
(376,127,l),
(376,156,l),
(66,322,l),
(376,488,l),
(376,517,l),
(38,335,l),
(38,309,l)
);
}
);
width = 411;
},
{
layerId = "AA2163BC-B14D-4D16-A884-99BB623F1DBF";
shapes = (
{
closed = 1;
nodes = (
(376,115,l),
(376,191,l),
(123,322,l),
(376,453,l),
(376,529,l),
(35,346,l),
(35,298,l)
);
}
);
width = 411;
},
{
layerId = "6EDA54BC-5413-4E6E-9D6B-A24A39A704A7";
shapes = (
{
closed = 1;
nodes = (
(457,49,l),
(457,193,l),
(203,322,l),
(457,451,l),
(457,595,l),
(33,364,l),
(33,280,l)
);
}
);
width = 490;
}
);
subCategory = Other;
unicode = 60;
}
{
category = Letter;
glyphname = equal;
layers = (
{
layerId = "B871EA9A-50AC-43A6-961C-B7EB8764AD7C";
shapes = (
{
closed = 1;
nodes = (
(58,409,l),
(494,409,l),
(494,435,l),
(58,435,l)
);
},
{
closed = 1;
nodes = (
(58,206,l),
(494,206,l),
(494,231,l),
(58,231,l)
);
}
);
width = 551;
},
{
layerId = "6C7CC43D-04A1-4971-B3B5-A41D54964AD2";
shapes = (
{
closed = 1;
nodes = (
(50,386,l),
(501,386,l),
(501,459,l),
(50,459,l)
);
},
{
closed = 1;
nodes = (
(50,186,l),
(501,186,l),
(501,259,l),
(50,259,l)
);
}
);
width = 551;
},
{
layerId = "C05809E0-FD9D-43C4-90EB-E9E886B1ADAB";
shapes = (
{
closed = 1;
nodes = (
(55,354,l),
(531,354,l),
(531,484,l),
(55,484,l)
);
},
{
closed = 1;
nodes = (
(55,162,l),
(531,162,l),
(531,293,l),
(55,293,l)
);
}
);
width = 585;
},
{
layerId = "5CC745D4-D12D-435B-A472-7D28876E43BC";
shapes = (
{
closed = 1;
nodes = (
(44,404,l),
(367,404,l),
(367,430,l),
(44,430,l)
);
},
{
closed = 1;
nodes = (
(44,215,l),
(367,215,l),
(367,240,l),
(44,240,l)
);
}
);
width = 411;
},
{
layerId = "AA2163BC-B14D-4D16-A884-99BB623F1DBF";
shapes = (
{
closed = 1;
nodes = (
(40,382,l),
(371,382,l),
(371,451,l),
(40,451,l)
);
},
{
closed = 1;
nodes = (
(40,193,l),
(371,193,l),
(371,262,l),
(40,262,l)
);
}
);
width = 411;
},
{
layerId = "6EDA54BC-5413-4E6E-9D6B-A24A39A704A7";
shapes = (
{
closed = 1;
nodes = (
(38,353,l),
(452,353,l),
(452,479,l),
(38,479,l)
);
},
{
closed = 1;
nodes = (
(38,165,l),
(452,165,l),
(452,291,l),
(38,291,l)
);
}
);
width = 490;
}
);
subCategory = Other;
unicode = 61;
}
{
category = Letter;
glyphname = greater;
layers = (
{
layerId = "B871EA9A-50AC-43A6-961C-B7EB8764AD7C";
shapes = (
{
closed = 1;
nodes = (
(57,95,l),
(493,308,l),
(493,334,l),
(57,546,l),
(57,516,l),
(462,321,l),
(57,125,l)
);
}
);
width = 551;
},
{
layerId = "6C7CC43D-04A1-4971-B3B5-A41D54964AD2";
shapes = (
{
closed = 1;
nodes = (
(50,77,l),
(501,284,l),
(501,333,l),
(50,568,l),
(50,490,l),
(409,313,l),
(50,155,l)
);
}
);
width = 551;
},
{
layerId = "C05809E0-FD9D-43C4-90EB-E9E886B1ADAB";
shapes = (
{
closed = 1;
nodes = (
(55,65,l),
(531,284,l),
(531,369,l),
(55,616,l),
(55,471,l),
(335,332,l),
(55,210,l)
);
}
);
width = 585;
},
{
layerId = "5CC745D4-D12D-435B-A472-7D28876E43BC";
shapes = (
{
closed = 1;
nodes = (
(38,127,l),
(376,309,l),
(376,335,l),
(38,517,l),
(38,488,l),
(348,322,l),
(38,156,l)
);
}
);
width = 411;
},
{
layerId = "AA2163BC-B14D-4D16-A884-99BB623F1DBF";
shapes = (
{
closed = 1;
nodes = (
(35,115,l),
(376,298,l),
(376,346,l),
(35,529,l),
(35,453,l),
(288,322,l),
(35,191,l)
);
}
);
width = 411;
},
{
layerId = "6EDA54BC-5413-4E6E-9D6B-A24A39A704A7";
shapes = (
{
closed = 1;
nodes = (
(33,49,l),
(457,280,l),
(457,364,l),
(33,595,l),
(33,451,l),
(287,322,l),
(33,193,l)
);
}
);
width = 490;
}
);
subCategory = Other;
unicode = 62;
}
{
category = Letter;
glyphname = question;
layers = (
{
layerId = "B871EA9A-50AC-43A6-961C-B7EB8764AD7C";
shapes = (
{
closed = 1;
nodes = (
(203,174,l),
(203,186,ls),
(203,277,o),
(223,314,o),
(275,350,cs),
(354,405,o),
(407,454,o),
(407,554,cs),
(407,668,o),
(333,724,o),
(225,724,cs),
(163,724,o),
(121,708,o),
(71,685,c),
(81,659,l),
(130,685,o),
(172,698,o),
(226,698,cs),
(314,698,o),
(380,654,o),
(380,554,cs),
(380,463,o),
(334,422,o),
(262,371,cs),
(193,322,o),
(177,285,o),
(177,186,cs),
(177,174,l)
);
},
{
closed = 1;
nodes = (
(166,6,o),
(171,-8,o),
(191,-8,cs),
(215,-8,o),
(218,6,o),
(218,23,cs),
(218,39,o),
(215,54,o),
(191,54,cs),
(171,54,o),
(166,39,o),
(166,23,cs)
);
}
);
width = 480;
},
{
layerId = "6C7CC43D-04A1-4971-B3B5-A41D54964AD2";
shapes = (
{
closed = 1;
nodes = (
(258,202,l),
(258,211,ls),
(258,268,o),
(274,292,o),
(341,350,cs),
(411,411,o),
(446,455,o),
(446,542,cs),
(446,656,o),
(371,724,o),
(250,724,cs),
(187,724,o),
(124,702,o),
(71,675,c),
(102,604,l),
(147,626,o),
(196,646,o),
(250,646,cs),
(322,646,o),
(361,604,o),
(361,541,cs),
(361,472,o),
(335,443,o),
(273,390,cs),
(208,335,o),
(190,295,o),
(190,220,cs),
(190,202,l)
);
},
{
closed = 1;
nodes = (
(167,6,o),
(194,-14,o),
(229,-14,cs),
(263,-14,o),
(291,6,o),
(291,54,cs),
(291,104,o),
(263,122,o),
(229,122,cs),
(194,122,o),
(167,104,o),
(167,54,cs)
);
}
);
width = 518;
},
{
layerId = "C05809E0-FD9D-43C4-90EB-E9E886B1ADAB";
shapes = (
{
closed = 1;
nodes = (
(323,252,l),
(323,274,ls),
(323,308,o),
(341,322,o),
(392,358,cs),
(481,421,o),
(510,463,o),
(510,546,cs),
(510,653,o),
(431,724,o),
(283,724,cs),
(203,724,o),
(130,705,o),
(55,669,c),
(122,535,l),
(172,559,o),
(219,574,o),
(269,574,cs),
(313,574,o),
(330,555,o),
(330,526,cs),
(330,501,o),
(318,479,o),
(256,436,cs),
(193,392,o),
(173,356,o),
(173,294,cs),
(173,252,l)
);
},
{
closed = 1;
nodes = (
(152,15,o),
(198,-12,o),
(255,-12,cs),
(310,-12,o),
(356,15,o),
(356,81,cs),
(356,150,o),
(310,175,o),
(255,175,cs),
(198,175,o),
(152,150,o),
(152,81,cs)
);
}
);
width = 567;
},
{
layerId = "5CC745D4-D12D-435B-A472-7D28876E43BC";
shapes = (
{
closed = 1;
nodes = (
(174,170,l),
(174,199,ls),
(174,268,o),
(181,315,o),
(229,384,cs),
(277,453,o),
(306,498,o),
(306,577,cs),
(306,673,o),
(254,724,o),
(178,724,cs),
(138,724,o),
(101,715,o),
(70,700,c),
(81,676,l),
(106,688,o),
(140,698,o),
(173,698,cs),
(239,698,o),
(279,657,o),
(279,578,cs),
(279,510,o),
(254,466,o),
(205,395,cs),
(156,325,o),
(149,273,o),
(149,204,cs),
(149,170,l)
);
},
{
closed = 1;
nodes = (
(136,6,o),
(141,-8,o),
(161,-8,cs),
(185,-8,o),
(188,6,o),
(188,23,cs),
(188,39,o),
(185,54,o),
(161,54,cs),
(141,54,o),
(136,39,o),
(136,23,cs)
);
}
);
width = 377;
},
{
layerId = "AA2163BC-B14D-4D16-A884-99BB623F1DBF";
shapes = (
{
closed = 1;
nodes = (
(219,201,l),
(219,221,ls),
(219,275,o),
(234,305,o),
(276,364,cs),
(318,424,o),
(353,474,o),
(353,557,cs),
(353,660,o),
(294,724,o),
(202,724,cs),
(150,724,o),
(103,710,o),
(67,692,c),
(98,624,l),
(127,639,o),
(156,650,o),
(193,650,cs),
(244,650,o),
(273,616,o),
(273,557,cs),
(273,495,o),
(251,456,o),
(207,394,cs),
(169,341,o),
(154,301,o),
(154,230,cs),
(154,201,l)
);
},
{
closed = 1;
nodes = (
(134,13,o),
(154,-9,o),
(188,-9,cs),
(220,-9,o),
(242,11,o),
(242,55,cs),
(242,100,o),
(221,119,o),
(188,119,cs),
(153,119,o),
(134,97,o),
(134,55,cs)
);
}
);
width = 422;
},
{
layerId = "6EDA54BC-5413-4E6E-9D6B-A24A39A704A7";
shapes = (
{
closed = 1;
nodes = (
(285,252,l),
(285,266,ls),
(285,300,o),
(294,317,o),
(331,355,cs),
(389,416,o),
(430,460,o),
(430,550,cs),
(430,655,o),
(357,724,o),
(234,724,cs),
(168,724,o),
(111,707,o),
(56,680,c),
(112,552,l),
(145,569,o),
(175,580,o),
(215,580,cs),
(254,580,o),
(272,563,o),
(272,531,cs),
(272,497,o),
(255,477,o),
(217,440,cs),
(170,394,o),
(149,355,o),
(149,290,cs),
(149,252,l)
);
},
{
closed = 1;
nodes = (
(125,22,o),
(161,-12,o),
(218,-12,cs),
(275,-12,o),
(308,22,o),
(308,81,cs),
(308,141,o),
(276,175,o),
(218,175,cs),
(158,175,o),
(125,141,o),
(125,81,cs)
);
}
);
width = 487;
}
);
subCategory = Other;
unicode = 63;
}
{
category = Letter;
glyphname = bracketleft.deva;
layers = (
{
layerId = "B871EA9A-50AC-43A6-961C-B7EB8764AD7C";
shapes = (
{
closed = 1;
nodes = (
(112,-166,l),
(261,-166,l),
(261,-140,l),
(138,-140,l),
(138,806,l),
(261,806,l),
(261,832,l),
(112,832,l)
);
}
);
width = 321;
},
{
layerId = "6C7CC43D-04A1-4971-B3B5-A41D54964AD2";
shapes = (
{
closed = 1;
nodes = (
(108,-166,l),
(302,-166,l),
(302,-96,l),
(188,-96,l),
(188,762,l),
(302,762,l),
(302,832,l),
(108,832,l)
);
}
);
width = 356;
},
{
layerId = UUID0;
shapes = (
{
closed = 1;
nodes = (
(104,-166,l),
(341,-166,l),
(341,-63,l),
(231,-63,l),
(231,729,l),
(341,729,l),
(341,832,l),
(104,832,l)
);
}
);
width = 390;
},
{
layerId = "C05809E0-FD9D-43C4-90EB-E9E886B1ADAB";
shapes = (
{
closed = 1;
nodes = (
(105,-166,l),
(357,-166,l),
(357,-42,l),
(260,-42,l),
(260,708,l),
(357,708,l),
(357,832,l),
(105,832,l)
);
}
);
width = 406;
},
{
layerId = "5CC745D4-D12D-435B-A472-7D28876E43BC";
shapes = (
{
closed = 1;
nodes = (
(94,-165,l),
(223,-165,l),
(223,-139,l),
(120,-139,l),
(120,806,l),
(223,806,l),
(223,832,l),
(94,832,l)
);
}
);
width = 278;
},
{
layerId = "AA2163BC-B14D-4D16-A884-99BB623F1DBF";
shapes = (
{
closed = 1;
nodes = (
(90,-165,l),
(260,-165,l),
(260,-98,l),
(167,-98,l),
(167,765,l),
(260,765,l),
(260,832,l),
(90,832,l)
);
}
);
width = 311;
},
{
layerId = "9A082071-1CDF-4F9E-B116-82A287035C9D";
shapes = (
{
closed = 1;
nodes = (
(87,-165,l),
(289,-165,l),
(289,-64,l),
(204,-64,l),
(204,731,l),
(289,731,l),
(289,832,l),
(87,832,l)
);
}
);
width = 338;
},
{
layerId = "6EDA54BC-5413-4E6E-9D6B-A24A39A704A7";
shapes = (
{
closed = 1;
nodes = (
(85,-165,l),
(307,-165,l),
(307,-43,l),
(227,-43,l),
(227,710,l),
(307,710,l),
(307,832,l),
(85,832,l)
);
}
);
width = 355;
}
);
subCategory = Other;
unicode = 91;
}
{
category = Letter;
glyphname = bracketleft;
layers = (
{
layerId = "B871EA9A-50AC-43A6-961C-B7EB8764AD7C";
shapes = (
{
closed = 1;
nodes = (
(112,-166,l),
(261,-166,l),
(261,-140,l),
(138,-140,l),
(138,806,l),
(261,806,l),
(261,832,l),
(112,832,l)
);
}
);
width = 321;
},
{
layerId = "6C7CC43D-04A1-4971-B3B5-A41D54964AD2";
shapes = (
{
closed = 1;
nodes = (
(108,-166,l),
(302,-166,l),
(302,-96,l),
(188,-96,l),
(188,762,l),
(302,762,l),
(302,832,l),
(108,832,l)
);
}
);
width = 356;
},
{
layerId = "C05809E0-FD9D-43C4-90EB-E9E886B1ADAB";
shapes = (
{
closed = 1;
nodes = (
(105,-166,l),
(357,-166,l),
(357,-42,l),
(260,-42,l),
(260,708,l),
(357,708,l),
(357,832,l),
(105,832,l)
);
}
);
width = 406;
},
{
layerId = "5CC745D4-D12D-435B-A472-7D28876E43BC";
shapes = (
{
closed = 1;
nodes = (
(94,-165,l),
(223,-165,l),
(223,-139,l),
(120,-139,l),
(120,806,l),
(223,806,l),
(223,832,l),
(94,832,l)
);
}
);
width = 278;
},
{
layerId = "AA2163BC-B14D-4D16-A884-99BB623F1DBF";
shapes = (
{
closed = 1;
nodes = (
(90,-165,l),
(260,-165,l),
(260,-98,l),
(167,-98,l),
(167,765,l),
(260,765,l),
(260,832,l),
(90,832,l)
);
}
);
width = 311;
},
{
layerId = "6EDA54BC-5413-4E6E-9D6B-A24A39A704A7";
shapes = (
{
closed = 1;
nodes = (
(85,-165,l),
(307,-165,l),
(307,-43,l),
(227,-43,l),
(227,710,l),
(307,710,l),
(307,832,l),
(85,832,l)
);
}
);
width = 355;
}
);
subCategory = Other;
unicode = 91;
}
{
category = Letter;
glyphname = backslash;
layers = (
{
layerId = "B871EA9A-50AC-43A6-961C-B7EB8764AD7C";
shapes = (
{
closed = 1;
nodes = (
(309,-166,l),
(336,-166,l),
(75,833,l),
(48,833,l)
);
}
);
width = 384;
},
{
layerId = "6C7CC43D-04A1-4971-B3B5-A41D54964AD2";
shapes = (
{
closed = 1;
nodes = (
(305,-166,l),
(387,-166,l),
(124,832,l),
(42,832,l)
);
}
);
width = 429;
},
{
layerId = "C05809E0-FD9D-43C4-90EB-E9E886B1ADAB";
shapes = (
{
closed = 1;
nodes = (
(315,-166,l),
(477,-166,l),
(191,834,l),
(29,834,l)
);
}
);
width = 507;
},
{
layerId = "5CC745D4-D12D-435B-A472-7D28876E43BC";
shapes = (
{
closed = 1;
nodes = (
(266,-166,l),
(293,-166,l),
(68,833,l),
(41,833,l)
);
}
);
width = 334;
},
{
layerId = "AA2163BC-B14D-4D16-A884-99BB623F1DBF";
shapes = (
{
closed = 1;
nodes = (
(286,-165,l),
(362,-165,l),
(113,832,l),
(37,832,l)
);
}
);
width = 399;
},
{
layerId = "6EDA54BC-5413-4E6E-9D6B-A24A39A704A7";
shapes = (
{
closed = 1;
nodes = (
(261,-165,l),
(408,-165,l),
(178,832,l),
(31,832,l)
);
}
);
width = 439;
}
);
subCategory = Other;
unicode = 92;
}
{
category = Letter;
glyphname = bracketright;
kernLeft = bracket;
layers = (
{
layerId = "B871EA9A-50AC-43A6-961C-B7EB8764AD7C";
shapes = (
{
closed = 1;
nodes = (
(60,-166,l),
(209,-166,l),
(209,832,l),
(60,832,l),
(60,806,l),
(183,806,l),
(183,-140,l),
(60,-140,l)
);
}
);
width = 321;
},
{
layerId = "6C7CC43D-04A1-4971-B3B5-A41D54964AD2";
shapes = (
{
closed = 1;
nodes = (
(54,-166,l),
(248,-166,l),
(248,832,l),
(54,832,l),
(54,762,l),
(167,762,l),
(167,-96,l),
(54,-96,l)
);
}
);
width = 356;
},
{
layerId = "C05809E0-FD9D-43C4-90EB-E9E886B1ADAB";
shapes = (
{
closed = 1;
nodes = (
(49,-166,l),
(301,-166,l),
(301,832,l),
(49,832,l),
(49,708,l),
(146,708,l),
(146,-42,l),
(49,-42,l)
);
}
);
width = 406;
},
{
layerId = "5CC745D4-D12D-435B-A472-7D28876E43BC";
shapes = (
{
closed = 1;
nodes = (
(55,-165,l),
(184,-165,l),
(184,832,l),
(55,832,l),
(55,806,l),
(158,806,l),
(158,-139,l),
(55,-139,l)
);
}
);
width = 278;
},
{
layerId = "AA2163BC-B14D-4D16-A884-99BB623F1DBF";
shapes = (
{
closed = 1;
nodes = (
(51,-165,l),
(221,-165,l),
(221,832,l),
(51,832,l),
(51,765,l),
(142,765,l),
(142,-98,l),
(51,-98,l)
);
}
);
width = 311;
},
{
layerId = "6EDA54BC-5413-4E6E-9D6B-A24A39A704A7";
shapes = (
{
closed = 1;
nodes = (
(48,-165,l),
(270,-165,l),
(270,832,l),
(48,832,l),
(48,710,l),
(128,710,l),
(128,-43,l),
(48,-43,l)
);
}
);
width = 355;
}
);
subCategory = Other;
unicode = 93;
}
{
category = Letter;
glyphname = asciicircum;
layers = (
{
layerId = "B871EA9A-50AC-43A6-961C-B7EB8764AD7C";
shapes = (
{
closed = 1;
nodes = (
(45,284,l),
(75,284,l),
(276,694,l),
(472,284,l),
(502,284,l),
(291,720,l),
(261,720,l)
);
}
);
width = 551;
},
{
layerId = "6C7CC43D-04A1-4971-B3B5-A41D54964AD2";
shapes = (
{
closed = 1;
nodes = (
(29,268,l),
(108,268,l),
(278,627,l),
(443,268,l),
(521,268,l),
(303,719,l),
(253,719,l)
);
}
);
width = 551;
},
{
layerId = "C05809E0-FD9D-43C4-90EB-E9E886B1ADAB";
shapes = (
{
closed = 1;
nodes = (
(16,244,l),
(164,244,l),
(293,525,l),
(421,244,l),
(570,244,l),
(336,717,l),
(250,717,l)
);
}
);
width = 585;
},
{
layerId = "5CC745D4-D12D-435B-A472-7D28876E43BC";
shapes = (
{
closed = 1;
nodes = (
(23,332,l),
(53,332,l),
(205,683,l),
(358,332,l),
(388,332,l),
(217,719,l),
(193,719,l)
);
}
);
width = 411;
},
{
layerId = "AA2163BC-B14D-4D16-A884-99BB623F1DBF";
shapes = (
{
closed = 1;
nodes = (
(14,332,l),
(84,332,l),
(203,621,l),
(326,332,l),
(397,332,l),
(226,719,l),
(179,719,l)
);
}
);
width = 411;
},
{
layerId = "6EDA54BC-5413-4E6E-9D6B-A24A39A704A7";
shapes = (
{
closed = 1;
nodes = (
(8,304,l),
(150,304,l),
(244,537,l),
(339,304,l),
(481,304,l),
(289,718,l),
(199,718,l)
);
}
);
width = 490;
}
);
subCategory = Other;
unicode = 94;
}
{
category = Letter;
glyphname = underscore;
layers = (
{
layerId = "B871EA9A-50AC-43A6-961C-B7EB8764AD7C";
shapes = (
{
closed = 1;
nodes = (
(-2,-116,l),
(413,-116,l),
(413,-90,l),
(-2,-90,l)
);
}
);
width = 411;
},
{
layerId = "6C7CC43D-04A1-4971-B3B5-A41D54964AD2";
shapes = (
{
closed = 1;
nodes = (
(-2,-158,l),
(413,-158,l),
(413,-90,l),
(-2,-90,l)
);
}
);
width = 411;
},
{
layerId = "C05809E0-FD9D-43C4-90EB-E9E886B1ADAB";
shapes = (
{
closed = 1;
nodes = (
(-2,-158,l),
(413,-158,l),
(413,-90,l),
(-2,-90,l)
);
}
);
width = 411;
},
{
layerId = "5CC745D4-D12D-435B-A472-7D28876E43BC";
shapes = (
{
closed = 1;
nodes = (
(0,-116,l),
(300,-116,l),
(300,-90,l),
(0,-90,l)
);
}
);
width = 300;
},
{
layerId = "AA2163BC-B14D-4D16-A884-99BB623F1DBF";
shapes = (
{
closed = 1;
nodes = (
(0,-155,l),
(296,-155,l),
(296,-90,l),
(0,-90,l)
);
}
);
width = 296;
},
{
layerId = "6EDA54BC-5413-4E6E-9D6B-A24A39A704A7";
shapes = (
{
closed = 1;
nodes = (
(0,-158,l),
(303,-158,l),
(303,-90,l),
(0,-90,l)
);
}
);
width = 303;
}
);
subCategory = Other;
unicode = 95;
}
{
category = Letter;
glyphname = braceleft;
layers = (
{
layerId = "B871EA9A-50AC-43A6-961C-B7EB8764AD7C";
shapes = (
{
closed = 1;
nodes = (
(45,320,l),
(126,320,o),
(156,290,o),
(156,205,cs),
(156,-34,ls),
(156,-132,o),
(202,-166,o),
(319,-166,c),
(319,-141,l),
(213,-141,o),
(181,-115,o),
(181,-28,cs),
(181,209,ls),
(181,284,o),
(160,318,o),
(103,331,c),
(103,333,l),
(161,344,o),
(181,390,o),
(181,458,cs),
(181,691,ls),
(181,772,o),
(223,807,o),
(319,807,c),
(319,832,l),
(211,832,o),
(156,784,o),
(156,697,cs),
(156,462,ls),
(156,376,o),
(126,344,o),
(45,344,c)
);
}
);
width = 379;
},
{
layerId = "6C7CC43D-04A1-4971-B3B5-A41D54964AD2";
shapes = (
{
closed = 1;
nodes = (
(44,296,l),
(124,296,o),
(167,271,o),
(167,206,cs),
(167,-25,ls),
(167,-125,o),
(239,-164,o),
(337,-166,c),
(337,-94,l),
(282,-92,o),
(248,-80,o),
(248,-18,cs),
(248,211,ls),
(248,279,o),
(211,317,o),
(142,330,c),
(142,335,l),
(211,349,o),
(248,388,o),
(248,455,cs),
(248,685,ls),
(248,746,o),
(282,759,o),
(337,760,c),
(337,832,l),
(239,830,o),
(167,791,o),
(167,691,cs),
(167,460,ls),
(167,395,o),
(124,370,o),
(44,370,c)
);
}
);
width = 391;
},
{
layerId = "C05809E0-FD9D-43C4-90EB-E9E886B1ADAB";
shapes = (
{
closed = 1;
nodes = (
(39,253,l),
(99,253,o),
(159,230,o),
(159,170,cs),
(159,2,ls),
(159,-115,o),
(205,-166,o),
(410,-166,c),
(410,-30,l),
(371,-29,o),
(317,-27,o),
(317,22,cs),
(317,204,ls),
(317,280,o),
(276,312,o),
(200,324,c),
(200,330,l),
(274,340,o),
(317,372,o),
(317,453,cs),
(317,644,ls),
(317,694,o),
(370,695,o),
(410,696,c),
(410,832,l),
(202,832,o),
(159,780,o),
(159,666,cs),
(159,483,ls),
(159,422,o),
(101,400,o),
(39,400,c)
);
}
);
width = 459;
},
{
layerId = "5CC745D4-D12D-435B-A472-7D28876E43BC";
shapes = (
{
closed = 1;
nodes = (
(43,321,l),
(101,321,o),
(135,290,o),
(135,205,cs),
(135,-34,ls),
(135,-132,o),
(178,-166,o),
(260,-166,c),
(260,-140,l),
(191,-140,o),
(160,-115,o),
(160,-28,cs),
(160,209,ls),
(160,284,o),
(138,317,o),
(91,332,c),
(91,334,l),
(141,351,o),
(160,387,o),
(160,458,cs),
(160,694,ls),
(160,781,o),
(191,806,o),
(260,806,c),
(260,832,l),
(178,832,o),
(135,798,o),
(135,700,cs),
(135,462,ls),
(135,376,o),
(101,345,o),
(43,345,c)
);
}
);
width = 315;
},
{
layerId = "AA2163BC-B14D-4D16-A884-99BB623F1DBF";
shapes = (
{
closed = 1;
nodes = (
(39,299,l),
(102,299,o),
(129,272,o),
(129,206,cs),
(129,-26,ls),
(129,-126,o),
(175,-164,o),
(279,-166,c),
(279,-98,l),
(230,-97,o),
(206,-84,o),
(206,-20,cs),
(206,211,ls),
(206,279,o),
(179,317,o),
(128,330,c),
(128,335,l),
(179,349,o),
(206,388,o),
(206,455,cs),
(206,686,ls),
(206,749,o),
(230,763,o),
(279,764,c),
(279,832,l),
(175,830,o),
(129,790,o),
(129,691,cs),
(129,460,ls),
(129,394,o),
(101,367,o),
(39,367,c)
);
}
);
width = 330;
},
{
layerId = "6EDA54BC-5413-4E6E-9D6B-A24A39A704A7";
shapes = (
{
closed = 1;
nodes = (
(37,269,l),
(89,269,o),
(129,248,o),
(129,185,c),
(129,5,ls),
(129,-115,o),
(180,-166,o),
(346,-166,c),
(346,-37,l),
(296,-37,o),
(271,-32,o),
(271,23,cs),
(271,208,ls),
(271,284,o),
(233,318,o),
(177,330,c),
(177,336,l),
(231,347,o),
(271,381,o),
(271,460,cs),
(271,643,ls),
(271,698,o),
(296,703,o),
(346,703,c),
(346,832,l),
(180,832,o),
(129,781,o),
(129,661,cs),
(129,475,ls),
(129,420,o),
(91,397,o),
(37,397,c)
);
}
);
width = 394;
}
);
subCategory = Other;
unicode = 123;
}
{
category = Letter;
glyphname = bar;
layers = (
{
layerId = "B871EA9A-50AC-43A6-961C-B7EB8764AD7C";
shapes = (
{
closed = 1;
nodes = (
(257,-166,l),
(283,-166,l),
(283,832,l),
(257,832,l)
);
}
);
width = 540;
},
{
layerId = "6C7CC43D-04A1-4971-B3B5-A41D54964AD2";
shapes = (
{
closed = 1;
nodes = (
(234,-166,l),
(306,-166,l),
(306,832,l),
(234,832,l)
);
}
);
width = 540;
},
{
layerId = "C05809E0-FD9D-43C4-90EB-E9E886B1ADAB";
shapes = (
{
closed = 1;
nodes = (
(201,-166,l),
(336,-166,l),
(336,832,l),
(201,832,l)
);
}
);
width = 540;
},
{
layerId = "5CC745D4-D12D-435B-A472-7D28876E43BC";
shapes = (
{
closed = 1;
nodes = (
(189,-166,l),
(215,-166,l),
(215,832,l),
(189,832,l)
);
}
);
width = 403;
},
{
layerId = "AA2163BC-B14D-4D16-A884-99BB623F1DBF";
shapes = (
{
closed = 1;
nodes = (
(165,-165,l),
(232,-165,l),
(232,832,l),
(165,832,l)
);
}
);
width = 396;
},
{
layerId = "6EDA54BC-5413-4E6E-9D6B-A24A39A704A7";
shapes = (
{
closed = 1;
nodes = (
(148,-165,l),
(276,-165,l),
(276,832,l),
(148,832,l)
);
}
);
width = 424;
}
);
subCategory = Other;
unicode = 124;
}
{
category = Letter;
glyphname = braceright;
layers = (
{
layerId = "B871EA9A-50AC-43A6-961C-B7EB8764AD7C";
shapes = (
{
closed = 1;
nodes = (
(334,346,l),
(253,346,o),
(223,376,o),
(223,461,cs),
(223,700,ls),
(223,798,o),
(177,832,o),
(60,832,c),
(60,807,l),
(166,807,o),
(198,781,o),
(198,694,cs),
(198,457,ls),
(198,382,o),
(219,348,o),
(276,335,c),
(276,333,l),
(218,322,o),
(198,276,o),
(198,208,cs),
(198,-25,ls),
(198,-106,o),
(156,-141,o),
(60,-141,c),
(60,-166,l),
(168,-166,o),
(223,-118,o),
(223,-31,cs),
(223,204,ls),
(223,290,o),
(253,322,o),
(334,322,c)
);
}
);
width = 379;
},
{
layerId = "6C7CC43D-04A1-4971-B3B5-A41D54964AD2";
shapes = (
{
closed = 1;
nodes = (
(347,370,l),
(267,370,o),
(225,395,o),
(225,460,cs),
(225,691,ls),
(225,791,o),
(152,830,o),
(54,832,c),
(54,760,l),
(110,759,o),
(143,746,o),
(143,685,cs),
(143,455,ls),
(143,388,o),
(179,349,o),
(249,335,c),
(249,330,l),
(179,317,o),
(143,279,o),
(143,211,cs),
(143,-18,ls),
(143,-80,o),
(110,-92,o),
(54,-94,c),
(54,-166,l),
(152,-164,o),
(225,-125,o),
(225,-25,cs),
(225,206,ls),
(225,271,o),
(267,296,o),
(347,296,c)
);
}
);
width = 376;
},
{
layerId = "C05809E0-FD9D-43C4-90EB-E9E886B1ADAB";
shapes = (
{
closed = 1;
nodes = (
(420,413,l),
(360,413,o),
(300,436,o),
(300,496,cs),
(300,664,ls),
(300,781,o),
(254,832,o),
(49,832,c),
(49,696,l),
(88,695,o),
(142,693,o),
(142,644,cs),
(142,462,ls),
(142,386,o),
(183,354,o),
(259,342,c),
(259,336,l),
(185,326,o),
(142,294,o),
(142,213,cs),
(142,22,ls),
(142,-28,o),
(89,-29,o),
(49,-30,c),
(49,-166,l),
(257,-166,o),
(300,-114,o),
(300,0,cs),
(300,183,ls),
(300,244,o),
(358,266,o),
(420,266,c)
);
}
);
width = 459;
},
{
layerId = "5CC745D4-D12D-435B-A472-7D28876E43BC";
shapes = (
{
closed = 1;
nodes = (
(272,345,l),
(214,345,o),
(180,376,o),
(180,461,cs),
(180,700,ls),
(180,798,o),
(137,832,o),
(55,832,c),
(55,806,l),
(124,806,o),
(155,781,o),
(155,694,cs),
(155,457,ls),
(155,382,o),
(177,349,o),
(224,334,c),
(224,332,l),
(174,315,o),
(155,279,o),
(155,208,cs),
(155,-28,ls),
(155,-115,o),
(124,-140,o),
(55,-140,c),
(55,-166,l),
(137,-166,o),
(180,-132,o),
(180,-34,cs),
(180,204,ls),
(180,290,o),
(214,321,o),
(272,321,c)
);
}
);
width = 315;
},
{
layerId = "AA2163BC-B14D-4D16-A884-99BB623F1DBF";
shapes = (
{
closed = 1;
nodes = (
(291,367,l),
(228,367,o),
(201,394,o),
(201,460,cs),
(201,692,ls),
(201,792,o),
(155,830,o),
(51,832,c),
(51,764,l),
(100,763,o),
(124,750,o),
(124,686,cs),
(124,455,ls),
(124,387,o),
(151,349,o),
(202,336,c),
(202,331,l),
(151,317,o),
(124,278,o),
(124,211,cs),
(124,-20,ls),
(124,-83,o),
(100,-97,o),
(51,-98,c),
(51,-166,l),
(155,-164,o),
(201,-124,o),
(201,-25,cs),
(201,206,ls),
(201,272,o),
(229,299,o),
(291,299,c)
);
}
);
width = 330;
},
{
layerId = "6EDA54BC-5413-4E6E-9D6B-A24A39A704A7";
shapes = (
{
closed = 1;
nodes = (
(357,397,l),
(305,397,o),
(265,418,o),
(265,481,cs),
(265,661,ls),
(265,781,o),
(214,832,o),
(48,832,c),
(48,703,l),
(98,703,o),
(123,698,o),
(123,643,cs),
(123,458,ls),
(123,382,o),
(161,348,o),
(217,336,c),
(217,330,l),
(163,319,o),
(123,285,o),
(123,206,cs),
(123,23,ls),
(123,-32,o),
(98,-37,o),
(48,-37,c),
(48,-166,l),
(213,-166,o),
(265,-115,o),
(265,5,cs),
(265,191,ls),
(265,246,o),
(303,269,o),
(357,269,c)
);
}
);
width = 394;
}
);
subCategory = Other;
unicode = 125;
}
{
category = Letter;
glyphname = asciitilde;
layers = (
{
layerId = "B871EA9A-50AC-43A6-961C-B7EB8764AD7C";
shapes = (
{
closed = 1;
nodes = (
(56,283,l),
(92,323,o),
(131,338,o),
(168,338,cs),
(213,338,o),
(238,325,o),
(273,307,cs),
(311,287,o),
(340,274,o),
(386,274,cs),
(433,274,o),
(472,296,o),
(496,323,c),
(496,352,l),
(458,310,o),
(421,298,o),
(387,298,cs),
(347,298,o),
(321,311,o),
(286,329,cs),
(249,348,o),
(222,362,o),
(169,362,cs),
(126,362,o),
(85,343,o),
(56,314,c)
);
}
);
width = 551;
},
{
layerId = "6C7CC43D-04A1-4971-B3B5-A41D54964AD2";
shapes = (
{
closed = 1;
nodes = (
(50,256,l),
(82,289,o),
(125,315,o),
(161,315,cs),
(191,315,o),
(211,309,o),
(259,288,cs),
(320,262,o),
(342,257,o),
(380,257,cs),
(428,257,o),
(469,275,o),
(501,310,c),
(501,389,l),
(470,356,o),
(427,330,o),
(390,330,cs),
(362,330,o),
(341,336,o),
(292,357,cs),
(231,383,o),
(209,388,o),
(171,388,cs),
(123,388,o),
(83,371,o),
(50,335,c)
);
}
);
width = 551;
},
{
layerId = "C05809E0-FD9D-43C4-90EB-E9E886B1ADAB";
shapes = (
{
closed = 1;
nodes = (
(55,229,l),
(91,260,o),
(132,288,o),
(171,288,cs),
(201,288,o),
(225,280,o),
(275,259,cs),
(338,233,o),
(363,230,o),
(403,230,cs),
(455,230,o),
(498,246,o),
(531,283,c),
(531,420,l),
(497,387,o),
(456,361,o),
(415,361,cs),
(387,361,o),
(360,368,o),
(311,388,cs),
(249,413,o),
(223,419,o),
(183,419,cs),
(131,419,o),
(88,400,o),
(55,366,c)
);
}
);
width = 585;
},
{
layerId = "5CC745D4-D12D-435B-A472-7D28876E43BC";
shapes = (
{
closed = 1;
nodes = (
(38,284,l),
(70,324,o),
(95,336,o),
(123,336,cs),
(147,336,o),
(163,329,o),
(198,307,cs),
(233,285,o),
(256,272,o),
(288,272,cs),
(324,272,o),
(351,293,o),
(373,319,c),
(373,351,l),
(342,311,o),
(316,298,o),
(288,298,cs),
(266,298,o),
(252,304,o),
(211,329,cs),
(178,349,o),
(157,362,o),
(123,362,cs),
(89,362,o),
(63,343,o),
(38,316,c)
);
}
);
width = 411;
},
{
layerId = "AA2163BC-B14D-4D16-A884-99BB623F1DBF";
shapes = (
{
closed = 1;
nodes = (
(35,262,l),
(60,294,o),
(90,317,o),
(121,317,cs),
(141,317,o),
(157,309,o),
(191,290,cs),
(238,263,o),
(256,258,o),
(285,258,cs),
(321,258,o),
(348,276,o),
(376,307,c),
(376,383,l),
(348,352,o),
(324,327,o),
(293,327,cs),
(268,327,o),
(255,334,o),
(219,354,cs),
(173,380,o),
(155,386,o),
(127,386,cs),
(92,386,o),
(64,369,o),
(35,337,c)
);
}
);
width = 411;
},
{
layerId = "6EDA54BC-5413-4E6E-9D6B-A24A39A704A7";
shapes = (
{
closed = 1;
nodes = (
(33,236,l),
(74,271,o),
(99,290,o),
(134,290,cs),
(162,290,o),
(185,282,o),
(229,262,cs),
(280,239,o),
(308,232,o),
(343,232,cs),
(390,232,o),
(423,252,o),
(457,285,c),
(457,412,l),
(416,377,o),
(391,358,o),
(360,358,cs),
(332,358,o),
(315,364,o),
(261,386,cs),
(209,407,o),
(183,416,o),
(147,416,cs),
(100,416,o),
(67,396,o),
(33,363,c)
);
}
);
width = 490;
}
);
subCategory = Other;
unicode = 126;
}
{
category = Letter;
glyphname = multiply;
layers = (
{
layerId = "B871EA9A-50AC-43A6-961C-B7EB8764AD7C";
shapes = (
{
closed = 1;
nodes = (
(442,136,l),
(459,153,l),
(292,320,l),
(459,487,l),
(442,504,l),
(275,337,l),
(108,504,l),
(91,487,l),
(258,320,l),
(91,153,l),
(108,136,l),
(275,303,l)
);
}
);
width = 551;
},
{
layerId = "6C7CC43D-04A1-4971-B3B5-A41D54964AD2";
shapes = (
{
closed = 1;
nodes = (
(432,115,l),
(482,165,l),
(326,321,l),
(483,478,l),
(432,528,l),
(275,373,l),
(120,528,l),
(69,477,l),
(224,321,l),
(70,167,l),
(120,116,l),
(275,270,l)
);
}
);
width = 551;
},
{
layerId = "C05809E0-FD9D-43C4-90EB-E9E886B1ADAB";
shapes = (
{
closed = 1;
nodes = (
(434,93,l),
(525,184,l),
(384,326,l),
(528,469,l),
(434,559,l),
(291,417,l),
(151,559,l),
(58,467,l),
(199,326,l),
(59,184,l),
(151,94,l),
(291,236,l)
);
}
);
width = 585;
},
{
layerId = "5CC745D4-D12D-435B-A472-7D28876E43BC";
shapes = (
{
closed = 1;
nodes = (
(352,156,l),
(369,173,l),
(222,320,l),
(369,467,l),
(352,484,l),
(205,337,l),
(58,484,l),
(41,467,l),
(188,320,l),
(41,173,l),
(58,156,l),
(205,303,l)
);
}
);
width = 411;
},
{
layerId = "AA2163BC-B14D-4D16-A884-99BB623F1DBF";
shapes = (
{
closed = 1;
nodes = (
(335,144,l),
(382,191,l),
(249,323,l),
(382,454,l),
(335,501,l),
(204,367,l),
(73,501,l),
(26,454,l),
(159,323,l),
(26,191,l),
(73,144,l),
(204,278,l)
);
}
);
width = 411;
},
{
layerId = "6EDA54BC-5413-4E6E-9D6B-A24A39A704A7";
shapes = (
{
closed = 1;
nodes = (
(367,110,l),
(457,200,l),
(331,323,l),
(457,446,l),
(367,536,l),
(245,408,l),
(122,536,l),
(32,446,l),
(158,323,l),
(32,200,l),
(122,110,l),
(245,236,l)
);
}
);
width = 490;
}
);
subCategory = Other;
unicode = 215;
}
{
category = Letter;
glyphname = divide;
layers = (
{
layerId = "B871EA9A-50AC-43A6-961C-B7EB8764AD7C";
shapes = (
{
closed = 1;
nodes = (
(58,309,l),
(494,309,l),
(494,335,l),
(58,335,l)
);
},
{
closed = 1;
nodes = (
(299,113,o),
(302,127,o),
(302,144,cs),
(302,160,o),
(299,175,o),
(275,175,cs),
(255,175,o),
(250,160,o),
(250,144,cs),
(250,127,o),
(255,113,o),
(275,113,cs)
);
},
{
closed = 1;
nodes = (
(299,469,o),
(302,483,o),
(302,500,cs),
(302,516,o),
(299,531,o),
(275,531,cs),
(255,531,o),
(250,516,o),
(250,500,cs),
(250,483,o),
(255,469,o),
(275,469,cs)
);
}
);
width = 551;
},
{
layerId = "6C7CC43D-04A1-4971-B3B5-A41D54964AD2";
shapes = (
{
closed = 1;
nodes = (
(50,286,l),
(501,286,l),
(501,359,l),
(50,359,l)
);
},
{
closed = 1;
nodes = (
(305,95,o),
(331,113,o),
(331,156,cs),
(331,201,o),
(305,217,o),
(275,217,cs),
(244,217,o),
(219,201,o),
(219,156,cs),
(219,113,o),
(244,95,o),
(275,95,cs)
);
},
{
closed = 1;
nodes = (
(305,436,o),
(331,454,o),
(331,497,cs),
(331,542,o),
(305,558,o),
(275,558,cs),
(244,558,o),
(219,542,o),
(219,497,cs),
(219,454,o),
(244,436,o),
(275,436,cs)
);
}
);
width = 551;
},
{
layerId = "C05809E0-FD9D-43C4-90EB-E9E886B1ADAB";
shapes = (
{
closed = 1;
nodes = (
(55,259,l),
(531,259,l),
(531,388,l),
(55,388,l)
);
},
{
closed = 1;
nodes = (
(334,68,o),
(370,91,o),
(370,151,cs),
(370,213,o),
(334,234,o),
(293,234,cs),
(251,234,o),
(215,213,o),
(215,151,cs),
(215,91,o),
(251,68,o),
(293,68,cs)
);
},
{
closed = 1;
nodes = (
(334,409,o),
(370,432,o),
(370,492,cs),
(370,552,o),
(334,575,o),
(293,575,cs),
(251,575,o),
(215,552,o),
(215,492,cs),
(215,432,o),
(251,409,o),
(293,409,cs)
);
}
);
width = 585;
},
{
layerId = "5CC745D4-D12D-435B-A472-7D28876E43BC";
shapes = (
{
closed = 1;
nodes = (
(38,309,l),
(373,309,l),
(373,335,l),
(38,335,l)
);
},
{
closed = 1;
nodes = (
(224,137,o),
(230,150,o),
(230,166,cs),
(230,181,o),
(224,195,o),
(204,195,cs),
(187,195,o),
(180,181,o),
(180,166,cs),
(180,150,o),
(187,137,o),
(204,137,cs)
);
},
{
closed = 1;
nodes = (
(224,449,o),
(230,462,o),
(230,478,cs),
(230,493,o),
(224,507,o),
(204,507,cs),
(187,507,o),
(180,493,o),
(180,478,cs),
(180,462,o),
(187,449,o),
(204,449,cs)
);
}
);
width = 411;
},
{
layerId = "AA2163BC-B14D-4D16-A884-99BB623F1DBF";
shapes = (
{
closed = 1;
nodes = (
(35,288,l),
(376,288,l),
(376,357,l),
(35,357,l)
);
},
{
closed = 1;
nodes = (
(232,99,o),
(256,116,o),
(256,155,cs),
(256,195,o),
(232,211,o),
(204,211,cs),
(177,211,o),
(154,195,o),
(154,155,cs),
(154,116,o),
(177,99,o),
(204,99,cs)
);
},
{
closed = 1;
nodes = (
(232,436,o),
(256,453,o),
(256,492,cs),
(256,532,o),
(232,548,o),
(204,548,cs),
(177,548,o),
(154,532,o),
(154,492,cs),
(154,453,o),
(177,436,o),
(204,436,cs)
);
}
);
width = 411;
},
{
layerId = "6EDA54BC-5413-4E6E-9D6B-A24A39A704A7";
shapes = (
{
closed = 1;
nodes = (
(33,260,l),
(457,260,l),
(457,386,l),
(33,386,l)
);
},
{
closed = 1;
nodes = (
(285,73,o),
(317,95,o),
(317,152,cs),
(317,211,o),
(285,231,o),
(247,231,cs),
(207,231,o),
(174,211,o),
(174,152,cs),
(174,95,o),
(207,73,o),
(247,73,cs)
);
},
{
closed = 1;
nodes = (
(285,414,o),
(317,436,o),
(317,493,cs),
(317,550,o),
(285,572,o),
(247,572,cs),
(207,572,o),
(174,550,o),
(174,493,cs),
(174,436,o),
(207,414,o),
(247,414,cs)
);
}
);
width = 490;
}
);
subCategory = Other;
unicode = 247;
}
{
category = Mark;
glyphname = "candraBindu-deva";
layers = (
{
anchors = (
{
name = _candra;
pos = (-120,622);
},
{
name = topVedic;
pos = (114,622);
}
);
layerId = "B871EA9A-50AC-43A6-961C-B7EB8764AD7C";
shapes = (
{
closed = 1;
nodes = (
(-149,825,o),
(-136,813,o),
(-120,813,cs),
(-104,813,o),
(-91,825,o),
(-91,849,cs),
(-91,874,o),
(-103,886,o),
(-120,886,cs),
(-137,886,o),
(-149,874,o),
(-149,849,cs)
);
},
{
closed = 1;
nodes = (
(14,852,l),
(-5,756,o),
(-52,721,o),
(-120,721,cs),
(-188,721,o),
(-235,756,o),
(-254,852,c),
(-279,843,l),
(-256,738,o),
(-200,696,o),
(-120,696,cs),
(-40,696,o),
(16,738,o),
(39,843,c)
);
}
);
width = 0;
},
{
anchors = (
{
name = _candra;
pos = (-143,622);
},
{
name = topVedic;
pos = (97,622);
}
);
layerId = "6C7CC43D-04A1-4971-B3B5-A41D54964AD2";
shapes = (
{
closed = 1;
nodes = (
(-192,819,o),
(-170,797,o),
(-143,797,cs),
(-116,797,o),
(-94,819,o),
(-94,847,cs),
(-94,875,o),
(-116,896,o),
(-143,896,cs),
(-170,896,o),
(-192,875,o),
(-192,847,cs)
);
},
{
closed = 1;
nodes = (
(-24,870,l),
(-38,772,o),
(-80,742,o),
(-143,742,cs),
(-206,742,o),
(-248,772,o),
(-262,870,c),
(-331,848,l),
(-307,722,o),
(-240,678,o),
(-143,678,cs),
(-46,678,o),
(21,722,o),
(45,848,c)
);
}
);
width = 0;
},
{
anchors = (
{
name = _candra;
pos = (-178,622);
},
{
name = topVedic;
pos = (67,622);
}
);
layerId = "C05809E0-FD9D-43C4-90EB-E9E886B1ADAB";
shapes = (
{
closed = 1;
nodes = (
(-247,799,o),
(-221,775,o),
(-178,775,cs),
(-135,775,o),
(-109,798,o),
(-109,836,cs),
(-109,872,o),
(-137,896,o),
(-178,896,cs),
(-221,896,o),
(-247,872,o),
(-247,836,cs)
);
},
{
closed = 1;
nodes = (
(-68,866,l),
(-67,786,o),
(-107,743,o),
(-178,743,cs),
(-249,743,o),
(-289,786,o),
(-288,866,c),
(-406,843,l),
(-397,700,o),
(-312,644,o),
(-178,644,cs),
(-44,644,o),
(41,700,o),
(50,843,c)
);
}
);
width = 0;
},
{
anchors = (
{
name = _candra;
pos = (-93,622);
},
{
name = topVedic;
pos = (82,622);
}
);
layerId = "5CC745D4-D12D-435B-A472-7D28876E43BC";
shapes = (
{
closed = 1;
nodes = (
(-121,822,o),
(-108,811,o),
(-95,811,cs),
(-78,811,o),
(-67,821,o),
(-67,848,cs),
(-67,872,o),
(-77,885,o),
(-94,885,cs),
(-109,885,o),
(-121,873,o),
(-121,848,cs)
);
},
{
closed = 1;
nodes = (
(3,862,l),
(-8,763,o),
(-43,731,o),
(-93,731,cs),
(-142,731,o),
(-177,763,o),
(-188,862,c),
(-213,853,l),
(-198,746,o),
(-154,706,o),
(-93,706,cs),
(-31,706,o),
(12,746,o),
(28,853,c)
);
}
);
width = 0;
},
{
anchors = (
{
name = _candra;
pos = (-112,622);
},
{
name = topVedic;
pos = (79,622);
}
);
layerId = "AA2163BC-B14D-4D16-A884-99BB623F1DBF";
shapes = (
{
closed = 1;
nodes = (
(-152,814,o),
(-134,797,o),
(-113,797,cs),
(-90,797,o),
(-73,814,o),
(-73,847,cs),
(-73,879,o),
(-90,895,o),
(-113,895,cs),
(-134,895,o),
(-152,879,o),
(-152,847,cs)
);
},
{
closed = 1;
nodes = (
(-25,870,l),
(-36,771,o),
(-65,745,o),
(-112,745,cs),
(-160,745,o),
(-190,771,o),
(-200,870,c),
(-265,852,l),
(-248,723,o),
(-193,681,o),
(-112,681,cs),
(-32,681,o),
(23,723,o),
(40,852,c)
);
}
);
width = 0;
},
{
anchors = (
{
name = _candra;
pos = (-146,622);
},
{
name = topVedic;
pos = (58,622);
}
);
layerId = "6EDA54BC-5413-4E6E-9D6B-A24A39A704A7";
shapes = (
{
closed = 1;
nodes = (
(-198,803,o),
(-177,778,o),
(-144,778,cs),
(-110,778,o),
(-89,801,o),
(-89,838,cs),
(-89,873,o),
(-110,896,o),
(-144,896,cs),
(-179,896,o),
(-198,873,o),
(-198,840,cs)
);
},
{
closed = 1;
nodes = (
(-56,874,l),
(-59,782,o),
(-88,748,o),
(-145,748,cs),
(-201,748,o),
(-231,782,o),
(-233,874,c),
(-332,851,l),
(-326,708,o),
(-254,652,o),
(-145,652,cs),
(-36,652,o),
(36,708,o),
(44,851,c)
);
}
);
width = 0;
}
);
script = devanagari;
subCategory = Nonspacing;
unicode = 2305;
}
{
category = Mark;
glyphname = candrabindudeva;
layers = (
{
anchors = (
{
name = _Anchor2;
pos = (-130,622);
}
);
layerId = "B871EA9A-50AC-43A6-961C-B7EB8764AD7C";
shapes = (
{
closed = 1;
nodes = (
(-146,822,o),
(-131,810,o),
(-117,810,cs),
(-102,810,o),
(-89,821,o),
(-89,848,cs),
(-89,872,o),
(-100,886,o),
(-117,886,cs),
(-133,886,o),
(-146,873,o),
(-146,848,cs)
);
},
{
closed = 1;
nodes = (
(32,868,l),
(6,768,o),
(-36,722,o),
(-115,722,cs),
(-197,722,o),
(-244,776,o),
(-274,868,c),
(-299,859,l),
(-263,758,o),
(-208,696,o),
(-116,696,cs),
(-23,696,o),
(31,753,o),
(57,860,c)
);
}
);
width = 0;
},
{
anchors = (
{
name = _Anchor2;
pos = (-180,622);
}
);
layerId = "6C7CC43D-04A1-4971-B3B5-A41D54964AD2";
shapes = (
{
closed = 1;
nodes = (
(-188,819,o),
(-166,797,o),
(-139,797,cs),
(-111,797,o),
(-89,819,o),
(-89,847,cs),
(-89,875,o),
(-111,896,o),
(-139,896,cs),
(-166,896,o),
(-188,875,o),
(-188,847,cs)
);
},
{
closed = 1;
nodes = (
(-5,889,l),
(-27,799,o),
(-58,747,o),
(-135,747,cs),
(-207,747,o),
(-248,793,o),
(-283,887,c),
(-352,863,l),
(-307,737,o),
(-234,680,o),
(-138,680,cs),
(-36,680,o),
(38,729,o),
(69,863,c)
);
}
);
width = 0;
},
{
anchors = (
{
name = _Anchor2;
pos = (-239,622);
}
);
layerId = UUID0;
shapes = (
{
closed = 1;
nodes = (
(-231,806,o),
(-205,779,o),
(-173,779,cs),
(-141,779,o),
(-114,806,o),
(-114,838,cs),
(-114,871,o),
(-141,896,o),
(-173,896,cs),
(-205,896,o),
(-231,871,o),
(-231,838,cs)
);
},
{
closed = 1;
nodes = (
(-42,896,l),
(-62,800,o),
(-95,752,o),
(-169,752,cs),
(-238,752,o),
(-284,795,o),
(-315,896,c),
(-418,858,l),
(-366,716,o),
(-279,656,o),
(-172,656,cs),
(-54,656,o),
(32,711,o),
(68,860,c)
);
}
);
width = 0;
},
{
anchors = (
{
name = _Anchor2;
pos = (-267,622);
}
);
layerId = "C05809E0-FD9D-43C4-90EB-E9E886B1ADAB";
shapes = (
{
closed = 1;
nodes = (
(-248,795,o),
(-222,770,o),
(-179,770,cs),
(-136,770,o),
(-110,794,o),
(-110,834,cs),
(-110,871,o),
(-138,896,o),
(-179,896,cs),
(-222,896,o),
(-248,871,o),
(-248,834,cs)
);
},
{
closed = 1;
nodes = (
(-53,896,l),
(-71,794,o),
(-105,747,o),
(-178,747,cs),
(-243,747,o),
(-282,784,o),
(-322,896,c),
(-434,856,l),
(-379,705,o),
(-290,644,o),
(-179,644,cs),
(-54,644,o),
(33,700,o),
(71,858,c)
);
}
);
width = 0;
},
{
anchors = (
{
name = _Anchor2;
pos = (-107,622);
}
);
layerId = "5CC745D4-D12D-435B-A472-7D28876E43BC";
shapes = (
{
closed = 1;
nodes = (
(-122,822,o),
(-109,811,o),
(-95,811,cs),
(-78,811,o),
(-67,821,o),
(-67,848,cs),
(-67,872,o),
(-77,885,o),
(-94,885,cs),
(-110,885,o),
(-122,873,o),
(-122,848,cs)
);
},
{
closed = 1;
nodes = (
(11,868,l),
(-5,770,o),
(-32,722,o),
(-93,722,cs),
(-153,722,o),
(-187,776,o),
(-206,868,c),
(-232,861,l),
(-209,756,o),
(-163,696,o),
(-92,696,cs),
(-20,696,o),
(22,756,o),
(37,862,c)
);
}
);
width = 0;
},
{
anchors = (
{
name = _Anchor2;
pos = (-151,622);
}
);
layerId = "AA2163BC-B14D-4D16-A884-99BB623F1DBF";
shapes = (
{
closed = 1;
nodes = (
(-154,821,o),
(-136,802,o),
(-114,802,cs),
(-90,802,o),
(-73,821,o),
(-73,849,cs),
(-73,877,o),
(-90,895,o),
(-114,895,cs),
(-136,895,o),
(-154,877,o),
(-154,849,cs)
);
},
{
closed = 1;
nodes = (
(-19,887,l),
(-34,797,o),
(-52,745,o),
(-110,745,cs),
(-166,745,o),
(-192,792,o),
(-215,886,c),
(-277,868,l),
(-247,738,o),
(-185,681,o),
(-112,681,cs),
(-28,681,o),
(27,734,o),
(47,868,c)
);
}
);
width = 0;
},
{
anchors = (
{
name = _Anchor2;
pos = (-191,622);
}
);
layerId = "9A082071-1CDF-4F9E-B116-82A287035C9D";
shapes = (
{
closed = 1;
nodes = (
(-181,810,o),
(-161,787,o),
(-131,787,cs),
(-100,787,o),
(-81,809,o),
(-81,842,cs),
(-81,875,o),
(-100,896,o),
(-131,896,cs),
(-162,896,o),
(-181,875,o),
(-181,843,cs)
);
},
{
closed = 1;
nodes = (
(-41,893,l),
(-53,794,o),
(-72,747,o),
(-131,747,cs),
(-184,747,o),
(-209,793,o),
(-234,892,c),
(-317,866,l),
(-283,724,o),
(-222,659,o),
(-131,659,cs),
(-31,659,o),
(29,717,o),
(47,870,c)
);
}
);
width = 0;
},
{
anchors = (
{
name = _Anchor2;
pos = (-216,622);
}
);
layerId = "6EDA54BC-5413-4E6E-9D6B-A24A39A704A7";
shapes = (
{
closed = 1;
nodes = (
(-199,803,o),
(-177,778,o),
(-143,778,cs),
(-107,778,o),
(-86,801,o),
(-86,838,cs),
(-86,873,o),
(-107,896,o),
(-143,896,cs),
(-179,896,o),
(-199,873,o),
(-199,840,cs)
);
},
{
closed = 1;
nodes = (
(-55,896,l),
(-64,792,o),
(-84,748,o),
(-143,748,cs),
(-194,748,o),
(-219,793,o),
(-245,896,c),
(-341,865,l),
(-305,716,o),
(-244,646,o),
(-143,646,cs),
(-32,646,o),
(31,706,o),
(48,871,c)
);
}
);
width = 0;
}
);
subCategory = Nonspacing;
unicode = 2305;
}
{
category = Mark;
glyphname = "anusvara-deva";
layers = (
{
anchors = (
{
name = _top;
pos = (-126,622);
},
{
name = topVedic;
pos = (4,622);
}
);
layerId = "B871EA9A-50AC-43A6-961C-B7EB8764AD7C";
shapes = (
{
closed = 1;
nodes = (
(-146,745,o),
(-132,732,o),
(-113,732,cs),
(-94,732,o),
(-80,743,o),
(-80,770,cs),
(-80,793,o),
(-93,808,o),
(-113,808,cs),
(-133,808,o),
(-146,794,o),
(-146,770,cs)
);
}
);
width = 0;
},
{
anchors = (
{
name = _top;
pos = (-170,622);
},
{
name = topVedic;
pos = (-18,622);
}
);
layerId = "6C7CC43D-04A1-4971-B3B5-A41D54964AD2";
shapes = (
{
closed = 1;
nodes = (
(-185,740,o),
(-160,714,o),
(-130,714,cs),
(-100,714,o),
(-75,740,o),
(-75,772,cs),
(-75,804,o),
(-100,830,o),
(-130,830,cs),
(-160,830,o),
(-185,804,o),
(-185,772,cs)
);
}
);
width = 0;
},
{
anchors = (
{
name = _top;
pos = (-247,622);
},
{
name = topVedic;
pos = (-42,622);
}
);
layerId = "C05809E0-FD9D-43C4-90EB-E9E886B1ADAB";
shapes = (
{
closed = 1;
nodes = (
(-251,716,o),
(-212,677,o),
(-158,677,cs),
(-105,677,o),
(-66,716,o),
(-66,768,cs),
(-66,820,o),
(-105,859,o),
(-158,859,cs),
(-212,859,o),
(-251,820,o),
(-251,768,cs)
);
}
);
width = 0;
},
{
anchors = (
{
name = _top;
pos = (-103,622);
},
{
name = topVedic;
pos = (12,622);
}
);
layerId = "5CC745D4-D12D-435B-A472-7D28876E43BC";
shapes = (
{
closed = 1;
nodes = (
(-121,741,o),
(-106,729,o),
(-91,729,cs),
(-73,729,o),
(-60,740,o),
(-60,769,cs),
(-60,794,o),
(-72,808,o),
(-90,808,cs),
(-107,808,o),
(-121,795,o),
(-121,769,cs)
);
}
);
width = 0;
},
{
anchors = (
{
name = _top;
pos = (-139,622);
},
{
name = topVedic;
pos = (-6,622);
}
);
layerId = "AA2163BC-B14D-4D16-A884-99BB623F1DBF";
shapes = (
{
closed = 1;
nodes = (
(-151,729,o),
(-133,707,o),
(-102,707,cs),
(-70,707,o),
(-53,729,o),
(-53,762,cs),
(-53,794,o),
(-70,817,o),
(-102,817,cs),
(-133,817,o),
(-151,794,o),
(-151,762,cs)
);
}
);
width = 0;
},
{
anchors = (
{
name = _top;
pos = (-204,622);
},
{
name = topVedic;
pos = (-22,622);
}
);
layerId = "6EDA54BC-5413-4E6E-9D6B-A24A39A704A7";
shapes = (
{
closed = 1;
nodes = (
(-211,713,o),
(-181,676,o),
(-129,676,cs),
(-78,676,o),
(-48,713,o),
(-48,765,cs),
(-48,816,o),
(-78,853,o),
(-129,853,cs),
(-181,853,o),
(-211,816,o),
(-211,765,cs)
);
}
);
width = 0;
}
);
script = devanagari;
subCategory = Nonspacing;
unicode = 2306;
}
{
category = Mark;
glyphname = "visarga-deva";
layers = (
{
layerId = "B871EA9A-50AC-43A6-961C-B7EB8764AD7C";
shapes = (
{
closed = 1;
nodes = (
(59,132,o),
(75,117,o),
(93,117,cs),
(112,117,o),
(127,131,o),
(127,158,cs),
(127,182,o),
(114,199,o),
(93,199,cs),
(73,199,o),
(59,183,o),
(59,158,cs)
);
},
{
closed = 1;
nodes = (
(59,389,o),
(75,374,o),
(93,374,cs),
(112,374,o),
(127,388,o),
(127,415,cs),
(127,439,o),
(114,456,o),
(93,456,cs),
(73,456,o),
(59,440,o),
(59,415,cs)
);
},
{
closed = 1;
nodes = (
(0,596,l),
(201,596,l),
(201,622,l),
(0,622,l)
);
}
);
width = 186;
},
{
layerId = "6C7CC43D-04A1-4971-B3B5-A41D54964AD2";
shapes = (
{
closed = 1;
nodes = (
(40,99,o),
(67,70,o),
(101,70,cs),
(134,70,o),
(162,99,o),
(162,134,cs),
(162,169,o),
(134,198,o),
(101,198,cs),
(67,198,o),
(40,169,o),
(40,134,cs)
);
},
{
closed = 1;
nodes = (
(40,349,o),
(67,320,o),
(101,320,cs),
(134,320,o),
(162,349,o),
(162,384,cs),
(162,419,o),
(134,448,o),
(101,448,cs),
(67,448,o),
(40,419,o),
(40,384,cs)
);
},
{
closed = 1;
nodes = (
(0,551,l),
(217,551,l),
(217,622,l),
(0,622,l)
);
}
);
width = 202;
},
{
layerId = UUID0;
shapes = (
{
closed = 1;
nodes = (
(29,77,o),
(62,42,o),
(107,42,cs),
(152,42,o),
(185,77,o),
(185,122,cs),
(185,168,o),
(152,202,o),
(107,202,cs),
(62,202,o),
(29,168,o),
(29,122,cs)
);
},
{
closed = 1;
nodes = (
(30,318,o),
(62,283,o),
(107,283,cs),
(152,283,o),
(184,318,o),
(184,363,cs),
(184,409,o),
(152,443,o),
(107,443,cs),
(62,443,o),
(30,409,o),
(30,363,cs)
);
},
{
closed = 1;
nodes = (
(0,512,l),
(229,512,l),
(229,622,l),
(0,622,l)
);
}
);
width = 214;
},
{
layerId = "C05809E0-FD9D-43C4-90EB-E9E886B1ADAB";
shapes = (
{
closed = 1;
nodes = (
(25,65,o),
(62,28,o),
(114,28,cs),
(165,28,o),
(202,65,o),
(202,115,cs),
(202,164,o),
(165,202,o),
(114,202,cs),
(62,202,o),
(25,164,o),
(25,115,cs)
);
},
{
closed = 1;
nodes = (
(25,301,o),
(62,264,o),
(114,264,cs),
(165,264,o),
(202,301,o),
(202,351,cs),
(202,400,o),
(165,438,o),
(114,438,cs),
(62,438,o),
(25,400,o),
(25,351,cs)
);
},
{
closed = 1;
nodes = (
(0,484,l),
(241,484,l),
(241,622,l),
(0,622,l)
);
}
);
width = 226;
},
{
layerId = "5CC745D4-D12D-435B-A472-7D28876E43BC";
shapes = (
{
closed = 1;
nodes = (
(54,130,o),
(69,118,o),
(85,118,cs),
(104,118,o),
(117,129,o),
(117,158,cs),
(117,184,o),
(105,198,o),
(86,198,cs),
(68,198,o),
(54,185,o),
(54,158,cs)
);
},
{
closed = 1;
nodes = (
(54,393,o),
(69,381,o),
(85,381,cs),
(104,381,o),
(117,392,o),
(117,421,cs),
(117,447,o),
(105,461,o),
(86,461,cs),
(68,461,o),
(54,448,o),
(54,421,cs)
);
},
{
closed = 1;
nodes = (
(0,596,l),
(187,596,l),
(187,622,l),
(0,622,l)
);
}
);
width = 172;
},
{
layerId = "AA2163BC-B14D-4D16-A884-99BB623F1DBF";
shapes = (
{
closed = 1;
nodes = (
(38,106,o),
(58,82,o),
(92,82,cs),
(127,82,o),
(146,106,o),
(146,142,cs),
(146,177,o),
(127,202,o),
(92,202,cs),
(58,202,o),
(38,177,o),
(38,142,cs)
);
},
{
closed = 1;
nodes = (
(38,359,o),
(58,335,o),
(92,335,cs),
(127,335,o),
(146,359,o),
(146,395,cs),
(146,429,o),
(127,455,o),
(92,455,cs),
(58,455,o),
(38,430,o),
(38,395,cs)
);
},
{
closed = 1;
nodes = (
(0,554,l),
(199,554,l),
(199,622,l),
(0,622,l)
);
}
);
width = 184;
},
{
layerId = "9A082071-1CDF-4F9E-B116-82A287035C9D";
shapes = (
{
closed = 1;
nodes = (
(24,83,o),
(49,52,o),
(93,52,cs),
(137,52,o),
(162,83,o),
(162,127,cs),
(162,170,o),
(137,202,o),
(93,202,cs),
(49,202,o),
(24,170,o),
(24,127,cs)
);
},
{
closed = 1;
nodes = (
(24,322,o),
(49,292,o),
(93,292,cs),
(137,292,o),
(162,322,o),
(162,367,cs),
(162,410,o),
(137,441,o),
(93,441,cs),
(49,441,o),
(24,410,o),
(24,367,cs)
);
},
{
closed = 1;
nodes = (
(0,514,l),
(201,514,l),
(201,622,l),
(0,622,l)
);
}
);
width = 186;
},
{
layerId = "6EDA54BC-5413-4E6E-9D6B-A24A39A704A7";
shapes = (
{
closed = 1;
nodes = (
(17,76,o),
(45,42,o),
(94,42,cs),
(142,42,o),
(170,76,o),
(170,124,cs),
(170,171,o),
(142,206,o),
(94,206,cs),
(45,206,o),
(17,171,o),
(17,124,cs)
);
},
{
closed = 1;
nodes = (
(17,307,o),
(45,273,o),
(94,273,cs),
(142,273,o),
(170,307,o),
(170,355,cs),
(170,402,o),
(142,437,o),
(94,437,cs),
(45,437,o),
(17,402,o),
(17,355,cs)
);
},
{
closed = 1;
nodes = (
(0,489,l),
(202,489,l),
(202,622,l),
(0,622,l)
);
}
);
width = 187;
}
);
subCategory = Spacing;
unicode = 2307;
}
{
category = Mark;
glyphname = visargadeva;
layers = (
{
layerId = "B871EA9A-50AC-43A6-961C-B7EB8764AD7C";
shapes = (
{
closed = 1;
nodes = (
(81,92,o),
(97,77,o),
(115,77,cs),
(134,77,o),
(149,91,o),
(149,118,cs),
(149,142,o),
(136,159,o),
(115,159,cs),
(95,159,o),
(81,143,o),
(81,118,cs)
);
},
{
closed = 1;
nodes = (
(81,408,o),
(97,393,o),
(115,393,cs),
(134,393,o),
(149,407,o),
(149,434,cs),
(149,458,o),
(136,475,o),
(115,475,cs),
(95,475,o),
(81,459,o),
(81,434,cs)
);
}
);
width = 230;
},
{
layerId = "6C7CC43D-04A1-4971-B3B5-A41D54964AD2";
shapes = (
{
closed = 1;
nodes = (
(78,83,o),
(105,54,o),
(139,54,cs),
(172,54,o),
(200,83,o),
(200,118,cs),
(200,153,o),
(172,182,o),
(139,182,cs),
(105,182,o),
(78,153,o),
(78,118,cs)
);
},
{
closed = 1;
nodes = (
(78,400,o),
(105,371,o),
(139,371,cs),
(172,371,o),
(200,400,o),
(200,435,cs),
(200,470,o),
(172,499,o),
(139,499,cs),
(105,499,o),
(78,470,o),
(78,435,cs)
);
}
);
width = 272;
},
{
layerId = UUID0;
shapes = (
{
closed = 1;
nodes = (
(76,76,o),
(107,43,o),
(149,43,cs),
(191,43,o),
(222,76,o),
(222,118,cs),
(222,161,o),
(191,193,o),
(149,193,cs),
(107,193,o),
(76,161,o),
(76,118,cs)
);
},
{
closed = 1;
nodes = (
(76,394,o),
(107,361,o),
(149,361,cs),
(191,361,o),
(222,394,o),
(222,436,cs),
(222,479,o),
(191,511,o),
(149,511,cs),
(107,511,o),
(76,479,o),
(76,436,cs)
);
}
);
width = 287;
},
{
layerId = "C05809E0-FD9D-43C4-90EB-E9E886B1ADAB";
shapes = (
{
closed = 1;
nodes = (
(72,69,o),
(108,33,o),
(159,33,cs),
(209,33,o),
(245,69,o),
(245,118,cs),
(245,166,o),
(209,203,o),
(159,203,cs),
(108,203,o),
(72,166,o),
(72,118,cs)
);
},
{
closed = 1;
nodes = (
(72,388,o),
(108,352,o),
(159,352,cs),
(209,352,o),
(245,388,o),
(245,437,cs),
(245,485,o),
(209,522,o),
(159,522,cs),
(108,522,o),
(72,485,o),
(72,437,cs)
);
}
);
width = 301;
},
{
layerId = "5CC745D4-D12D-435B-A472-7D28876E43BC";
shapes = (
{
closed = 1;
nodes = (
(63,90,o),
(78,78,o),
(94,78,cs),
(113,78,o),
(126,89,o),
(126,118,cs),
(126,144,o),
(114,158,o),
(95,158,cs),
(77,158,o),
(63,145,o),
(63,118,cs)
);
},
{
closed = 1;
nodes = (
(63,406,o),
(78,394,o),
(94,394,cs),
(113,394,o),
(126,405,o),
(126,434,cs),
(126,460,o),
(114,474,o),
(95,474,cs),
(77,474,o),
(63,461,o),
(63,434,cs)
);
}
);
width = 190;
},
{
layerId = "AA2163BC-B14D-4D16-A884-99BB623F1DBF";
shapes = (
{
closed = 1;
nodes = (
(55,82,o),
(75,58,o),
(109,58,cs),
(144,58,o),
(163,82,o),
(163,118,cs),
(163,153,o),
(144,178,o),
(109,178,cs),
(75,178,o),
(55,153,o),
(55,118,cs)
);
},
{
closed = 1;
nodes = (
(55,400,o),
(75,376,o),
(109,376,cs),
(144,376,o),
(163,400,o),
(163,436,cs),
(163,470,o),
(144,496,o),
(109,496,cs),
(75,496,o),
(55,471,o),
(55,436,cs)
);
}
);
width = 212;
},
{
layerId = "9A082071-1CDF-4F9E-B116-82A287035C9D";
shapes = (
{
closed = 1;
nodes = (
(55,75,o),
(80,44,o),
(123,44,cs),
(166,44,o),
(191,75,o),
(191,118,cs),
(191,160,o),
(166,192,o),
(123,192,cs),
(80,192,o),
(55,160,o),
(55,118,cs)
);
},
{
closed = 1;
nodes = (
(55,393,o),
(80,363,o),
(123,363,cs),
(166,363,o),
(191,393,o),
(191,437,cs),
(191,479,o),
(166,510,o),
(123,510,cs),
(80,510,o),
(55,479,o),
(55,437,cs)
);
}
);
width = 234;
},
{
layerId = "6EDA54BC-5413-4E6E-9D6B-A24A39A704A7";
shapes = (
{
closed = 1;
nodes = (
(55,70,o),
(83,36,o),
(132,36,cs),
(180,36,o),
(208,70,o),
(208,118,cs),
(208,165,o),
(180,200,o),
(132,200,cs),
(83,200,o),
(55,165,o),
(55,118,cs)
);
},
{
closed = 1;
nodes = (
(55,389,o),
(83,355,o),
(132,355,cs),
(180,355,o),
(208,389,o),
(208,437,cs),
(208,484,o),
(180,519,o),
(132,519,cs),
(83,519,o),
(55,484,o),
(55,437,cs)
);
}
);
width = 248;
}
);
subCategory = "Spacing Combining";
unicode = 2307;
}
{
category = Letter;
glyphname = "a-deva";
kernLeft = "DEV_a-deva_L";
kernRight = "DEV_a-deva_R";
layers = (
{
anchors = (
{
name = bottom2;
pos = (544,-40);
},
{
name = candra;
pos = (554,622);
},
{
name = nukta;
pos = (254,-31);
},
{
name = top;
pos = (544,622);
}
);
layerId = "B871EA9A-50AC-43A6-961C-B7EB8764AD7C";
shapes = (
{
closed = 1;
nodes = (
(685,596,l),
(685,622,l),
(462,622,l),
(462,596,l),
(544,596,l),
(544,0,l),
(570,0,l),
(570,596,l)
);
},
{
closed = 1;
nodes = (
(210,632,o),
(165,618,o),
(121,591,c),
(132,566,l),
(174,592,o),
(216,606,o),
(262,606,cs),
(334,606,o),
(370,568,o),
(370,509,cs),
(370,431,o),
(319,395,o),
(189,374,c),
(194,349,l),
(333,367,o),
(397,422,o),
(397,509,cs),
(397,580,o),
(350,632,o),
(262,632,cs)
);
},
{
closed = 1;
nodes = (
(407,265,o),
(394,303,o),
(364,337,c),
(353,348,l),
(340,361,o),
(324,372,o),
(306,383,c),
(303,387,l),
(277,375,l),
(344,340,o),
(380,293,o),
(380,225,cs),
(380,152,o),
(338,109,o),
(263,109,cs),
(166,109,o),
(94,203,o),
(49,367,c),
(24,359,l),
(78,169,o),
(158,83,o),
(265,83,cs),
(348,83,o),
(407,134,o),
(407,224,cs)
);
},
{
closed = 1;
nodes = (
(413,344,o),
(364,348,o),
(319,370,c),
(315,365,l),
(339,342,l),
(366,324,o),
(409,318,o),
(450,318,cs),
(485,318,o),
(525,323,o),
(553,336,c),
(553,364,l),
(523,349,o),
(483,344,o),
(449,344,cs)
);
}
);
width = 670;
},
{
anchors = (
{
name = bottom2;
pos = (594,-40);
},
{
name = candra;
pos = (634,622);
},
{
name = nukta;
pos = (282,-40);
},
{
name = top;
pos = (594,622);
}
);
layerId = "6C7CC43D-04A1-4971-B3B5-A41D54964AD2";
shapes = (
{
closed = 1;
nodes = (
(779,551,l),
(779,622,l),
(521,622,l),
(521,551,l),
(594,551,l),
(594,0,l),
(675,0,l),
(675,551,l)
);
},
{
closed = 1;
nodes = (
(237,632,o),
(185,617,o),
(139,591,c),
(165,521,l),
(208,547,o),
(251,561,o),
(296,561,cs),
(350,561,o),
(379,533,o),
(379,489,cs),
(379,434,o),
(346,407,o),
(221,391,c),
(237,320,l),
(395,333,o),
(459,394,o),
(459,488,cs),
(459,565,o),
(413,632,o),
(299,632,cs)
);
},
{
closed = 1;
nodes = (
(475,246,o),
(465,275,o),
(448,301,c),
(438,320,l),
(424,340,o),
(399,363,o),
(380,378,c),
(337,369,l),
(293,356,l),
(345,327,o),
(396,284,o),
(396,225,cs),
(396,168,o),
(357,135,o),
(298,135,cs),
(211,135,o),
(154,217,o),
(100,373,c),
(29,344,l),
(106,132,o),
(186,62,o),
(305,62,cs),
(403,62,o),
(475,118,o),
(475,216,cs)
);
},
{
closed = 1;
nodes = (
(460,352,o),
(419,356,o),
(385,367,c),
(379,352,l),
(399,298,l),
(436,287,o),
(478,281,o),
(511,281,cs),
(559,281,o),
(605,288,o),
(651,309,c),
(651,384,l),
(595,360,o),
(542,352,o),
(495,352,cs)
);
}
);
width = 764;
},
{
anchors = (
{
name = bottom2;
pos = (661,-40);
},
{
name = candra;
pos = (751,622);
},
{
name = nukta;
pos = (318,-79);
},
{
name = top;
pos = (661,622);
}
);
layerId = "C05809E0-FD9D-43C4-90EB-E9E886B1ADAB";
shapes = (
{
closed = 1;
nodes = (
(923,484,l),
(923,622,l),
(604,622,l),
(604,484,l),
(661,484,l),
(661,0,l),
(838,0,l),
(838,484,l)
);
},
{
closed = 1;
nodes = (
(285,632,o),
(222,615,o),
(170,589,c),
(215,461,l),
(254,481,o),
(292,491,o),
(328,491,cs),
(359,491,o),
(379,481,o),
(379,455,cs),
(379,427,o),
(353,409,o),
(264,401,c),
(284,278,l),
(450,286,o),
(549,355,o),
(549,467,cs),
(549,563,o),
(491,632,o),
(355,632,cs)
);
},
{
closed = 1;
nodes = (
(564,252,o),
(556,278,o),
(543,300,c),
(534,317,l),
(520,339,o),
(501,358,o),
(480,374,c),
(396,378,l),
(320,341,l),
(376,308,o),
(398,276,o),
(398,240,cs),
(398,201,o),
(375,182,o),
(334,182,cs),
(268,182,o),
(219,246,o),
(157,400,c),
(25,331,l),
(118,110,o),
(215,41,o),
(357,41,cs),
(489,41,o),
(564,108,o),
(564,222,cs)
);
},
{
closed = 1;
nodes = (
(521,353,o),
(494,357,o),
(470,362,c),
(455,349,l),
(467,245,l),
(500,235,o),
(547,224,o),
(598,224,cs),
(636,224,o),
(672,231,o),
(705,245,c),
(695,387,l),
(658,363,o),
(613,353,o),
(561,353,cs)
);
}
);
width = 908;
},
{
anchors = (
{
name = bottom2;
pos = (406,-40);
},
{
name = candra;
pos = (420,622);
},
{
name = nukta;
pos = (192,-29);
},
{
name = top;
pos = (406,622);
}
);
layerId = "5CC745D4-D12D-435B-A472-7D28876E43BC";
shapes = (
{
closed = 1;
nodes = (
(521,596,l),
(521,622,l),
(348,622,l),
(348,596,l),
(406,596,l),
(406,0,l),
(432,0,l),
(432,596,l)
);
},
{
closed = 1;
nodes = (
(159,632,o),
(122,618,o),
(89,591,c),
(101,568,l),
(131,592,o),
(162,606,o),
(195,606,cs),
(250,606,o),
(277,568,o),
(277,509,cs),
(277,448,o),
(243,399,o),
(142,380,c),
(149,354,l),
(257,374,o),
(304,433,o),
(304,509,cs),
(304,580,o),
(268,632,o),
(195,632,cs)
);
},
{
closed = 1;
nodes = (
(311,262,o),
(301,301,o),
(277,338,c),
(271,348,l),
(261,361,o),
(249,373,o),
(234,386,c),
(231,390,l),
(212,376,l),
(258,341,o),
(284,291,o),
(284,220,cs),
(284,144,o),
(256,103,o),
(199,103,cs),
(133,103,o),
(86,176,o),
(49,357,c),
(24,349,l),
(67,143,o),
(125,77,o),
(201,77,cs),
(267,77,o),
(311,126,o),
(311,218,cs)
);
},
{
closed = 1;
nodes = (
(311,347,o),
(278,352,o),
(246,371,c),
(242,365,l),
(260,343,l),
(282,327,o),
(311,321,o),
(341,321,cs),
(368,321,o),
(398,326,o),
(418,339,c),
(417,367,l),
(395,353,o),
(365,347,o),
(340,347,cs)
);
}
);
width = 509;
},
{
anchors = (
{
name = bottom2;
pos = (440,-40);
},
{
name = candra;
pos = (480,622);
},
{
name = nukta;
pos = (211,-39);
},
{
name = top;
pos = (440,622);
}
);
layerId = "AA2163BC-B14D-4D16-A884-99BB623F1DBF";
shapes = (
{
closed = 1;
nodes = (
(591,554,l),
(591,622,l),
(388,622,l),
(388,554,l),
(440,554,l),
(440,0,l),
(515,0,l),
(515,554,l)
);
},
{
closed = 1;
nodes = (
(175,632,o),
(131,617,o),
(96,593,c),
(122,529,l),
(153,551,o),
(183,563,o),
(213,563,cs),
(257,563,o),
(276,535,o),
(276,491,cs),
(276,447,o),
(248,413,o),
(156,397,c),
(171,327,l),
(296,344,o),
(350,402,o),
(350,489,cs),
(350,565,o),
(317,632,o),
(217,632,cs)
);
},
{
closed = 1;
nodes = (
(362,246,o),
(353,277,o),
(339,303,c),
(332,320,l),
(321,340,o),
(302,363,o),
(288,378,c),
(255,369,l),
(219,354,l),
(262,326,o),
(288,274,o),
(288,222,cs),
(288,168,o),
(266,135,o),
(225,135,cs),
(160,135,o),
(125,217,o),
(89,365,c),
(21,344,l),
(75,124,o),
(136,66,o),
(231,66,cs),
(306,66,o),
(362,113,o),
(362,206,cs)
);
},
{
closed = 1;
nodes = (
(351,353,o),
(318,354,o),
(294,368,c),
(289,356,l),
(304,302,l),
(332,291,o),
(364,285,o),
(389,285,cs),
(426,285,o),
(461,292,o),
(496,313,c),
(496,385,l),
(453,361,o),
(413,353,o),
(377,353,cs)
);
}
);
width = 579;
},
{
anchors = (
{
name = bottom2;
pos = (505,-40);
},
{
name = candra;
pos = (575,622);
},
{
name = nukta;
pos = (249,-77);
},
{
name = top;
pos = (505,622);
}
);
layerId = "6EDA54BC-5413-4E6E-9D6B-A24A39A704A7";
shapes = (
{
closed = 1;
nodes = (
(721,489,l),
(721,622,l),
(467,622,l),
(467,489,l),
(505,489,l),
(505,0,l),
(655,0,l),
(655,489,l)
);
},
{
closed = 1;
nodes = (
(214,632,o),
(163,616,o),
(119,593,c),
(161,471,l),
(188,488,o),
(215,498,o),
(242,498,cs),
(269,498,o),
(281,485,o),
(281,462,cs),
(281,436,o),
(261,418,o),
(197,410,c),
(215,290,l),
(349,297,o),
(429,362,o),
(429,468,cs),
(429,555,o),
(381,632,o),
(272,632,cs)
);
},
{
closed = 1;
nodes = (
(441,252,o),
(432,278,o),
(417,300,c),
(412,317,l),
(401,339,o),
(386,358,o),
(370,374,c),
(304,378,l),
(238,341,l),
(275,308,o),
(293,276,o),
(293,236,cs),
(293,201,o),
(279,182,o),
(250,182,cs),
(207,182,o),
(178,241,o),
(145,372,c),
(15,331,l),
(74,100,o),
(153,41,o),
(268,41,cs),
(383,41,o),
(441,108,o),
(441,212,cs)
);
},
{
closed = 1;
nodes = (
(402,359,o),
(381,363,o),
(362,368,c),
(350,355,l),
(360,251,l),
(386,241,o),
(422,230,o),
(462,230,cs),
(492,230,o),
(520,237,o),
(545,251,c),
(538,393,l),
(509,369,o),
(474,359,o),
(433,359,cs)
);
}
);
width = 709;
}
);
script = devanagari;
subCategory = Other;
unicode = 2309;
}
{
category = Letter;
glyphname = adeva;
layers = (
{
layerId = "B871EA9A-50AC-43A6-961C-B7EB8764AD7C";
shapes = (
{
closed = 1;
nodes = (
(685,596,l),
(685,622,l),
(462,622,l),
(462,596,l),
(544,596,l),
(544,0,l),
(570,0,l),
(570,596,l)
);
},
{
closed = 1;
nodes = (
(210,632,o),
(171,618,o),
(120,594,c),
(130,568,l),
(177,593,o),
(216,606,o),
(263,606,cs),
(335,606,o),
(376,569,o),
(376,501,cs),
(376,430,o),
(328,393,o),
(221,388,c),
(223,362,l),
(342,366,o),
(403,422,o),
(403,501,cs),
(403,583,o),
(350,632,o),
(263,632,cs)
);
},
{
closed = 1;
nodes = (
(405,266,o),
(385,303,o),
(355,334,c),
(353,342,l),
(340,356,o),
(326,370,o),
(309,382,c),
(295,390,l),
(271,379,l),
(335,335,o),
(378,283,o),
(378,221,cs),
(378,148,o),
(332,121,o),
(273,121,cs),
(179,121,o),
(115,205,o),
(49,370,c),
(23,361,l),
(102,169,o),
(176,95,o),
(277,95,cs),
(342,95,o),
(405,130,o),
(405,219,cs)
);
},
{
closed = 1;
nodes = (
(404,343,o),
(359,345,o),
(314,357,c),
(315,352,l),
(340,332,l),
(364,321,o),
(404,317,o),
(443,317,cs),
(478,317,o),
(517,321,o),
(553,331,c),
(553,357,l),
(513,346,o),
(470,343,o),
(438,343,cs)
);
}
);
width = 670;
},
{
layerId = "6C7CC43D-04A1-4971-B3B5-A41D54964AD2";
shapes = (
{
closed = 1;
nodes = (
(779,551,l),
(779,622,l),
(521,622,l),
(521,551,l),
(594,551,l),
(594,0,l),
(675,0,l),
(675,551,l)
);
},
{
closed = 1;
nodes = (
(232,632,o),
(181,612,o),
(146,594,c),
(171,525,l),
(216,548,o),
(252,562,o),
(302,562,cs),
(343,562,o),
(380,542,o),
(380,494,cs),
(380,444,o),
(346,414,o),
(255,411,c),
(260,341,l),
(391,344,o),
(459,408,o),
(459,495,cs),
(459,574,o),
(402,632,o),
(298,632,cs)
);
},
{
closed = 1;
nodes = (
(470,251,o),
(460,279,o),
(443,304,c),
(438,323,l),
(424,345,o),
(399,370,o),
(380,386,c),
(337,377,l),
(278,374,l),
(340,335,o),
(391,291,o),
(391,227,cs),
(391,175,o),
(355,153,o),
(305,153,cs),
(222,153,o),
(157,240,o),
(100,382,c),
(29,356,l),
(113,159,o),
(197,80,o),
(312,80,cs),
(401,80,o),
(470,125,o),
(470,218,cs)
);
},
{
closed = 1;
nodes = (
(441,350,o),
(398,356,o),
(359,365,c),
(353,350,l),
(400,294,l),
(415,288,o),
(468,279,o),
(498,279,cs),
(553,279,o),
(594,285,o),
(651,310,c),
(651,382,l),
(588,359,o),
(550,350,o),
(486,350,cs)
);
}
);
width = 764;
},
{
layerId = UUID0;
shapes = (
{
closed = 1;
nodes = (
(859,512,l),
(859,622,l),
(567,622,l),
(567,512,l),
(631,512,l),
(631,0,l),
(765,0,l),
(765,512,l)
);
},
{
closed = 1;
nodes = (
(261,632,o),
(198,610,o),
(159,590,c),
(196,490,l),
(232,508,o),
(270,522,o),
(311,522,cs),
(344,522,o),
(376,512,o),
(376,474,cs),
(376,435,o),
(353,414,o),
(275,410,c),
(281,304,l),
(429,308,o),
(509,378,o),
(509,477,cs),
(509,566,o),
(447,632,o),
(333,632,cs)
);
},
{
closed = 1;
nodes = (
(521,239,o),
(514,267,o),
(502,292,c),
(491,313,l),
(477,335,o),
(458,358,o),
(438,374,c),
(376,383,l),
(297,359,l),
(359,322,o),
(388,284,o),
(388,230,cs),
(388,193,o),
(369,173,o),
(330,173,cs),
(250,173,o),
(190,249,o),
(135,392,c),
(20,348,l),
(117,120,o),
(213,60,o),
(340,60,cs),
(458,60,o),
(521,117,o),
(521,211,cs)
);
},
{
closed = 1;
nodes = (
(485,346,o),
(459,350,o),
(434,355,c),
(419,342,l),
(431,249,l),
(459,244,o),
(499,238,o),
(542,238,cs),
(587,238,o),
(629,244,o),
(669,269,c),
(669,379,l),
(624,354,o),
(581,346,o),
(525,346,cs)
);
}
);
width = 845;
},
{
layerId = "C05809E0-FD9D-43C4-90EB-E9E886B1ADAB";
shapes = (
{
closed = 1;
nodes = (
(923,484,l),
(923,622,l),
(604,622,l),
(604,484,l),
(661,484,l),
(661,0,l),
(838,0,l),
(838,484,l)
);
},
{
closed = 1;
nodes = (
(283,632,o),
(222,612,o),
(170,588,c),
(215,464,l),
(254,483,o),
(292,494,o),
(328,494,cs),
(355,494,o),
(375,484,o),
(375,458,cs),
(375,432,o),
(358,418,o),
(292,414,c),
(298,282,l),
(460,287,o),
(550,356,o),
(550,468,cs),
(550,562,o),
(482,632,o),
(356,632,cs)
);
},
{
closed = 1;
nodes = (
(565,246,o),
(557,275,o),
(544,300,c),
(534,317,l),
(520,339,o),
(501,358,o),
(480,374,c),
(396,378,l),
(315,341,l),
(362,309,o),
(388,275,o),
(388,231,cs),
(388,206,o),
(371,193,o),
(343,193,cs),
(273,193,o),
(210,277,o),
(161,401,c),
(14,346,l),
(107,117,o),
(225,52,o),
(357,52,cs),
(488,52,o),
(565,111,o),
(565,212,cs)
);
},
{
closed = 1;
nodes = (
(521,349,o),
(494,353,o),
(470,358,c),
(455,345,l),
(467,231,l),
(495,226,o),
(535,220,o),
(578,220,cs),
(623,220,o),
(665,226,o),
(705,251,c),
(705,383,l),
(660,358,o),
(617,349,o),
(561,349,cs)
);
}
);
width = 908;
},
{
layerId = "5CC745D4-D12D-435B-A472-7D28876E43BC";
shapes = (
{
closed = 1;
nodes = (
(521,596,l),
(521,622,l),
(348,622,l),
(348,596,l),
(406,596,l),
(406,0,l),
(432,0,l),
(432,596,l)
);
},
{
closed = 1;
nodes = (
(151,632,o),
(117,622,o),
(80,604,c),
(90,579,l),
(124,597,o),
(156,606,o),
(188,606,cs),
(250,606,o),
(279,568,o),
(279,504,cs),
(279,440,o),
(245,398,o),
(163,388,c),
(165,363,l),
(254,374,o),
(306,421,o),
(306,503,cs),
(306,584,o),
(260,632,o),
(190,632,cs)
);
},
{
closed = 1;
nodes = (
(308,250,o),
(295,296,o),
(267,334,c),
(266,342,l),
(257,356,o),
(243,372,o),
(231,384,c),
(218,390,l),
(199,380,l),
(243,338,o),
(281,279,o),
(281,205,cs),
(281,145,o),
(254,121,o),
(211,121,cs),
(137,121,o),
(93,185,o),
(47,357,c),
(21,350,l),
(74,157,o),
(125,95,o),
(214,95,cs),
(262,95,o),
(308,126,o),
(308,203,cs)
);
},
{
closed = 1;
nodes = (
(304,343,o),
(268,345,o),
(239,354,c),
(239,349,l),
(258,329,l),
(277,319,o),
(307,317,o),
(336,317,cs),
(362,317,o),
(394,319,o),
(419,328,c),
(419,355,l),
(392,345,o),
(362,343,o),
(331,343,cs)
);
}
);
width = 509;
},
{
layerId = "AA2163BC-B14D-4D16-A884-99BB623F1DBF";
shapes = (
{
closed = 1;
nodes = (
(591,554,l),
(591,622,l),
(391,622,l),
(391,554,l),
(440,554,l),
(440,0,l),
(515,0,l),
(515,554,l)
);
},
{
closed = 1;
nodes = (
(166,632,o),
(134,621,o),
(94,603,c),
(119,537,l),
(147,553,o),
(176,563,o),
(203,563,cs),
(249,563,o),
(275,538,o),
(275,494,cs),
(275,447,o),
(241,418,o),
(177,411,c),
(185,344,l),
(266,351,o),
(349,398,o),
(349,495,cs),
(349,576,o),
(300,632,o),
(213,632,cs)
);
},
{
closed = 1;
nodes = (
(356,249,o),
(345,281,o),
(335,306,cs),
(328,324,ls),
(318,346,o),
(301,370,o),
(287,386,c),
(255,378,l),
(206,374,l),
(245,336,o),
(283,280,o),
(283,215,cs),
(283,173,o),
(262,151,o),
(230,151,cs),
(168,151,o),
(128,235,o),
(89,374,c),
(21,356,l),
(80,157,o),
(136,82,o),
(236,82,cs),
(309,82,o),
(356,127,o),
(356,208,cs)
);
},
{
closed = 1;
nodes = (
(333,349,o),
(314,353,o),
(285,362,c),
(278,350,l),
(300,295,l),
(316,288,o),
(348,282,o),
(374,282,cs),
(410,282,o),
(440,288,o),
(475,309,c),
(475,377,l),
(434,357,o),
(410,349,o),
(364,349,cs)
);
}
);
width = 579;
},
{
layerId = "9A082071-1CDF-4F9E-B116-82A287035C9D";
shapes = (
{
closed = 1;
nodes = (
(671,514,l),
(671,622,l),
(433,622,l),
(433,514,l),
(480,514,l),
(480,0,l),
(601,0,l),
(601,514,l)
);
},
{
closed = 1;
nodes = (
(190,632,o),
(153,620,o),
(111,602,c),
(149,501,l),
(175,516,o),
(202,523,o),
(224,523,cs),
(261,523,o),
(279,504,o),
(279,472,cs),
(279,438,o),
(252,417,o),
(200,412,c),
(212,308,l),
(318,320,o),
(399,371,o),
(399,478,cs),
(399,568,o),
(342,632,o),
(244,632,cs)
);
},
{
closed = 1;
nodes = (
(408,245,o),
(400,277,o),
(389,302,cs),
(382,320,ls),
(371,342,o),
(352,364,o),
(336,377,c),
(287,379,l),
(227,345,l),
(259,310,o),
(288,273,o),
(288,219,cs),
(288,192,o),
(275,174,o),
(248,174,cs),
(198,174,o),
(161,240,o),
(127,378,c),
(17,350,l),
(74,137,o),
(142,64,o),
(257,64,cs),
(354,64,o),
(408,116,o),
(408,209,cs)
);
},
{
closed = 1;
nodes = (
(381,348,o),
(358,352,o),
(336,359,c),
(327,346,l),
(341,258,l),
(359,251,o),
(393,246,o),
(419,246,cs),
(453,246,o),
(487,251,o),
(517,274,c),
(516,378,l),
(474,354,o),
(446,348,o),
(408,348,cs)
);
}
);
width = 659;
},
{
layerId = "6EDA54BC-5413-4E6E-9D6B-A24A39A704A7";
shapes = (
{
closed = 1;
nodes = (
(721,489,l),
(721,622,l),
(467,622,l),
(467,489,l),
(505,489,l),
(505,0,l),
(655,0,l),
(655,489,l)
);
},
{
closed = 1;
nodes = (
(205,632,o),
(164,619,o),
(121,602,c),
(167,478,l),
(192,492,o),
(217,498,o),
(237,498,cs),
(268,498,o),
(281,482,o),
(281,459,cs),
(281,432,o),
(259,416,o),
(213,412,c),
(229,286,l),
(350,301,o),
(430,354,o),
(430,468,cs),
(430,563,o),
(367,632,o),
(262,632,cs)
);
},
{
closed = 1;
nodes = (
(441,242,o),
(435,274,o),
(424,299,c),
(416,318,l),
(404,340,o),
(384,360,o),
(368,372,c),
(307,379,l),
(241,326,l),
(270,294,o),
(292,266,o),
(292,222,cs),
(292,204,o),
(284,188,o),
(260,188,cs),
(218,188,o),
(183,243,o),
(151,381,c),
(15,346,l),
(71,124,o),
(146,53,o),
(271,53,cs),
(382,53,o),
(441,109,o),
(441,209,cs)
);
},
{
closed = 1;
nodes = (
(410,348,o),
(385,352,o),
(368,357,c),
(357,344,l),
(366,234,l),
(386,228,o),
(420,223,o),
(447,223,cs),
(480,223,o),
(515,228,o),
(542,252,c),
(541,378,l),
(499,352,o),
(468,348,o),
(435,348,cs)
);
}
);
width = 709;
}
);
subCategory = Other;
unicode = 2309;
}
{
category = Letter;
glyphname = "i-deva";
kernLeft = "DEV_i-deva_L";
kernRight = "DEV_i-deva_R";
layers = (
{
anchors = (
{
name = bottom2;
pos = (353,-180);
},
{
name = candra;
pos = (357,622);
},
{
name = nukta;
pos = (104,-130);
},
{
name = top;
pos = (347,622);
}
);
layerId = "B871EA9A-50AC-43A6-961C-B7EB8764AD7C";
shapes = (
{
closed = 1;
nodes = (
(341,251,o),
(394,220,o),
(394,142,cs),
(394,63,o),
(337,25,o),
(225,25,cs),
(198,25,o),
(165,28,o),
(135,35,c),
(133,22,l),
(178,-36,o),
(231,-93,o),
(294,-151,c),
(313,-134,l),
(255,-84,o),
(204,-32,o),
(166,16,c),
(144,74,o),
(124,96,o),
(95,96,cs),
(73,96,o),
(60,82,o),
(60,62,cs),
(60,28,o),
(98,3,o),
(184,1,c),
(202,0,o),
(214,0,o),
(226,0,cs),
(342,0,o),
(421,44,o),
(421,142,cs),
(421,225,o),
(366,277,o),
(272,277,cs),
(219,277,o),
(184,267,o),
(153,253,c),
(123,272,o),
(87,310,o),
(87,357,cs),
(87,423,o),
(134,438,o),
(206,438,cs),
(373,438,l),
(373,596,l),
(487,596,l),
(487,622,l),
(0,622,l),
(0,596,l),
(347,596,l),
(347,464,l),
(202,464,ls),
(109,464,o),
(60,429,o),
(60,360,cs),
(60,300,o),
(104,254,o),
(150,224,c),
(189,245,o),
(228,251,o),
(270,251,cs)
);
}
);
width = 472;
},
{
anchors = (
{
name = bottom2;
pos = (343,-180);
},
{
name = candra;
pos = (363,622);
},
{
name = nukta;
pos = (94,-110);
},
{
name = top;
pos = (323,622);
}
);
layerId = "6C7CC43D-04A1-4971-B3B5-A41D54964AD2";
shapes = (
{
closed = 1;
nodes = (
(339,222,o),
(366,197,o),
(366,154,cs),
(366,86,o),
(300,68,o),
(215,68,cs),
(190,68,o),
(138,70,o),
(105,74,c),
(131,31,l),
(174,-35,o),
(224,-99,o),
(282,-161,c),
(352,-109,l),
(296,-60,o),
(244,-10,o),
(199,41,c),
(162,106,o),
(134,132,o),
(96,132,cs),
(63,132,o),
(42,113,o),
(42,82,cs),
(42,31,o),
(98,5,o),
(181,1,c),
(195,0,o),
(210,0,o),
(226,0,cs),
(360,0,o),
(447,48,o),
(447,154,cs),
(447,238,o),
(390,294,o),
(283,294,cs),
(241,294,o),
(206,288,o),
(173,276,c),
(149,294,o),
(130,317,o),
(130,344,cs),
(130,376,o),
(152,394,o),
(206,394,cs),
(404,394,l),
(404,551,l),
(505,551,l),
(505,622,l),
(0,622,l),
(0,551,l),
(323,551,l),
(323,465,l),
(199,465,ls),
(98,465,o),
(50,426,o),
(50,352,cs),
(50,287,o),
(101,234,o),
(158,199,c),
(191,212,o),
(232,222,o),
(271,222,cs)
);
}
);
width = 491;
},
{
anchors = (
{
name = bottom2;
pos = (309,-180);
},
{
name = candra;
pos = (385,622);
},
{
name = nukta;
pos = (94,-130);
},
{
name = top;
pos = (295,622);
}
);
layerId = "C05809E0-FD9D-43C4-90EB-E9E886B1ADAB";
shapes = (
{
closed = 1;
nodes = (
(320,178,o),
(334,171,o),
(334,154,cs),
(334,133,o),
(313,118,o),
(238,118,cs),
(214,118,o),
(181,120,o),
(134,126,c),
(140,20,l),
(184,-46,o),
(236,-114,o),
(298,-180,c),
(417,-85,l),
(355,-39,o),
(302,8,o),
(256,54,c),
(212,126,o),
(160,159,o),
(114,159,cs),
(63,159,o),
(31,132,o),
(31,87,cs),
(31,21,o),
(102,-23,o),
(234,-17,cs),
(265,-16,o),
(259,0,o),
(265,0,cs),
(436,-9,o),
(512,58,o),
(512,154,cs),
(512,234,o),
(462,295,o),
(328,295,cs),
(285,295,o),
(256,292,o),
(220,287,c),
(214,294,o),
(210,302,o),
(210,310,cs),
(210,325,o),
(221,333,o),
(247,333,cs),
(469,333,l),
(469,484,l),
(555,484,l),
(555,622,l),
(0,622,l),
(0,484,l),
(295,484,l),
(295,444,l),
(198,444,ls),
(90,444,o),
(37,400,o),
(37,325,cs),
(37,252,o),
(103,195,o),
(164,165,c),
(203,174,o),
(240,178,o),
(273,178,cs)
);
}
);
width = 540;
},
{
anchors = (
{
name = bottom2;
pos = (263,-170);
},
{
name = candra;
pos = (268,622);
},
{
name = nukta;
pos = (64,-120);
},
{
name = top;
pos = (254,622);
}
);
layerId = "5CC745D4-D12D-435B-A472-7D28876E43BC";
shapes = (
{
closed = 1;
nodes = (
(252,251,o),
(289,217,o),
(289,142,cs),
(289,65,o),
(240,26,o),
(164,26,cs),
(144,26,o),
(122,29,o),
(99,36,c),
(99,22,l),
(127,-31,o),
(169,-91,o),
(214,-148,c),
(235,-132,l),
(193,-83,o),
(151,-26,o),
(128,16,c),
(112,73,o),
(96,96,o),
(71,96,cs),
(53,96,o),
(43,82,o),
(43,63,cs),
(43,29,o),
(79,2,o),
(136,1,c),
(148,0,o),
(158,0,o),
(166,0,cs),
(253,0,o),
(316,46,o),
(316,142,cs),
(316,222,o),
(275,277,o),
(199,277,cs),
(166,277,o),
(139,271,o),
(111,260,c),
(92,277,o),
(72,312,o),
(72,357,cs),
(72,423,o),
(105,438,o),
(155,438,cs),
(280,438,l),
(280,596,l),
(365,596,l),
(365,622,l),
(0,622,l),
(0,596,l),
(254,596,l),
(254,464,l),
(152,464,ls),
(82,464,o),
(45,429,o),
(45,360,cs),
(45,301,o),
(75,257,o),
(106,229,c),
(139,245,o),
(168,251,o),
(199,251,cs)
);
}
);
width = 358;
},
{
anchors = (
{
name = bottom2;
pos = (243,-170);
},
{
name = candra;
pos = (266,622);
},
{
name = nukta;
pos = (56,-114);
},
{
name = top;
pos = (227,622);
}
);
layerId = "AA2163BC-B14D-4D16-A884-99BB623F1DBF";
shapes = (
{
closed = 1;
nodes = (
(240,222,o),
(261,196,o),
(261,152,cs),
(261,88,o),
(214,68,o),
(159,68,cs),
(140,68,o),
(101,70,o),
(76,74,c),
(91,32,l),
(124,-34,o),
(162,-98,o),
(204,-160,c),
(265,-114,l),
(222,-63,o),
(183,-12,o),
(152,41,c),
(128,106,o),
(106,134,o),
(73,134,cs),
(44,134,o),
(26,114,o),
(26,83,cs),
(26,34,o),
(69,5,o),
(134,1,c),
(144,0,o),
(156,0,o),
(168,0,cs),
(268,0,o),
(336,48,o),
(336,150,cs),
(336,238,o),
(287,294,o),
(209,294,cs),
(180,294,o),
(155,289,o),
(130,281,c),
(116,297,o),
(105,318,o),
(105,341,cs),
(105,377,o),
(123,397,o),
(174,397,cs),
(302,397,l),
(302,554,l),
(378,554,l),
(378,622,l),
(0,622,l),
(0,554,l),
(227,554,l),
(227,465,l),
(170,465,ls),
(74,465,o),
(32,426,o),
(32,351,cs),
(32,290,o),
(72,236,o),
(112,203,c),
(139,215,o),
(170,222,o),
(196,222,cs)
);
}
);
width = 368;
},
{
anchors = (
{
name = bottom2;
pos = (229,-170);
},
{
name = candra;
pos = (261,622);
},
{
name = nukta;
pos = (56,-107);
},
{
name = top;
pos = (211,622);
}
);
layerId = "6EDA54BC-5413-4E6E-9D6B-A24A39A704A7";
shapes = (
{
closed = 1;
nodes = (
(238,184,o),
(249,174,o),
(249,155,cs),
(249,134,o),
(234,120,o),
(183,120,cs),
(165,120,o),
(140,122,o),
(105,127,c),
(105,23,l),
(133,-37,o),
(169,-98,o),
(217,-160,c),
(325,-90,l),
(276,-42,o),
(231,6,o),
(197,54,c),
(168,127,o),
(139,161,o),
(89,161,cs),
(43,161,o),
(16,134,o),
(16,91,cs),
(16,29,o),
(75,-15,o),
(183,-9,cs),
(197,-8,o),
(192,-2,o),
(197,-2,cs),
(328,-9,o),
(399,57,o),
(399,151,cs),
(399,236,o),
(354,298,o),
(252,298,cs),
(222,298,o),
(204,296,o),
(177,291,c),
(171,297,o),
(167,306,o),
(167,315,cs),
(167,329,o),
(176,337,o),
(200,337,cs),
(361,337,l),
(361,489,l),
(433,489,l),
(433,622,l),
(0,622,l),
(0,489,l),
(211,489,l),
(211,446,l),
(166,446,ls),
(67,446,o),
(24,399,o),
(24,327,cs),
(24,260,o),
(69,206,o),
(117,175,c),
(149,181,o),
(178,184,o),
(203,184,cs)
);
}
);
width = 420;
}
);
script = devanagari;
subCategory = Other;
unicode = 2311;
}
{
category = Letter;
glyphname = ideva;
layers = (
{
anchors = (
{
name = Anchor2;
pos = (340,622);
}
);
layerId = "B871EA9A-50AC-43A6-961C-B7EB8764AD7C";
shapes = (
{
closed = 1;
nodes = (
(335,251,o),
(394,221,o),
(394,141,cs),
(394,63,o),
(339,24,o),
(233,24,cs),
(196,24,o),
(166,28,o),
(133,36,c),
(141,23,l),
(202,-19,o),
(284,-65,o),
(367,-107,c),
(378,-83,l),
(308,-52,o),
(241,-16,o),
(187,15,c),
(157,54,o),
(122,79,o),
(93,79,cs),
(69,79,o),
(60,67,o),
(60,51,cs),
(60,15,o),
(123,5,o),
(183,2,cs),
(205,1,o),
(221,0,o),
(236,0,cs),
(343,0,o),
(421,44,o),
(421,141,cs),
(421,226,o),
(359,277,o),
(272,277,cs),
(219,277,o),
(184,267,o),
(153,253,c),
(123,272,o),
(87,309,o),
(87,353,cs),
(87,375,o),
(91,393,o),
(101,405,cs),
(119,429,o),
(147,438,o),
(204,438,cs),
(366,438,l),
(366,596,l),
(487,596,l),
(487,622,l),
(0,622,l),
(0,596,l),
(340,596,l),
(340,464,l),
(210,464,ls),
(130,464,o),
(99,447,o),
(78,418,cs),
(66,401,o),
(60,384,o),
(60,356,cs),
(60,293,o),
(106,253,o),
(150,224,c),
(189,245,o),
(228,251,o),
(270,251,cs)
);
}
);
width = 472;
},
{
anchors = (
{
name = Anchor2;
pos = (314,622);
}
);
layerId = "6C7CC43D-04A1-4971-B3B5-A41D54964AD2";
shapes = (
{
closed = 1;
nodes = (
(332,222,o),
(366,197,o),
(366,153,cs),
(366,94,o),
(312,68,o),
(219,68,cs),
(192,68,o),
(135,76,o),
(99,92,c),
(135,28,l),
(204,-19,o),
(289,-67,o),
(382,-110,c),
(415,-40,l),
(350,-20,o),
(289,2,o),
(241,25,c),
(173,93,o),
(138,116,o),
(101,116,cs),
(66,116,o),
(48,94,o),
(48,65,cs),
(48,20,o),
(101,4,o),
(185,1,c),
(199,0,o),
(214,0,o),
(230,0,cs),
(365,0,o),
(447,52,o),
(447,154,cs),
(447,240,o),
(374,294,o),
(275,294,cs),
(240,294,o),
(204,288,o),
(174,277,c),
(152,294,o),
(130,315,o),
(130,347,cs),
(130,361,o),
(135,373,o),
(145,381,cs),
(157,390,o),
(170,394,o),
(211,394,cs),
(395,394,l),
(395,551,l),
(505,551,l),
(505,622,l),
(0,622,l),
(0,551,l),
(314,551,l),
(314,465,l),
(221,465,ls),
(155,465,o),
(117,456,o),
(87,433,cs),
(64,416,o),
(50,389,o),
(50,352,cs),
(50,284,o),
(98,234,o),
(161,197,c),
(191,212,o),
(232,222,o),
(271,222,cs)
);
}
);
width = 491;
},
{
anchors = (
{
name = Anchor2;
pos = (295,622);
}
);
layerId = UUID0;
shapes = (
{
closed = 1;
nodes = (
(328,200,o),
(346,184,o),
(346,157,cs),
(346,123,o),
(307,103,o),
(230,103,cs),
(192,103,o),
(153,113,o),
(119,129,c),
(144,19,l),
(210,-29,o),
(304,-82,o),
(405,-127,c),
(450,-32,l),
(378,-9,o),
(297,21,o),
(257,43,c),
(199,117,o),
(156,149,o),
(104,149,cs),
(74,149,o),
(42,128,o),
(42,84,cs),
(42,12,o),
(111,0,o),
(214,0,cs),
(235,0,o),
(256,7,o),
(262,7,cs),
(403,7,o),
(481,56,o),
(481,152,cs),
(481,246,o),
(414,304,o),
(294,304,cs),
(251,304,o),
(219,300,o),
(191,292,c),
(180,303,o),
(172,314,o),
(172,329,cs),
(172,340,o),
(176,346,o),
(184,351,c),
(191,355,o),
(199,357,o),
(221,357,cs),
(429,357,l),
(429,512,l),
(532,512,l),
(532,622,l),
(0,622,l),
(0,512,l),
(295,512,l),
(295,456,l),
(231,456,ls),
(147,456,o),
(111,446,o),
(79,421,cs),
(56,402,o),
(41,374,o),
(41,333,cs),
(41,266,o),
(102,203,o),
(161,177,c),
(198,193,o),
(239,200,o),
(274,200,cs)
);
}
);
width = 518;
},
{
anchors = (
{
name = Anchor2;
pos = (284,622);
}
);
layerId = "C05809E0-FD9D-43C4-90EB-E9E886B1ADAB";
shapes = (
{
closed = 1;
nodes = (
(322,181,o),
(334,174,o),
(334,157,cs),
(334,139,o),
(313,126,o),
(248,126,cs),
(222,126,o),
(175,129,o),
(124,150,c),
(152,18,l),
(232,-34,o),
(333,-91,o),
(428,-132,c),
(484,-13,l),
(413,4,o),
(310,37,o),
(261,59,c),
(214,124,o),
(160,164,o),
(108,164,cs),
(73,164,o),
(34,147,o),
(34,92,cs),
(34,20,o),
(102,0,o),
(227,0,cs),
(258,0,o),
(259,6,o),
(265,6,cs),
(450,-3,o),
(512,71,o),
(512,153,cs),
(512,237,o),
(452,299,o),
(321,299,cs),
(276,299,o),
(254,295,o),
(225,290,c),
(216,299,o),
(210,306,o),
(210,317,cs),
(210,321,o),
(211,324,o),
(214,327,cs),
(218,331,o),
(225,333,o),
(238,333,cs),
(458,333,l),
(458,484,l),
(555,484,l),
(555,622,l),
(0,622,l),
(0,484,l),
(284,484,l),
(284,444,l),
(238,444,ls),
(139,444,o),
(107,436,o),
(75,409,cs),
(47,386,o),
(37,358,o),
(37,325,cs),
(37,254,o),
(103,196,o),
(169,166,c),
(202,176,o),
(243,181,o),
(273,181,cs)
);
}
);
width = 540;
},
{
anchors = (
{
name = Anchor2;
pos = (249,622);
}
);
layerId = "5CC745D4-D12D-435B-A472-7D28876E43BC";
shapes = (
{
closed = 1;
nodes = (
(247,251,o),
(288,218,o),
(288,142,cs),
(288,63,o),
(246,24,o),
(172,24,cs),
(146,24,o),
(123,28,o),
(94,38,c),
(107,23,l),
(155,-20,o),
(210,-63,o),
(272,-107,c),
(287,-85,l),
(237,-54,o),
(189,-19,o),
(151,12,c),
(125,52,o),
(97,75,o),
(72,75,cs),
(57,75,o),
(45,67,o),
(45,50,cs),
(45,15,o),
(92,5,o),
(138,2,cs),
(154,1,o),
(165,0,o),
(173,0,cs),
(262,0,o),
(315,48,o),
(315,142,cs),
(315,224,o),
(269,277,o),
(191,277,cs),
(167,277,o),
(144,272,o),
(124,264,c),
(103,286,o),
(73,321,o),
(73,367,cs),
(73,390,o),
(78,406,o),
(89,418,cs),
(103,432,o),
(121,438,o),
(161,438,cs),
(275,438,l),
(275,596,l),
(368,596,l),
(368,622,l),
(0,622,l),
(0,596,l),
(249,596,l),
(249,464,l),
(167,464,ls),
(111,464,o),
(87,454,o),
(69,435,cs),
(53,418,o),
(46,395,o),
(46,369,cs),
(46,313,o),
(84,264,o),
(117,235,c),
(142,246,o),
(165,251,o),
(192,251,cs)
);
}
);
width = 356;
},
{
anchors = (
{
name = Anchor2;
pos = (222,622);
}
);
layerId = "AA2163BC-B14D-4D16-A884-99BB623F1DBF";
shapes = (
{
closed = 1;
nodes = (
(236,225,o),
(258,193,o),
(258,147,cs),
(258,90,o),
(222,67,o),
(169,67,cs),
(145,67,o),
(111,75,o),
(86,90,c),
(103,28,l),
(154,-19,o),
(213,-66,o),
(280,-110,c),
(317,-47,l),
(268,-26,o),
(211,4,o),
(183,24,c),
(140,91,o),
(103,110,o),
(75,110,cs),
(49,110,o),
(32,92,o),
(32,64,cs),
(32,20,o),
(80,5,o),
(145,2,cs),
(158,1,o),
(171,1,o),
(174,1,cs),
(278,1,o),
(333,56,o),
(333,144,cs),
(333,233,o),
(283,293,o),
(196,293,cs),
(179,293,o),
(154,290,o),
(133,283,c),
(117,304,o),
(105,326,o),
(105,354,cs),
(105,365,o),
(108,377,o),
(114,383,cs),
(123,393,o),
(136,397,o),
(163,397,cs),
(297,397,l),
(297,554,l),
(378,554,l),
(378,622,l),
(0,622,l),
(0,554,l),
(222,554,l),
(222,465,l),
(178,465,ls),
(113,465,o),
(84,452,o),
(62,431,cs),
(43,413,o),
(32,387,o),
(32,356,cs),
(32,293,o),
(73,245,o),
(110,208,c),
(136,219,o),
(160,225,o),
(183,225,cs)
);
}
);
width = 366;
},
{
anchors = (
{
name = Anchor2;
pos = (215,622);
}
);
layerId = "9A082071-1CDF-4F9E-B116-82A287035C9D";
shapes = (
{
closed = 1;
nodes = (
(235,200,o),
(251,182,o),
(251,153,cs),
(251,118,o),
(229,101,o),
(182,101,cs),
(159,101,o),
(128,106,o),
(94,121,c),
(115,22,l),
(177,-30,o),
(240,-80,o),
(307,-122,c),
(358,-32,l),
(309,-14,o),
(232,21,o),
(197,42,c),
(165,110,o),
(125,141,o),
(85,141,cs),
(52,141,o),
(27,119,o),
(27,80,cs),
(27,18,o),
(82,2,o),
(167,1,c),
(174,1,o),
(189,3,o),
(193,3,cs),
(323,3,o),
(372,66,o),
(372,153,cs),
(372,235,o),
(323,297,o),
(220,297,cs),
(200,297,o),
(180,295,o),
(160,290,c),
(150,303,o),
(144,316,o),
(144,333,cs),
(144,340,o),
(146,348,o),
(150,351,cs),
(156,358,o),
(164,360,o),
(186,360,cs),
(334,360,l),
(334,514,l),
(411,514,l),
(411,622,l),
(0,622,l),
(0,514,l),
(215,514,l),
(215,453,l),
(183,453,ls),
(112,453,o),
(82,439,o),
(60,419,cs),
(38,399,o),
(27,371,o),
(27,338,cs),
(27,276,o),
(66,227,o),
(112,187,c),
(136,195,o),
(164,200,o),
(192,200,cs)
);
}
);
width = 399;
},
{
anchors = (
{
name = Anchor2;
pos = (210,622);
}
);
layerId = "6EDA54BC-5413-4E6E-9D6B-A24A39A704A7";
shapes = (
{
closed = 1;
nodes = (
(235,185,o),
(247,175,o),
(247,156,cs),
(247,135,o),
(234,123,o),
(190,123,cs),
(168,123,o),
(138,126,o),
(99,141,c),
(123,18,l),
(191,-37,o),
(257,-88,o),
(324,-130,c),
(383,-23,l),
(334,-6,o),
(245,31,o),
(206,53,c),
(181,122,o),
(139,160,o),
(92,160,cs),
(54,160,o),
(24,136,o),
(24,90,cs),
(24,17,o),
(84,0,o),
(180,0,cs),
(198,0,o),
(201,4,o),
(205,4,cs),
(352,4,o),
(397,72,o),
(397,158,cs),
(397,236,o),
(348,300,o),
(235,300,cs),
(213,300,o),
(196,298,o),
(177,294,c),
(171,303,o),
(168,310,o),
(168,320,cs),
(168,325,o),
(170,329,o),
(172,331,c),
(177,336,o),
(182,337,o),
(200,337,cs),
(357,337,l),
(357,489,l),
(432,489,l),
(432,622,l),
(0,622,l),
(0,489,l),
(210,489,l),
(210,446,l),
(186,446,ls),
(111,446,o),
(80,431,o),
(59,412,cs),
(35,391,o),
(24,361,o),
(24,326,cs),
(24,266,o),
(62,215,o),
(113,174,c),
(136,180,o),
(166,185,o),
(197,185,cs)
);
}
);
width = 420;
}
);
subCategory = Other;
unicode = 2311;
}
{
category = Letter;
glyphname = "u-deva";
kernLeft = "DEV_u-deva_L";
kernRight = "DEV_u-deva_R";
layers = (
{
anchors = (
{
name = bottom2;
pos = (376,-40);
},
{
name = candra;
pos = (298,622);
},
{
name = nukta;
pos = (254,-115);
},
{
name = top;
pos = (288,622);
}
);
layerId = "B871EA9A-50AC-43A6-961C-B7EB8764AD7C";
shapes = (
{
closed = 1;
nodes = (
(0,596,l),
(509,596,l),
(509,622,l),
(0,622,l)
);
},
{
closed = 1;
nodes = (
(283,605,l),
(339,573,o),
(373,536,o),
(373,473,cs),
(373,408,o),
(330,365,o),
(198,347,c),
(204,319,l),
(353,339,o),
(400,397,o),
(400,475,cs),
(400,537,o),
(362,584,o),
(305,616,c)
);
},
{
closed = 1;
nodes = (
(292,350,l),
(362,297,o),
(403,241,o),
(403,171,cs),
(403,90,o),
(349,47,o),
(275,47,cs),
(170,47,o),
(105,132,o),
(49,327,c),
(23,318,l),
(86,98,o),
(162,21,o),
(277,21,cs),
(369,21,o),
(430,78,o),
(430,168,cs),
(430,249,o),
(382,310,o),
(318,362,c)
);
}
);
width = 494;
},
{
anchors = (
{
name = bottom2;
pos = (366,-40);
},
{
name = candra;
pos = (353,622);
},
{
name = nukta;
pos = (282,-116);
},
{
name = top;
pos = (303,622);
}
);
layerId = "6C7CC43D-04A1-4971-B3B5-A41D54964AD2";
shapes = (
{
closed = 1;
nodes = (
(0,551,l),
(563,551,l),
(563,622,l),
(0,622,l)
);
},
{
closed = 1;
nodes = (
(312,563,l),
(359,545,o),
(390,506,o),
(390,458,cs),
(390,391,o),
(341,367,o),
(222,356,c),
(238,283,l),
(393,293,o),
(471,357,o),
(471,452,cs),
(471,497,o),
(453,535,o),
(418,563,c)
);
},
{
closed = 1;
nodes = (
(317,319,l),
(381,282,o),
(414,237,o),
(414,173,cs),
(414,107,o),
(370,74,o),
(308,74,cs),
(218,74,o),
(164,144,o),
(102,338,c),
(29,308,l),
(104,78,o),
(185,0,o),
(318,0,cs),
(424,0,o),
(499,62,o),
(499,168,cs),
(499,234,o),
(470,290,o),
(400,346,c)
);
}
);
width = 548;
},
{
anchors = (
{
name = bottom2;
pos = (366,-40);
},
{
name = candra;
pos = (379,622);
},
{
name = nukta;
pos = (318,-113);
},
{
name = top;
pos = (318,622);
}
);
layerId = "C05809E0-FD9D-43C4-90EB-E9E886B1ADAB";
shapes = (
{
closed = 1;
nodes = (
(0,484,l),
(624,484,l),
(624,622,l),
(0,622,l)
);
},
{
closed = 1;
nodes = (
(320,511,l),
(359,495,o),
(376,469,o),
(376,441,cs),
(376,402,o),
(342,389,o),
(263,384,c),
(286,254,l),
(449,262,o),
(553,324,o),
(553,426,cs),
(553,469,o),
(538,500,o),
(508,521,c)
);
},
{
closed = 1;
nodes = (
(348,288,l),
(387,261,o),
(403,231,o),
(403,197,cs),
(403,165,o),
(380,141,o),
(339,141,cs),
(267,141,o),
(215,218,o),
(161,366,c),
(24,302,l),
(111,66,o),
(218,0,o),
(366,0,cs),
(494,0,o),
(579,65,o),
(579,172,cs),
(579,232,o),
(556,281,o),
(491,337,c)
);
}
);
width = 609;
},
{
anchors = (
{
name = bottom2;
pos = (265,-40);
},
{
name = candra;
pos = (232,622);
},
{
name = nukta;
pos = (192,-115);
},
{
name = top;
pos = (218,622);
}
);
layerId = "5CC745D4-D12D-435B-A472-7D28876E43BC";
shapes = (
{
closed = 1;
nodes = (
(0,596,l),
(389,596,l),
(389,622,l),
(0,622,l)
);
},
{
closed = 1;
nodes = (
(212,605,l),
(254,573,o),
(279,533,o),
(279,473,cs),
(279,408,o),
(248,365,o),
(149,347,c),
(156,319,l),
(270,339,o),
(306,397,o),
(306,474,cs),
(306,532,o),
(280,580,o),
(241,613,c)
);
},
{
closed = 1;
nodes = (
(219,350,l),
(270,298,o),
(296,237,o),
(296,166,cs),
(296,85,o),
(259,42,o),
(206,42,cs),
(128,42,o),
(84,129,o),
(42,325,c),
(17,318,l),
(64,94,o),
(119,16,o),
(208,16,cs),
(279,16,o),
(323,69,o),
(323,164,cs),
(323,242,o),
(290,309,o),
(243,362,c)
);
}
);
width = 377;
},
{
anchors = (
{
name = bottom2;
pos = (275,-40);
},
{
name = candra;
pos = (266,622);
},
{
name = nukta;
pos = (211,-111);
},
{
name = top;
pos = (226,622);
}
);
layerId = "AA2163BC-B14D-4D16-A884-99BB623F1DBF";
shapes = (
{
closed = 1;
nodes = (
(0,554,l),
(428,554,l),
(428,622,l),
(0,622,l)
);
},
{
closed = 1;
nodes = (
(220,563,l),
(260,545,o),
(285,506,o),
(285,458,cs),
(285,390,o),
(251,370,o),
(168,359,c),
(180,288,l),
(301,298,o),
(361,356,o),
(361,449,cs),
(361,495,o),
(345,535,o),
(315,563,c)
);
},
{
closed = 1;
nodes = (
(230,319,l),
(276,285,o),
(304,230,o),
(304,163,cs),
(304,95,o),
(275,69,o),
(234,69,cs),
(172,69,o),
(132,144,o),
(93,328,c),
(22,308,l),
(75,72,o),
(136,0,o),
(242,0,cs),
(322,0,o),
(379,53,o),
(379,158,cs),
(379,227,o),
(351,293,o),
(301,346,c)
);
}
);
width = 410;
},
{
anchors = (
{
name = bottom2;
pos = (268,-40);
},
{
name = candra;
pos = (279,622);
},
{
name = nukta;
pos = (246,-121);
},
{
name = top;
pos = (233,622);
}
);
layerId = "6EDA54BC-5413-4E6E-9D6B-A24A39A704A7";
shapes = (
{
closed = 1;
nodes = (
(0,489,l),
(484,489,l),
(484,622,l),
(0,622,l)
);
},
{
closed = 1;
nodes = (
(236,505,l),
(269,491,o),
(283,467,o),
(283,442,cs),
(283,405,o),
(258,389,o),
(195,382,c),
(221,261,l),
(350,269,o),
(433,329,o),
(433,416,cs),
(433,457,o),
(418,489,o),
(390,515,c)
);
},
{
closed = 1;
nodes = (
(257,288,l),
(290,258,o),
(302,226,o),
(302,193,cs),
(302,158,o),
(286,136,o),
(255,136,cs),
(212,136,o),
(178,189,o),
(147,338,c),
(16,302,l),
(70,55,o),
(153,0,o),
(276,0,cs),
(383,0,o),
(452,66,o),
(452,162,cs),
(452,232,o),
(428,288,o),
(378,337,c)
);
}
);
width = 472;
}
);
script = devanagari;
subCategory = Other;
unicode = 2313;
}
{
category = Letter;
glyphname = udeva;
layers = (
{
anchors = (
{
name = Anchor2;
pos = (318,622);
},
{
name = Anchor8;
pos = (269,0);
}
);
layerId = "B871EA9A-50AC-43A6-961C-B7EB8764AD7C";
shapes = (
{
closed = 1;
nodes = (
(0,596,l),
(509,596,l),
(509,622,l),
(0,622,l)
);
},
{
closed = 1;
nodes = (
(297,605,l),
(353,577,o),
(387,533,o),
(387,476,cs),
(387,407,o),
(344,358,o),
(234,354,c),
(236,328,l),
(364,335,o),
(414,398,o),
(414,478,cs),
(414,538,o),
(377,591,o),
(316,616,c)
);
},
{
closed = 1;
nodes = (
(274,339,l),
(363,277,o),
(407,212,o),
(407,140,cs),
(407,50,o),
(352,26,o),
(292,26,cs),
(195,26,o),
(131,116,o),
(49,325,c),
(23,316,l),
(117,80,o),
(188,0,o),
(294,0,cs),
(378,0,o),
(434,48,o),
(434,137,cs),
(434,231,o),
(376,295,o),
(299,351,c)
);
}
);
width = 494;
},
{
anchors = (
{
name = Anchor2;
pos = (333,622);
},
{
name = Anchor8;
pos = (299,0);
}
);
layerId = "6C7CC43D-04A1-4971-B3B5-A41D54964AD2";
shapes = (
{
closed = 1;
nodes = (
(0,551,l),
(563,551,l),
(563,622,l),
(0,622,l)
);
},
{
closed = 1;
nodes = (
(321,563,l),
(367,551,o),
(404,515,o),
(404,463,cs),
(404,397,o),
(357,367,o),
(259,364,c),
(264,294,l),
(405,297,o),
(485,364,o),
(485,464,cs),
(485,544,o),
(414,609,o),
(313,616,cs)
);
},
{
closed = 1;
nodes = (
(298,322,l),
(371,275,o),
(414,224,o),
(414,160,cs),
(414,95,o),
(375,74,o),
(320,74,cs),
(227,74,o),
(156,181,o),
(100,338,c),
(29,313,l),
(117,84,o),
(214,0,o),
(328,0,cs),
(424,0,o),
(499,51,o),
(499,152,cs),
(499,242,o),
(441,300,o),
(387,345,c)
);
}
);
width = 548;
},
{
anchors = (
{
name = Anchor2;
pos = (347,622);
},
{
name = Anchor8;
pos = (328,0);
}
);
layerId = UUID0;
shapes = (
{
closed = 1;
nodes = (
(0,512,l),
(599,512,l),
(599,622,l),
(0,622,l)
);
},
{
closed = 1;
nodes = (
(301,544,l),
(345,529,o),
(392,500,o),
(392,455,cs),
(392,398,o),
(345,384,o),
(269,381,c),
(274,275,l),
(431,283,o),
(526,346,o),
(526,446,cs),
(526,547,o),
(414,609,o),
(320,618,cs)
);
},
{
closed = 1;
nodes = (
(315,299,l),
(376,261,o),
(408,227,o),
(408,174,cs),
(408,134,o),
(384,113,o),
(339,113,cs),
(260,113,o),
(202,192,o),
(135,355,c),
(20,312,l),
(121,76,o),
(214,0,o),
(350,0,cs),
(471,0,o),
(541,54,o),
(541,155,cs),
(541,231,o),
(489,294,o),
(439,336,c)
);
}
);
width = 584;
},
{
anchors = (
{
name = Anchor2;
pos = (358,622);
},
{
name = Anchor8;
pos = (327,0);
}
);
layerId = "C05809E0-FD9D-43C4-90EB-E9E886B1ADAB";
shapes = (
{
closed = 1;
nodes = (
(0,484,l),
(624,484,l),
(624,622,l),
(0,622,l)
);
},
{
closed = 1;
nodes = (
(296,521,l),
(345,503,o),
(382,480,o),
(382,441,cs),
(382,397,o),
(348,389,o),
(282,386,c),
(289,254,l),
(455,262,o),
(559,324,o),
(559,436,cs),
(559,546,o),
(414,609,o),
(326,619,cs)
);
},
{
closed = 1;
nodes = (
(328,288,l),
(373,261,o),
(403,228,o),
(403,184,cs),
(403,159,o),
(390,141,o),
(354,141,cs),
(278,141,o),
(217,226,o),
(161,366,c),
(14,311,l),
(114,66,o),
(234,0,o),
(367,0,cs),
(502,0,o),
(581,57,o),
(581,167,cs),
(581,234,o),
(536,296,o),
(481,336,c)
);
}
);
width = 609;
},
{
anchors = (
{
name = Anchor2;
pos = (238,622);
},
{
name = Anchor8;
pos = (204,0);
}
);
layerId = "5CC745D4-D12D-435B-A472-7D28876E43BC";
shapes = (
{
closed = 1;
nodes = (
(0,596,l),
(389,596,l),
(389,622,l),
(0,622,l)
);
},
{
closed = 1;
nodes = (
(214,603,l),
(267,570,o),
(289,525,o),
(289,480,cs),
(289,405,o),
(247,363,o),
(160,354,c),
(163,328,l),
(267,340,o),
(316,396,o),
(316,478,cs),
(316,540,o),
(281,591,o),
(232,616,c)
);
},
{
closed = 1;
nodes = (
(194,342,l),
(254,278,o),
(301,211,o),
(301,121,cs),
(301,48,o),
(263,26,o),
(224,26,cs),
(146,26,o),
(99,110,o),
(47,310,c),
(21,303,l),
(81,76,o),
(135,0,o),
(223,0,cs),
(289,0,o),
(328,45,o),
(328,120,cs),
(328,218,o),
(275,291,o),
(218,354,c)
);
}
);
width = 377;
},
{
anchors = (
{
name = Anchor2;
pos = (246,622);
},
{
name = Anchor8;
pos = (227,0);
}
);
layerId = "AA2163BC-B14D-4D16-A884-99BB623F1DBF";
shapes = (
{
closed = 1;
nodes = (
(0,554,l),
(422,554,l),
(422,622,l),
(0,622,l)
);
},
{
closed = 1;
nodes = (
(213,567,l),
(259,546,o),
(289,510,o),
(289,463,cs),
(289,398,o),
(250,373,o),
(177,363,c),
(186,296,l),
(296,312,o),
(364,361,o),
(364,461,cs),
(364,544,o),
(292,606,o),
(222,614,c)
);
},
{
closed = 1;
nodes = (
(211,321,l),
(258,273,o),
(298,213,o),
(298,147,cs),
(298,92,o),
(275,71,o),
(239,71,cs),
(174,71,o),
(132,169,o),
(88,331,c),
(19,313,l),
(81,83,o),
(141,0,o),
(246,0,cs),
(323,0,o),
(374,51,o),
(374,137,cs),
(374,237,o),
(322,298,o),
(285,343,c)
);
}
);
width = 410;
},
{
anchors = (
{
name = Anchor2;
pos = (264,622);
},
{
name = Anchor8;
pos = (239,0);
}
);
layerId = "9A082071-1CDF-4F9E-B116-82A287035C9D";
shapes = (
{
closed = 1;
nodes = (
(0,514,l),
(460,514,l),
(460,622,l),
(0,622,l)
);
},
{
closed = 1;
nodes = (
(216,533,l),
(258,513,o),
(284,492,o),
(284,449,cs),
(284,400,o),
(253,382,o),
(194,377,c),
(206,273,l),
(339,290,o),
(406,341,o),
(406,442,cs),
(406,542,o),
(303,601,o),
(238,610,c)
);
},
{
closed = 1;
nodes = (
(231,295,l),
(271,255,o),
(300,212,o),
(300,161,cs),
(300,129,o),
(287,111,o),
(258,111,cs),
(203,111,o),
(167,184,o),
(127,338,c),
(17,309,l),
(78,77,o),
(148,0,o),
(268,0,cs),
(362,0,o),
(422,54,o),
(422,149,cs),
(422,237,o),
(379,292,o),
(338,334,c)
);
}
);
width = 448;
},
{
anchors = (
{
name = Anchor2;
pos = (275,622);
},
{
name = Anchor8;
pos = (246,0);
}
);
layerId = "6EDA54BC-5413-4E6E-9D6B-A24A39A704A7";
shapes = (
{
closed = 1;
nodes = (
(0,489,l),
(484,489,l),
(484,622,l),
(0,622,l)
);
},
{
closed = 1;
nodes = (
(219,511,l),
(258,493,o),
(282,481,o),
(282,440,cs),
(282,402,o),
(255,388,o),
(205,385,c),
(219,258,l),
(366,277,o),
(432,328,o),
(432,430,cs),
(432,540,o),
(311,598,o),
(248,608,c)
);
},
{
closed = 1;
nodes = (
(243,278,l),
(278,244,o),
(301,211,o),
(301,170,cs),
(301,152,o),
(293,136,o),
(269,136,cs),
(220,136,o),
(188,193,o),
(150,342,c),
(15,307,l),
(75,74,o),
(152,0,o),
(281,0,cs),
(385,0,o),
(452,56,o),
(452,156,cs),
(452,237,o),
(414,289,o),
(371,329,c)
);
}
);
width = 472;
}
);
subCategory = Other;
unicode = 2313;
}
{
category = Letter;
glyphname = "uu-deva";
kernLeft = "DEV_u-deva_L";
kernRight = "DEV_uu-deva_R";
layers = (
{
anchors = (
{
name = bottom2;
pos = (376,-40);
},
{
name = candra;
pos = (332,622);
},
{
name = nukta;
pos = (254,-115);
},
{
name = top;
pos = (296,622);
}
);
layerId = "B871EA9A-50AC-43A6-961C-B7EB8764AD7C";
shapes = (
{
closed = 1;
nodes = (
(200,596,l),
(722,596,l),
(722,622,l),
(200,622,l)
);
},
{
closed = 1;
nodes = (
(406,250,l),
(436,294,o),
(471,326,o),
(530,326,cs),
(591,326,o),
(631,281,o),
(631,211,cs),
(631,141,o),
(600,89,o),
(541,37,c),
(562,18,l),
(626,77,o),
(658,135,o),
(658,211,cs),
(658,292,o),
(612,352,o),
(531,352,cs),
(468,352,o),
(426,321,o),
(391,274,c)
);
},
{
ref = "u-deva";
}
);
width = 707;
},
{
anchors = (
{
name = bottom2;
pos = (366,-40);
},
{
name = candra;
pos = (379,622);
},
{
name = nukta;
pos = (282,-116);
},
{
name = top;
pos = (313,622);
}
);
layerId = "6C7CC43D-04A1-4971-B3B5-A41D54964AD2";
shapes = (
{
closed = 1;
nodes = (
(300,551,l),
(800,551,l),
(800,622,l),
(300,622,l)
);
},
{
closed = 1;
nodes = (
(483,217,l),
(507,249,o),
(544,270,o),
(585,270,cs),
(634,270,o),
(668,242,o),
(668,181,cs),
(668,127,o),
(638,84,o),
(583,43,c),
(645,-10,l),
(721,51,o),
(749,111,o),
(749,181,cs),
(749,278,o),
(689,339,o),
(590,339,cs),
(527,339,o),
(480,315,o),
(444,274,c)
);
},
{
ref = "u-deva";
}
);
width = 785;
},
{
anchors = (
{
name = bottom2;
pos = (366,-40);
},
{
name = candra;
pos = (419,622);
},
{
name = nukta;
pos = (318,-113);
},
{
name = top;
pos = (328,622);
}
);
layerId = "C05809E0-FD9D-43C4-90EB-E9E886B1ADAB";
shapes = (
{
closed = 1;
nodes = (
(300,484,l),
(890,484,l),
(890,622,l),
(300,622,l)
);
},
{
closed = 1;
nodes = (
(568,176,l),
(581,203,o),
(605,220,o),
(631,220,cs),
(658,220,o),
(672,203,o),
(672,178,cs),
(672,144,o),
(647,108,o),
(612,76,c),
(757,-18,l),
(822,43,o),
(853,111,o),
(853,179,cs),
(853,290,o),
(779,359,o),
(666,359,cs),
(590,359,o),
(539,334,o),
(490,283,c)
);
},
{
ref = "u-deva";
}
);
width = 855;
},
{
anchors = (
{
name = bottom2;
pos = (265,-40);
},
{
name = candra;
pos = (261,622);
},
{
name = nukta;
pos = (192,-115);
},
{
name = top;
pos = (218,622);
}
);
layerId = "5CC745D4-D12D-435B-A472-7D28876E43BC";
shapes = (
{
closed = 1;
nodes = (
(150,596,l),
(532,596,l),
(532,622,l),
(150,622,l)
);
},
{
closed = 1;
nodes = (
(305,246,l),
(322,290,o),
(351,322,o),
(395,322,cs),
(443,322,o),
(464,280,o),
(464,211,cs),
(464,138,o),
(436,80,o),
(397,28,c),
(419,12,l),
(461,67,o),
(491,132,o),
(491,211,cs),
(491,291,o),
(463,348,o),
(395,348,cs),
(347,348,o),
(313,318,o),
(290,271,c)
);
},
{
ref = "u-deva";
}
);
width = 520;
},
{
anchors = (
{
name = bottom2;
pos = (275,-40);
},
{
name = candra;
pos = (296,622);
},
{
name = nukta;
pos = (211,-111);
},
{
name = top;
pos = (226,622);
}
);
layerId = "AA2163BC-B14D-4D16-A884-99BB623F1DBF";
shapes = (
{
closed = 1;
nodes = (
(228,554,l),
(608,554,l),
(608,622,l),
(228,622,l)
);
},
{
closed = 1;
nodes = (
(364,227,l),
(381,258,o),
(410,280,o),
(439,280,cs),
(475,280,o),
(494,249,o),
(494,190,cs),
(494,131,o),
(469,80,o),
(427,30,c),
(491,-10,l),
(545,50,o),
(569,117,o),
(569,193,cs),
(569,289,o),
(525,349,o),
(447,349,cs),
(400,349,o),
(360,328,o),
(332,287,c)
);
},
{
ref = "u-deva";
}
);
width = 594;
},
{
anchors = (
{
name = bottom2;
pos = (268,-40);
},
{
name = candra;
pos = (319,622);
},
{
name = nukta;
pos = (246,-121);
},
{
name = top;
pos = (253,622);
}
);
layerId = "6EDA54BC-5413-4E6E-9D6B-A24A39A704A7";
shapes = (
{
closed = 1;
nodes = (
(234,489,l),
(689,489,l),
(689,622,l),
(234,622,l)
);
},
{
closed = 1;
nodes = (
(445,176,l),
(454,205,o),
(472,220,o),
(491,220,cs),
(513,220,o),
(520,204,o),
(520,179,cs),
(520,137,o),
(497,92,o),
(464,51,c),
(595,-15,l),
(644,48,o),
(670,118,o),
(670,191,cs),
(670,295,o),
(620,355,o),
(526,355,cs),
(465,355,o),
(415,330,o),
(382,269,c)
);
},
{
ref = "u-deva";
}
);
width = 677;
}
);
script = devanagari;
subCategory = Other;
unicode = 2314;
}
{
category = Letter;
glyphname = "rVocalic-deva";
kernLeft = "DEV_rVocalic-deva_L";
kernRight = "DEV_rVocalic-deva_R";
layers = (
{
anchors = (
{
name = bottom2;
pos = (498,-40);
},
{
name = candra;
pos = (381,622);
},
{
name = nukta;
pos = (227,-81);
},
{
name = top;
pos = (371,622);
}
);
layerId = "B871EA9A-50AC-43A6-961C-B7EB8764AD7C";
shapes = (
{
closed = 1;
nodes = (
(397,0,l),
(397,596,l),
(800,596,l),
(800,622,l),
(0,622,l),
(0,596,l),
(371,596,l),
(371,0,l)
);
},
{
closed = 1;
nodes = (
(380,271,l),
(363,288,l),
(56,132,l),
(69,108,l)
);
},
{
closed = 1;
nodes = (
(380,264,l),
(388,281,l),
(295,425,o),
(247,461,o),
(169,461,cs),
(122,461,o),
(77,449,o),
(27,426,c),
(37,400,l),
(88,425,o),
(124,435,o),
(168,435,cs),
(239,435,o),
(275,408,o),
(370,267,c)
);
},
{
closed = 1;
nodes = (
(696,-13,o),
(731,-2,o),
(762,19,c),
(751,42,l),
(718,22,o),
(688,13,o),
(653,13,cs),
(595,13,o),
(551,45,o),
(551,111,cs),
(551,181,o),
(600,208,o),
(674,223,c),
(663,246,l),
(575,228,o),
(524,187,o),
(524,111,cs),
(524,35,o),
(578,-13,o),
(654,-13,cs)
);
},
{
closed = 1;
nodes = (
(460,282,o),
(538,316,o),
(585,353,c),
(593,359,l),
(623,378,o),
(638,396,o),
(638,420,cs),
(638,446,o),
(618,467,o),
(588,467,cs),
(560,467,o),
(545,451,o),
(545,427,cs),
(545,407,o),
(552,389,o),
(567,367,c),
(581,382,l),
(535,341,o),
(455,306,o),
(388,296,c),
(389,270,l)
);
},
{
closed = 1;
nodes = (
(674,223,l),
(682,243,l),
(652,278,o),
(624,315,o),
(592,375,c),
(573,361,l),
(602,305,o),
(639,252,o),
(664,225,c)
);
}
);
width = 785;
},
{
anchors = (
{
name = bottom2;
pos = (514,-40);
},
{
name = candra;
pos = (421,622);
},
{
name = nukta;
pos = (237,-68);
},
{
name = top;
pos = (381,622);
}
);
layerId = "6C7CC43D-04A1-4971-B3B5-A41D54964AD2";
shapes = (
{
closed = 1;
nodes = (
(462,0,l),
(462,551,l),
(867,551,l),
(867,622,l),
(0,622,l),
(0,551,l),
(382,551,l),
(382,0,l)
);
},
{
closed = 1;
nodes = (
(408,237,l),
(370,295,l),
(58,141,l),
(101,69,l)
);
},
{
closed = 1;
nodes = (
(397,261,l),
(405,285,l),
(319,415,o),
(266,456,o),
(179,456,cs),
(124,456,o),
(73,441,o),
(27,418,c),
(55,343,l),
(104,368,o),
(145,380,o),
(181,380,cs),
(242,380,o),
(276,347,o),
(343,245,c)
);
},
{
closed = 1;
nodes = (
(759,-36,o),
(806,-22,o),
(840,1,c),
(813,67,l),
(774,45,o),
(744,35,o),
(705,35,cs),
(656,35,o),
(621,54,o),
(621,96,cs),
(621,144,o),
(663,169,o),
(754,178,c),
(710,238,l),
(601,219,o),
(547,179,o),
(547,101,cs),
(547,14,o),
(610,-36,o),
(708,-36,cs)
);
},
{
closed = 1;
nodes = (
(525,244,o),
(613,271,o),
(665,304,c),
(681,307,l),
(716,329,o),
(731,352,o),
(731,384,cs),
(731,424,o),
(705,462,o),
(652,462,cs),
(610,462,o),
(580,439,o),
(580,399,cs),
(580,376,o),
(588,356,o),
(604,337,c),
(618,363,l),
(572,330,o),
(508,317,o),
(442,313,c),
(445,242,l)
);
},
{
closed = 1;
nodes = (
(754,178,l),
(765,211,l),
(743,241,o),
(706,293,o),
(686,340,c),
(622,314,l),
(640,271,o),
(683,204,o),
(706,178,c)
);
}
);
width = 853;
},
{
anchors = (
{
name = bottom2;
pos = (513,-40);
},
{
name = candra;
pos = (475,622);
},
{
name = nukta;
pos = (257,-81);
},
{
name = top;
pos = (386,622);
}
);
layerId = "C05809E0-FD9D-43C4-90EB-E9E886B1ADAB";
shapes = (
{
closed = 1;
nodes = (
(567,0,l),
(567,484,l),
(992,484,l),
(992,622,l),
(0,622,l),
(0,484,l),
(390,484,l),
(390,0,l)
);
},
{
closed = 1;
nodes = (
(476,186,l),
(381,281,l),
(60,156,l),
(129,14,l)
);
},
{
closed = 1;
nodes = (
(416,267,l),
(416,302,l),
(335,404,o),
(290,435,o),
(205,435,cs),
(146,435,o),
(89,420,o),
(24,389,c),
(79,252,l),
(136,280,o),
(169,292,o),
(209,292,cs),
(247,292,o),
(267,280,o),
(310,238,c)
);
},
{
closed = 1;
nodes = (
(888,-70,o),
(938,-56,o),
(979,-29,c),
(933,82,l),
(900,63,o),
(869,53,o),
(836,53,cs),
(805,53,o),
(787,64,o),
(787,83,cs),
(787,109,o),
(820,121,o),
(878,129,c),
(803,219,l),
(694,203,o),
(629,163,o),
(629,76,cs),
(629,-15,o),
(706,-70,o),
(820,-70,cs)
);
},
{
closed = 1;
nodes = (
(624,192,o),
(721,219,o),
(769,259,c),
(815,267,l),
(856,293,o),
(869,325,o),
(869,356,cs),
(869,402,o),
(834,450,o),
(760,450,cs),
(697,450,o),
(655,420,o),
(655,367,cs),
(655,352,o),
(658,339,o),
(662,329,c),
(686,367,l),
(658,345,o),
(607,327,o),
(536,327,c),
(537,189,l)
);
},
{
closed = 1;
nodes = (
(878,129,l),
(903,172,l),
(869,217,o),
(841,262,o),
(826,304,c),
(699,257,l),
(708,220,o),
(740,164,o),
(779,121,c)
);
}
);
width = 977;
},
{
anchors = (
{
name = bottom2;
pos = (371,-40);
},
{
name = candra;
pos = (290,622);
},
{
name = nukta;
pos = (172,-71);
},
{
name = top;
pos = (276,622);
}
);
layerId = "5CC745D4-D12D-435B-A472-7D28876E43BC";
shapes = (
{
closed = 1;
nodes = (
(302,0,l),
(302,596,l),
(601,596,l),
(601,622,l),
(0,622,l),
(0,596,l),
(276,596,l),
(276,0,l)
);
},
{
closed = 1;
nodes = (
(283,280,l),
(273,303,l),
(49,131,l),
(67,109,l)
);
},
{
closed = 1;
nodes = (
(283,274,l),
(289,288,l),
(210,426,o),
(181,455,o),
(128,455,cs),
(92,455,o),
(57,441,o),
(19,415,c),
(34,391,l),
(67,414,o),
(95,429,o),
(128,429,cs),
(170,429,o),
(191,406,o),
(269,276,c)
);
},
{
closed = 1;
nodes = (
(534,-13,o),
(559,-4,o),
(580,12,c),
(569,36,l),
(548,21,o),
(528,13,o),
(502,13,cs),
(454,13,o),
(424,45,o),
(424,111,cs),
(424,185,o),
(461,208,o),
(518,223,c),
(509,247,l),
(439,229,o),
(397,192,o),
(397,111,cs),
(397,32,o),
(437,-13,o),
(504,-13,cs)
);
},
{
closed = 1;
nodes = (
(351,287,o),
(415,316,o),
(448,342,c),
(454,347,l),
(480,364,o),
(490,384,o),
(490,407,cs),
(490,434,o),
(474,458,o),
(448,458,cs),
(425,458,o),
(411,442,o),
(411,418,cs),
(411,398,o),
(417,379,o),
(431,356,c),
(447,374,l),
(414,344,o),
(348,311,o),
(294,303,c),
(295,277,l)
);
},
{
closed = 1;
nodes = (
(518,223,l),
(524,243,l),
(497,277,o),
(473,316,o),
(452,366,c),
(434,351,l),
(456,302,o),
(483,255,o),
(509,225,c)
);
}
);
width = 589;
},
{
anchors = (
{
name = bottom2;
pos = (365,-40);
},
{
name = candra;
pos = (317,622);
},
{
name = nukta;
pos = (177,-71);
},
{
name = top;
pos = (278,622);
}
);
layerId = "AA2163BC-B14D-4D16-A884-99BB623F1DBF";
shapes = (
{
closed = 1;
nodes = (
(353,0,l),
(353,554,l),
(649,554,l),
(649,622,l),
(0,622,l),
(0,554,l),
(278,554,l),
(278,0,l)
);
},
{
closed = 1;
nodes = (
(307,251,l),
(262,298,l),
(40,145,l),
(83,82,l)
);
},
{
closed = 1;
nodes = (
(291,264,l),
(292,294,l),
(225,417,o),
(197,450,o),
(134,450,cs),
(94,450,o),
(54,436,o),
(16,413,c),
(43,346,l),
(75,365,o),
(108,379,o),
(131,379,cs),
(166,379,o),
(183,361,o),
(247,250,c)
);
},
{
closed = 1;
nodes = (
(582,-27,o),
(614,-16,o),
(638,2,c),
(612,65,l),
(590,51,o),
(570,44,o),
(548,44,cs),
(516,44,o),
(493,61,o),
(493,101,cs),
(493,144,o),
(519,166,o),
(576,175,c),
(544,236,l),
(460,217,o),
(418,179,o),
(418,103,cs),
(418,20,o),
(468,-27,o),
(544,-27,cs)
);
},
{
closed = 1;
nodes = (
(403,252,o),
(468,280,o),
(505,308,c),
(517,315,l),
(543,336,o),
(553,358,o),
(553,386,cs),
(553,424,o),
(528,456,o),
(489,456,cs),
(455,456,o),
(430,437,o),
(430,399,cs),
(430,379,o),
(436,358,o),
(449,336,c),
(471,371,l),
(438,341,o),
(390,321,o),
(342,314,c),
(344,246,l)
);
},
{
closed = 1;
nodes = (
(576,175,l),
(584,208,l),
(562,242,o),
(528,299,o),
(513,347,c),
(458,321,l),
(473,270,o),
(504,213,o),
(533,175,c)
);
}
);
width = 637;
},
{
anchors = (
{
name = bottom2;
pos = (382,-40);
},
{
name = candra;
pos = (364,622);
},
{
name = nukta;
pos = (197,-71);
},
{
name = top;
pos = (294,622);
}
);
layerId = "6EDA54BC-5413-4E6E-9D6B-A24A39A704A7";
shapes = (
{
closed = 1;
nodes = (
(444,0,l),
(444,489,l),
(769,489,l),
(769,622,l),
(0,622,l),
(0,489,l),
(295,489,l),
(295,0,l)
);
},
{
closed = 1;
nodes = (
(364,192,l),
(295,284,l),
(30,151,l),
(102,29,l)
);
},
{
closed = 1;
nodes = (
(315,268,l),
(311,301,l),
(249,396,o),
(218,431,o),
(147,431,cs),
(102,431,o),
(60,418,o),
(16,395,c),
(62,266,l),
(91,282,o),
(121,294,o),
(149,294,cs),
(176,294,o),
(190,285,o),
(220,239,c)
);
},
{
closed = 1;
nodes = (
(690,-67,o),
(732,-53,o),
(766,-29,c),
(724,75,l),
(697,59,o),
(674,53,o),
(652,53,cs),
(627,53,o),
(613,61,o),
(613,80,cs),
(613,105,o),
(642,116,o),
(684,124,c),
(626,211,l),
(536,196,o),
(482,155,o),
(482,74,cs),
(482,-15,o),
(545,-67,o),
(639,-67,cs)
);
},
{
closed = 1;
nodes = (
(486,202,o),
(551,221,o),
(591,243,c),
(627,255,l),
(667,280,o),
(676,314,o),
(676,345,cs),
(676,392,o),
(647,437,o),
(587,437,cs),
(537,437,o),
(504,412,o),
(504,361,cs),
(504,347,o),
(506,337,o),
(510,323,c),
(526,349,l),
(503,337,o),
(467,327,o),
(419,327,c),
(423,200,l)
);
},
{
closed = 1;
nodes = (
(684,124,l),
(704,167,l),
(671,209,o),
(642,255,o),
(630,296,c),
(530,249,l),
(539,212,o),
(571,156,o),
(606,116,c)
);
}
);
width = 757;
}
);
script = devanagari;
subCategory = Other;
unicode = 2315;
}
{
category = Letter;
glyphname = rvocalicdeva;
layers = (
{
anchors = (
{
name = Anchor2;
pos = (371,622);
},
{
name = Anchor8;
pos = (384,0);
}
);
layerId = "B871EA9A-50AC-43A6-961C-B7EB8764AD7C";
shapes = (
{
closed = 1;
nodes = (
(800,596,l),
(800,622,l),
(0,622,l),
(0,596,l),
(371,596,l),
(371,0,l),
(397,0,l),
(397,596,l)
);
},
{
closed = 1;
nodes = (
(36,401,l),
(88,425,o),
(124,435,o),
(168,435,cs),
(239,435,o),
(275,413,o),
(370,282,c),
(380,279,l),
(388,296,l),
(298,426,o),
(247,461,o),
(167,461,cs),
(114,461,o),
(76,447,o),
(26,425,c)
);
},
{
closed = 1;
nodes = (
(380,286,l),
(363,303,l),
(90,124,l),
(105,101,l)
);
},
{
closed = 1;
nodes = (
(388,299,l),
(444,299,o),
(520,310,o),
(573,325,c),
(585,296,o),
(617,247,o),
(633,225,c),
(644,223,l),
(652,243,l),
(634,269,o),
(616,296,o),
(599,331,c),
(627,338,o),
(646,352,o),
(646,379,cs),
(646,407,o),
(625,428,o),
(594,428,cs),
(568,428,o),
(554,409,o),
(554,387,cs),
(554,370,o),
(558,354,o),
(569,337,c),
(576,352,l),
(526,336,o),
(451,325,o),
(379,325,c)
);
},
{
closed = 1;
nodes = (
(773,43,l),
(728,19,o),
(700,12,o),
(660,12,cs),
(603,12,o),
(551,38,o),
(551,114,cs),
(551,168,o),
(586,206,o),
(644,223,c),
(633,246,l),
(563,225,o),
(524,174,o),
(524,114,cs),
(524,33,o),
(582,-14,o),
(661,-14,cs),
(701,-14,o),
(738,-5,o),
(782,18,c)
);
}
);
width = 785;
},
{
anchors = (
{
name = Anchor2;
pos = (382,622);
},
{
name = Anchor8;
pos = (422,0);
}
);
layerId = "6C7CC43D-04A1-4971-B3B5-A41D54964AD2";
shapes = (
{
closed = 1;
nodes = (
(867,551,l),
(867,622,l),
(0,622,l),
(0,551,l),
(382,551,l),
(382,0,l),
(462,0,l),
(462,551,l)
);
},
{
closed = 1;
nodes = (
(55,343,l),
(110,371,o),
(143,380,o),
(181,380,cs),
(242,380,o),
(276,347,o),
(343,258,c),
(382,266,l),
(403,298,l),
(317,415,o),
(266,456,o),
(179,456,cs),
(120,456,o),
(72,438,o),
(27,417,c)
);
},
{
closed = 1;
nodes = (
(408,251,l),
(369,307,l),
(80,132,l),
(127,65,l)
);
},
{
closed = 1;
nodes = (
(455,260,l),
(504,261,o),
(579,273,o),
(613,286,c),
(625,259,o),
(655,209,o),
(671,184,c),
(719,184,l),
(730,217,l),
(713,242,o),
(694,271,o),
(676,303,c),
(702,314,o),
(724,336,o),
(724,373,cs),
(724,417,o),
(692,450,o),
(641,450,cs),
(607,450,o),
(574,430,o),
(574,387,cs),
(574,370,o),
(579,354,o),
(588,338,c),
(588,347,l),
(557,337,o),
(495,330,o),
(442,328,c)
);
},
{
closed = 1;
nodes = (
(814,70,l),
(769,46,o),
(743,37,o),
(701,37,cs),
(660,37,o),
(621,56,o),
(621,102,cs),
(621,146,o),
(649,173,o),
(719,184,c),
(675,245,l),
(590,226,o),
(547,170,o),
(547,107,cs),
(547,24,o),
(606,-34,o),
(707,-34,cs),
(761,-34,o),
(805,-17,o),
(840,0,c)
);
}
);
width = 853;
},
{
anchors = (
{
name = Anchor2;
pos = (387,622);
},
{
name = Anchor8;
pos = (454,0);
}
);
layerId = UUID0;
shapes = (
{
closed = 1;
nodes = (
(932,512,l),
(932,622,l),
(0,622,l),
(0,512,l),
(387,512,l),
(387,0,l),
(521,0,l),
(521,512,l)
);
},
{
closed = 1;
nodes = (
(69,292,l),
(125,319,o),
(158,329,o),
(196,329,cs),
(244,329,o),
(272,307,o),
(327,246,c),
(378,264,l),
(411,302,l),
(324,411,o),
(280,443,o),
(194,443,cs),
(135,443,o),
(83,426,o),
(26,399,c)
);
},
{
closed = 1;
nodes = (
(443,231,l),
(378,313,l),
(62,136,l),
(130,42,l)
);
},
{
closed = 1;
nodes = (
(501,224,l),
(561,227,o),
(625,236,o),
(669,250,c),
(681,225,o),
(704,184,o),
(722,155,c),
(808,150,l),
(832,187,l),
(805,224,o),
(784,250,o),
(764,283,c),
(786,295,o),
(803,320,o),
(803,354,cs),
(803,399,o),
(774,441,o),
(709,441,cs),
(664,441,o),
(623,416,o),
(623,365,cs),
(623,349,o),
(627,334,o),
(633,322,c),
(645,348,l),
(610,337,o),
(544,330,o),
(497,327,c)
);
},
{
closed = 1;
nodes = (
(885,78,l),
(839,54,o),
(811,46,o),
(780,46,cs),
(740,46,o),
(719,63,o),
(719,93,cs),
(719,122,o),
(739,147,o),
(808,150,c),
(702,228,l),
(634,199,o),
(601,155,o),
(601,91,cs),
(601,4,o),
(674,-54,o),
(774,-54,cs),
(842,-54,o),
(889,-37,o),
(924,-20,c)
);
}
);
width = 918;
},
{
anchors = (
{
name = Anchor2;
pos = (390,622);
},
{
name = Anchor8;
pos = (478,0);
}
);
layerId = "C05809E0-FD9D-43C4-90EB-E9E886B1ADAB";
shapes = (
{
closed = 1;
nodes = (
(992,484,l),
(992,622,l),
(0,622,l),
(0,484,l),
(390,484,l),
(390,0,l),
(567,0,l),
(567,484,l)
);
},
{
closed = 1;
nodes = (
(79,252,l),
(136,280,o),
(169,292,o),
(209,292,cs),
(247,292,o),
(267,280,o),
(310,238,c),
(416,267,l),
(416,302,l),
(335,404,o),
(290,435,o),
(205,435,cs),
(146,435,o),
(91,418,o),
(24,387,c)
);
},
{
closed = 1;
nodes = (
(476,216,l),
(359,293,l),
(52,134,l),
(137,15,l)
);
},
{
closed = 1;
nodes = (
(533,198,l),
(602,201,o),
(659,209,o),
(710,225,c),
(722,202,o),
(742,164,o),
(762,132,c),
(857,140,l),
(888,183,l),
(862,217,o),
(847,241,o),
(830,269,c),
(849,281,o),
(862,309,o),
(862,340,cs),
(862,386,o),
(833,435,o),
(756,435,cs),
(705,435,o),
(657,406,o),
(657,349,cs),
(657,334,o),
(661,320,o),
(664,311,c),
(686,349,l),
(647,332,o),
(581,328,o),
(536,326,c)
);
},
{
closed = 1;
nodes = (
(941,85,l),
(898,64,o),
(872,56,o),
(841,56,cs),
(811,56,o),
(795,70,o),
(795,93,cs),
(795,111,o),
(804,133,o),
(857,140,c),
(772,236,l),
(716,221,o),
(637,188,o),
(637,91,cs),
(637,-6,o),
(717,-67,o),
(824,-67,cs),
(897,-67,o),
(950,-46,o),
(988,-30,c)
);
}
);
width = 977;
},
{
anchors = (
{
name = Anchor2;
pos = (276,622);
},
{
name = Anchor8;
pos = (289,0);
}
);
layerId = "5CC745D4-D12D-435B-A472-7D28876E43BC";
shapes = (
{
closed = 1;
nodes = (
(601,596,l),
(601,622,l),
(0,622,l),
(0,596,l),
(276,596,l),
(276,0,l),
(302,0,l),
(302,596,l)
);
},
{
closed = 1;
nodes = (
(33,402,l),
(66,420,o),
(91,429,o),
(119,429,cs),
(171,429,o),
(192,410,o),
(269,284,c),
(284,282,l),
(289,296,l),
(209,431,o),
(181,455,o),
(119,455,cs),
(90,455,o),
(59,445,o),
(21,425,c)
);
},
{
closed = 1;
nodes = (
(283,288,l),
(273,311,l),
(67,127,l),
(86,107,l)
);
},
{
closed = 1;
nodes = (
(296,299,l),
(335,299,o),
(386,307,o),
(424,322,c),
(435,294,o),
(456,246,o),
(470,222,c),
(483,220,l),
(489,240,l),
(474,268,o),
(459,297,o),
(447,330,c),
(471,338,o),
(486,352,o),
(486,379,cs),
(486,405,o),
(471,428,o),
(446,428,cs),
(422,428,o),
(409,409,o),
(409,387,cs),
(409,370,o),
(412,354,o),
(420,337,c),
(427,352,l),
(390,336,o),
(338,325,o),
(288,325,c)
);
},
{
closed = 1;
nodes = (
(577,37,l),
(545,18,o),
(522,12,o),
(492,12,cs),
(446,12,o),
(402,36,o),
(402,111,cs),
(402,170,o),
(439,204,o),
(483,220,c),
(470,242,l),
(417,221,o),
(376,180,o),
(376,111,cs),
(376,30,o),
(425,-14,o),
(494,-14,cs),
(525,-14,o),
(557,-6,o),
(588,13,c)
);
}
);
width = 589;
},
{
anchors = (
{
name = Anchor2;
pos = (278,622);
},
{
name = Anchor8;
pos = (315,0);
}
);
layerId = "AA2163BC-B14D-4D16-A884-99BB623F1DBF";
shapes = (
{
closed = 1;
nodes = (
(649,554,l),
(649,622,l),
(0,622,l),
(0,554,l),
(278,554,l),
(278,0,l),
(353,0,l),
(353,554,l)
);
},
{
closed = 1;
nodes = (
(43,353,l),
(73,370,o),
(98,379,o),
(122,379,cs),
(166,379,o),
(179,361,o),
(247,260,c),
(291,274,l),
(292,304,l),
(224,416,o),
(197,450,o),
(124,450,cs),
(87,450,o),
(56,439,o),
(16,419,c)
);
},
{
closed = 1;
nodes = (
(307,261,l),
(262,307,l),
(53,141,l),
(104,81,l)
);
},
{
closed = 1;
nodes = (
(344,263,l),
(383,265,o),
(429,275,o),
(457,285,c),
(467,257,o),
(487,212,o),
(500,187,c),
(545,189,l),
(558,219,l),
(543,244,o),
(529,273,o),
(515,305,c),
(537,317,o),
(552,337,o),
(552,371,cs),
(552,414,o),
(529,448,o),
(485,448,cs),
(456,448,o),
(430,428,o),
(430,387,cs),
(430,370,o),
(434,354,o),
(439,338,c),
(443,347,l),
(419,337,o),
(373,330,o),
(338,328,c)
);
},
{
closed = 1;
nodes = (
(613,59,l),
(587,45,o),
(567,36,o),
(534,36,cs),
(504,36,o),
(472,55,o),
(472,104,cs),
(472,151,o),
(507,176,o),
(545,189,c),
(497,244,l),
(436,220,o),
(401,171,o),
(401,106,cs),
(401,25,o),
(450,-33,o),
(535,-33,cs),
(581,-33,o),
(609,-21,o),
(642,-5,c)
);
}
);
width = 637;
},
{
anchors = (
{
name = Anchor2;
pos = (288,622);
},
{
name = Anchor8;
pos = (348,0);
}
);
layerId = "9A082071-1CDF-4F9E-B116-82A287035C9D";
shapes = (
{
closed = 1;
nodes = (
(723,514,l),
(723,622,l),
(0,622,l),
(0,514,l),
(288,514,l),
(288,0,l),
(409,0,l),
(409,514,l)
);
},
{
closed = 1;
nodes = (
(55,300,l),
(84,316,o),
(110,327,o),
(137,327,cs),
(170,327,o),
(185,316,o),
(230,247,c),
(306,270,l),
(304,302,l),
(244,401,o),
(214,438,o),
(138,438,cs),
(96,438,o),
(58,425,o),
(16,404,c)
);
},
{
closed = 1;
nodes = (
(341,235,l),
(265,297,l),
(41,137,l),
(112,47,l)
);
},
{
closed = 1;
nodes = (
(386,226,l),
(435,229,o),
(473,236,o),
(509,249,c),
(519,224,o),
(537,185,o),
(551,156,c),
(617,155,l),
(638,192,l),
(621,222,o),
(606,253,o),
(593,283,c),
(612,296,o),
(625,321,o),
(625,354,cs),
(625,398,o),
(601,441,o),
(545,441,cs),
(509,441,o),
(475,416,o),
(475,365,cs),
(475,350,o),
(478,334,o),
(482,322,c),
(495,348,l),
(468,335,o),
(420,329,o),
(387,327,c)
);
},
{
closed = 1;
nodes = (
(683,66,l),
(656,52,o),
(634,45,o),
(609,45,cs),
(587,45,o),
(560,56,o),
(560,92,cs),
(560,126,o),
(588,145,o),
(617,155,c),
(558,243,l),
(503,222,o),
(450,178,o),
(450,95,cs),
(450,5,o),
(508,-55,o),
(596,-55,cs),
(648,-55,o),
(687,-41,o),
(722,-24,c)
);
}
);
width = 711;
},
{
anchors = (
{
name = Anchor2;
pos = (295,622);
},
{
name = Anchor8;
pos = (369,0);
}
);
layerId = "6EDA54BC-5413-4E6E-9D6B-A24A39A704A7";
shapes = (
{
closed = 1;
nodes = (
(769,489,l),
(769,622,l),
(0,622,l),
(0,489,l),
(295,489,l),
(295,0,l),
(444,0,l),
(444,489,l)
);
},
{
closed = 1;
nodes = (
(62,266,l),
(91,282,o),
(118,294,o),
(147,294,cs),
(173,294,o),
(189,287,o),
(220,239,c),
(315,268,l),
(311,301,l),
(257,391,o),
(224,431,o),
(147,431,cs),
(102,431,o),
(60,417,o),
(16,395,c)
);
},
{
closed = 1;
nodes = (
(363,219,l),
(268,290,l),
(34,135,l),
(118,26,l)
);
},
{
closed = 1;
nodes = (
(413,203,l),
(468,206,o),
(502,211,o),
(543,227,c),
(552,203,o),
(569,168,o),
(584,136,c),
(663,134,l),
(689,175,l),
(670,209,o),
(655,241,o),
(642,269,c),
(660,283,o),
(671,311,o),
(671,343,cs),
(671,388,o),
(647,436,o),
(583,436,cs),
(543,436,o),
(504,408,o),
(504,352,cs),
(504,337,o),
(507,322,o),
(510,312,c),
(529,349,l),
(499,333,o),
(450,328,o),
(419,326,c)
);
},
{
closed = 1;
nodes = (
(727,71,l),
(699,56,o),
(677,51,o),
(656,51,cs),
(639,51,o),
(616,57,o),
(616,85,cs),
(616,111,o),
(639,126,o),
(663,134,c),
(596,242,l),
(545,224,o),
(481,182,o),
(481,88,cs),
(481,-7,o),
(544,-68,o),
(635,-68,cs),
(691,-68,o),
(736,-53,o),
(773,-36,c)
);
}
);
width = 757;
}
);
subCategory = Other;
unicode = 2315;
}
{
category = Letter;
glyphname = "lVocalic-deva";
kernLeft = "DEV_lVocalic-deva_L";
kernRight = "DEV_lVocalic-deva_R";
layers = (
{
anchors = (
{
name = bottom2;
pos = (451,-120);
},
{
name = candra;
pos = (458,622);
},
{
name = nukta;
pos = (188,-119);
},
{
name = top;
pos = (448,622);
}
);
layerId = "B871EA9A-50AC-43A6-961C-B7EB8764AD7C";
shapes = (
{
closed = 1;
nodes = (
(474,596,l),
(645,596,l),
(645,622,l),
(0,622,l),
(0,596,l),
(448,596,l),
(448,420,l),
(474,408,l)
);
},
{
closed = 1;
nodes = (
(258,11,l),
(146,95,o),
(80,169,o),
(80,271,cs),
(80,353,o),
(125,402,o),
(207,402,cs),
(257,402,o),
(292,382,o),
(324,346,c),
(340,365,l),
(302,407,o),
(261,428,o),
(206,428,cs),
(111,428,o),
(53,368,o),
(53,274,cs),
(53,162,o),
(126,80,o),
(241,-10,c)
);
},
{
closed = 1;
nodes = (
(557,-95,o),
(594,-86,o),
(638,-63,c),
(629,-38,l),
(584,-62,o),
(556,-69,o),
(516,-69,cs),
(459,-69,o),
(407,-43,o),
(407,33,cs),
(407,92,o),
(453,139,o),
(540,148,c),
(538,173,l),
(433,163,o),
(380,102,o),
(380,33,cs),
(380,-48,o),
(438,-95,o),
(517,-95,cs)
);
},
{
closed = 1;
nodes = (
(556,180,o),
(575,230,o),
(575,279,cs),
(575,382,o),
(516,429,o),
(447,429,cs),
(358,429,o),
(299,379,o),
(285,226,c),
(310,218,l),
(326,364,o),
(369,403,o),
(446,403,cs),
(506,403,o),
(548,362,o),
(548,278,cs),
(548,235,o),
(532,191,o),
(512,153,c),
(540,148,l)
);
}
);
width = 630;
},
{
anchors = (
{
name = bottom2;
pos = (451,-130);
},
{
name = candra;
pos = (510,622);
},
{
name = nukta;
pos = (198,-119);
},
{
name = top;
pos = (470,622);
}
);
layerId = "6C7CC43D-04A1-4971-B3B5-A41D54964AD2";
shapes = (
{
closed = 1;
nodes = (
(550,551,l),
(714,551,l),
(714,622,l),
(0,622,l),
(0,551,l),
(470,551,l),
(470,413,l),
(550,378,l)
);
},
{
closed = 1;
nodes = (
(302,48,l),
(179,118,o),
(126,178,o),
(126,254,cs),
(126,317,o),
(164,358,o),
(227,358,cs),
(275,358,o),
(309,336,o),
(332,304,c),
(370,363,l),
(334,403,o),
(286,430,o),
(219,430,cs),
(117,430,o),
(45,373,o),
(45,262,cs),
(45,148,o),
(124,63,o),
(255,-14,c)
);
},
{
closed = 1;
nodes = (
(636,-111,o),
(682,-96,o),
(715,-75,c),
(689,-9,l),
(648,-31,o),
(619,-41,o),
(577,-41,cs),
(536,-41,o),
(496,-21,o),
(496,24,cs),
(496,72,o),
(531,101,o),
(616,114,c),
(600,180,l),
(474,161,o),
(422,104,o),
(422,30,cs),
(422,-54,o),
(482,-111,o),
(582,-111,cs)
);
},
{
closed = 1;
nodes = (
(642,157,o),
(656,206,o),
(656,255,cs),
(656,362,o),
(594,428,o),
(486,428,cs),
(371,428,o),
(308,353,o),
(293,212,c),
(371,190,l),
(389,313,o),
(426,358,o),
(488,358,cs),
(542,358,o),
(575,322,o),
(575,254,cs),
(575,216,o),
(565,182,o),
(544,149,c),
(616,114,l)
);
}
);
width = 699;
},
{
anchors = (
{
name = bottom2;
pos = (431,-130);
},
{
name = candra;
pos = (567,622);
},
{
name = nukta;
pos = (208,-141);
},
{
name = top;
pos = (477,622);
}
);
layerId = "C05809E0-FD9D-43C4-90EB-E9E886B1ADAB";
shapes = (
{
closed = 1;
nodes = (
(651,484,l),
(813,484,l),
(813,622,l),
(0,622,l),
(0,484,l),
(477,484,l),
(477,403,l),
(651,359,l)
);
},
{
closed = 1;
nodes = (
(345,100,l),
(243,150,o),
(209,182,o),
(209,229,cs),
(209,261,o),
(230,284,o),
(265,284,cs),
(298,284,o),
(316,271,o),
(335,245,c),
(401,352,l),
(356,399,o),
(306,423,o),
(235,423,cs),
(115,423,o),
(29,359,o),
(29,234,cs),
(29,113,o),
(111,36,o),
(253,-29,c)
);
},
{
closed = 1;
nodes = (
(722,-123,o),
(773,-108,o),
(813,-84,c),
(766,29,l),
(729,8,o),
(698,0,o),
(669,0,cs),
(636,0,o),
(620,14,o),
(620,36,cs),
(620,67,o),
(650,81,o),
(718,85,c),
(698,197,l),
(560,187,o),
(462,136,o),
(462,35,cs),
(462,-62,o),
(542,-123,o),
(657,-123,cs)
);
},
{
closed = 1;
nodes = (
(741,129,o),
(755,174,o),
(755,225,cs),
(755,342,o),
(676,423,o),
(540,423,cs),
(393,423,o),
(318,353,o),
(296,197,c),
(459,162,l),
(473,254,o),
(502,284,o),
(538,284,cs),
(564,284,o),
(578,267,o),
(578,232,cs),
(578,205,o),
(569,163,o),
(537,135,c),
(718,85,l)
);
}
);
width = 798;
},
{
anchors = (
{
name = bottom2;
pos = (327,-110);
},
{
name = candra;
pos = (347,622);
},
{
name = nukta;
pos = (148,-99);
},
{
name = top;
pos = (333,622);
}
);
layerId = "5CC745D4-D12D-435B-A472-7D28876E43BC";
shapes = (
{
closed = 1;
nodes = (
(359,596,l),
(490,596,l),
(490,622,l),
(0,622,l),
(0,596,l),
(333,596,l),
(333,420,l),
(359,408,l)
);
},
{
closed = 1;
nodes = (
(205,9,l),
(116,97,o),
(67,182,o),
(67,277,cs),
(67,358,o),
(98,402,o),
(155,402,cs),
(192,402,o),
(217,382,o),
(239,346,c),
(255,365,l),
(227,407,o),
(196,428,o),
(155,428,cs),
(83,428,o),
(40,373,o),
(40,280,cs),
(40,175,o),
(97,82,o),
(185,-10,c)
);
},
{
closed = 1;
nodes = (
(424,-95,o),
(452,-84,o),
(476,-65,c),
(466,-43,l),
(439,-62,o),
(418,-69,o),
(391,-69,cs),
(350,-69,o),
(312,-44,o),
(312,36,cs),
(312,106,o),
(345,139,o),
(405,148,c),
(404,173,l),
(326,163,o),
(286,117,o),
(286,36,cs),
(286,-54,o),
(332,-95,o),
(392,-95,cs)
);
},
{
closed = 1;
nodes = (
(417,180,o),
(431,230,o),
(431,289,cs),
(431,382,o),
(395,429,o),
(335,429,cs),
(264,429,o),
(218,379,o),
(208,226,c),
(233,220,l),
(245,364,o),
(277,403,o),
(335,403,cs),
(386,403,o),
(404,362,o),
(404,288,cs),
(404,235,o),
(392,191,o),
(377,153,c),
(405,148,l)
);
}
);
width = 478;
},
{
anchors = (
{
name = bottom2;
pos = (325,-130);
},
{
name = candra;
pos = (381,622);
},
{
name = nukta;
pos = (148,-119);
},
{
name = top;
pos = (342,622);
}
);
layerId = "AA2163BC-B14D-4D16-A884-99BB623F1DBF";
shapes = (
{
closed = 1;
nodes = (
(416,554,l),
(537,554,l),
(537,622,l),
(0,622,l),
(0,554,l),
(342,554,l),
(342,417,l),
(416,382,l)
);
},
{
closed = 1;
nodes = (
(233,37,l),
(145,118,o),
(107,184,o),
(107,262,cs),
(107,327,o),
(131,362,o),
(178,362,cs),
(213,362,o),
(238,339,o),
(252,304,c),
(280,366,l),
(256,406,o),
(220,430,o),
(171,430,cs),
(89,430,o),
(32,377,o),
(32,270,cs),
(32,160,o),
(95,66,o),
(180,-13,c)
);
},
{
closed = 1;
nodes = (
(471,-110,o),
(503,-95,o),
(528,-74,c),
(504,-13,l),
(478,-31,o),
(457,-41,o),
(427,-41,cs),
(399,-41,o),
(372,-23,o),
(372,26,cs),
(372,76,o),
(400,103,o),
(462,116,c),
(449,177,l),
(339,161,o),
(299,104,o),
(299,25,cs),
(299,-56,o),
(347,-110,o),
(429,-110,cs)
);
},
{
closed = 1;
nodes = (
(481,163,o),
(492,219,o),
(492,275,cs),
(492,374,o),
(449,432,o),
(368,432,cs),
(272,432,o),
(221,362,o),
(216,212,c),
(287,194,l),
(295,320,o),
(320,362,o),
(365,362,cs),
(400,362,o),
(417,333,o),
(417,274,cs),
(417,229,o),
(409,188,o),
(393,149,c),
(462,116,l)
);
}
);
width = 525;
},
{
anchors = (
{
name = bottom2;
pos = (327,-130);
},
{
name = candra;
pos = (407,622);
},
{
name = nukta;
pos = (176,-119);
},
{
name = top;
pos = (357,622);
}
);
layerId = "6EDA54BC-5413-4E6E-9D6B-A24A39A704A7";
shapes = (
{
closed = 1;
nodes = (
(504,489,l),
(630,489,l),
(630,622,l),
(0,622,l),
(0,489,l),
(357,489,l),
(357,403,l),
(504,359,l)
);
},
{
closed = 1;
nodes = (
(277,64,l),
(205,137,o),
(173,184,o),
(173,238,cs),
(173,270,o),
(185,291,o),
(210,291,cs),
(232,291,o),
(248,276,o),
(266,246,c),
(323,350,l),
(281,402,o),
(244,423,o),
(182,423,cs),
(87,423,o),
(23,367,o),
(23,255,cs),
(23,162,o),
(69,69,o),
(162,-19,c)
);
},
{
closed = 1;
nodes = (
(557,-123,o),
(597,-108,o),
(630,-80,c),
(586,27,l),
(560,9,o),
(540,0,o),
(516,0,cs),
(492,0,o),
(480,12,o),
(480,33,cs),
(480,59,o),
(501,76,o),
(552,80,c),
(539,182,l),
(401,177,o),
(346,123,o),
(346,32,cs),
(346,-67,o),
(411,-123,o),
(503,-123,cs)
);
},
{
closed = 1;
nodes = (
(575,135,o),
(589,191,o),
(589,251,cs),
(589,354,o),
(535,424,o),
(419,424,cs),
(298,424,o),
(236,344,o),
(229,200,c),
(364,168,l),
(372,272,o),
(390,292,o),
(412,292,cs),
(433,292,o),
(440,275,o),
(440,244,cs),
(440,213,o),
(430,168,o),
(417,138,c),
(552,80,l)
);
}
);
width = 618;
}
);
script = devanagari;
subCategory = Other;
unicode = 2316;
}
